<svg width="544" height="440" viewBox="0 0 544 440" fill="none" xmlns="http://www.w3.org/2000/svg">
<path d="M89.206 386.058C85.0781 379.697 85.3262 371.358 89.0608 364.863C90.8551 361.651 93.5648 359.045 96.8447 357.378C100.664 355.509 107.455 354.917 109.166 359.992C110.768 364.739 106.667 369.2 102.282 370.169C97.6898 371.183 92.6656 369.608 88.6209 367.455C81.9964 363.791 76.8091 357.99 73.905 350.998C70.4773 343.259 70.1991 334.489 73.1294 326.548C73.3604 325.947 72.394 325.687 72.1651 326.282C65.7658 342.938 74.9797 363.768 91.8071 369.971C96.3221 371.636 102.026 372.424 106.273 369.606C109.345 367.568 111.346 363.353 110.131 359.726C108.896 356.041 104.913 354.718 101.35 355.059C97.2624 355.584 93.5137 357.603 90.8267 360.728C84.5712 367.66 83.1991 378.637 88.3425 386.563C88.6916 387.101 89.5577 386.6 89.206 386.058V386.058Z" fill="black"/>
<path d="M456.099 297.578C454.817 293.337 455.466 288.76 460.196 285.606C464.566 282.693 472.108 283.37 472.813 287.846C473.019 290.236 470.887 291.513 468.489 291.414C466.105 291.316 464.071 289.377 463.629 285.606C463.277 282.86 463.526 280.07 464.36 277.43" stroke="black" strokeLinecap="round"/>
<path d="M102.688 69.6037C109.564 66.2695 115.504 57.3086 110.318 54.1957C106.647 52.0989 102.948 55.9541 104.303 59.4967C105.468 62.546 109.519 64.9047 112.774 64.6515C116.094 64.4851 119.256 63.1828 121.731 60.9627" stroke="black" strokeLinecap="round"/>
<path d="M538.697 333.266L543.261 329.154C543.74 328.722 543.031 328.016 542.554 328.446L537.989 332.559C537.51 332.991 538.219 333.696 538.697 333.266Z" fill="black"/>
<path d="M372.981 359.208L367.784 355.931C367.238 355.587 366.735 356.452 367.279 356.794L372.476 360.071C373.022 360.416 373.525 359.551 372.981 359.208Z" fill="black"/>
<path d="M144.704 306.732L150.117 309.638C150.684 309.942 151.19 309.079 150.622 308.775L145.209 305.869C144.642 305.564 144.136 306.427 144.704 306.732Z" fill="black"/>
<path d="M187.925 0.927495L193.338 3.83332C193.905 4.13764 194.411 3.27465 193.843 2.96985L188.429 0.064015C187.862 -0.240305 187.357 0.622685 187.925 0.927495Z" fill="black"/>
<path d="M147.411 436.467L152.824 439.372C153.391 439.677 153.897 438.814 153.329 438.509L147.916 435.603C147.349 435.299 146.843 436.162 147.411 436.467Z" fill="black"/>
<path d="M423.289 150.459V157.76C423.298 158.03 423.519 158.243 423.789 158.243C424.059 158.243 424.28 158.03 424.289 157.76V150.46C424.28 150.19 424.059 149.977 423.789 149.977C423.519 149.977 423.298 150.19 423.289 150.46L423.289 150.459Z" fill="black"/>
<path d="M90.6336 246.291L96.4469 241.494C96.9437 241.084 96.2328 240.38 95.7398 240.786L89.9265 245.584C89.4297 245.994 90.1407 246.698 90.6336 246.291Z" fill="black"/>
<path d="M479.893 37.1135L485.201 38.7352C485.818 38.9237 486.082 37.9587 485.467 37.771L480.158 36.1493C479.542 35.9608 479.278 36.9258 479.893 37.1135Z" fill="black"/>
<path d="M464.043 415.684L469.352 417.306C469.969 417.494 470.232 416.529 469.618 416.341L464.309 414.72C463.692 414.531 463.428 415.496 464.043 415.684Z" fill="black"/>
<path d="M26.6045 63.9682L30.5264 56.4432C30.8234 55.8732 29.9608 55.367 29.6629 55.9385L25.741 63.4635C25.4439 64.0335 26.3066 64.5397 26.6045 63.9682Z" fill="black"/>
<path d="M22.2076 172.767L17.4047 165.771C17.0427 165.244 16.1757 165.743 16.5412 166.276L21.3441 173.271C21.7061 173.799 22.5731 173.299 22.2076 172.767V172.767Z" fill="black"/>
<path d="M16.7163 404.386L15.9139 410.105C15.8256 410.734 16.789 411.006 16.8782 410.37L17.6805 404.652C17.7688 404.022 16.8054 403.75 16.7163 404.386Z" fill="black"/>
<circle cx="525.68" cy="164.075" r="3.22298" stroke="black" strokeWidth="1.17797"/>
<circle cx="387.855" cy="25.5876" r="2.73604" stroke="black"/>
<circle cx="2.57346" cy="266.761" r="2.17502" stroke="black" strokeWidth="0.79495"/>
<circle cx="109.334" cy="154.111" r="2.73604" stroke="black"/>
</svg>
