<svg width="185" height="437" viewBox="0 0 185 437" fill="none" xmlns="http://www.w3.org/2000/svg">
<path d="M109.813 93.4616C121.632 95.2863 133.23 95.6212 138.668 95.1689C145.315 94.6161 150.283 94.2931 153.932 88.724C156.423 84.9212 155.494 77.5059 149.242 69.1891C142.446 60.1476 116.807 28.4415 106.144 21.0676C105.26 20.422 104.043 17.8851 103.026 16.656C101.913 15.3092 99.6629 14.0735 99.1387 14.1959L101.026 22.213L101.277 25.2911C115.311 41.1927 133.827 66.6965 136.934 71.1359C140.641 76.4312 137.702 78.6112 127.615 78.251C122.686 77.7849 117.789 77.0375 112.945 76.0126L109.813 93.4616Z" fill="white"/>
<path d="M109.707 93.8474C116.69 94.9246 123.735 95.5506 130.798 95.7213C135.693 95.8269 140.818 95.772 145.623 94.7266C149.646 93.8514 153.688 91.3187 155.087 87.2407C156.601 82.8298 154.8 77.7501 152.715 73.8482C150.822 70.3059 148.227 67.1696 145.749 64.0248C143.154 60.7322 140.522 57.4694 137.852 54.2365C131.524 46.5522 125.059 38.9568 118.215 31.7253C115.231 28.4718 112.053 25.4012 108.7 22.5302C108.106 22.0379 107.494 21.572 106.881 21.1047C105.803 20.1319 104.908 18.9747 104.237 17.6874C103.205 16.0899 101.236 13.8251 99.1385 13.7969C99.0144 13.7987 98.8981 13.8574 98.8229 13.9561C98.7477 14.0548 98.722 14.1826 98.7532 14.3026L100.256 20.6849C100.429 21.3468 100.566 22.0177 100.666 22.6945C100.767 23.5545 100.597 24.6964 100.932 25.4933C101.24 26.2261 102.262 27.0207 102.785 27.6272C103.399 28.3379 104.009 29.0515 104.615 29.7682C106.003 31.4069 107.375 33.0579 108.733 34.7213C111.541 38.1542 114.305 41.6226 117.025 45.1265C121.902 51.3863 126.686 57.7183 131.375 64.1224C132.803 66.0681 134.221 68.0216 135.628 69.9827C136.693 71.4734 138.86 73.8667 137.838 75.7901C137.026 77.3185 134.503 77.583 133.014 77.7391C130.462 77.9765 127.892 77.9396 125.348 77.6291C121.217 77.1774 117.112 76.5094 113.051 75.6279C112.839 75.572 112.621 75.6959 112.56 75.907L109.428 93.356C109.338 93.8588 110.108 94.0746 110.199 93.5684L111.555 86.0125L112.57 80.3577C112.769 79.2464 113.351 77.7113 113.247 76.5826C113.172 75.7592 113.384 76.6554 112.941 76.4206C113.59 76.6415 114.264 76.7781 114.948 76.8271C117.902 77.3984 120.875 77.8806 123.86 78.253C127.051 78.7304 130.289 78.8077 133.499 78.4831C134.959 78.2997 136.677 78.0163 137.834 77.0152C140.022 75.1217 138.206 72.2503 136.914 70.4169C135.038 67.7548 133.107 65.1306 131.175 62.5088C124.57 53.5427 117.82 44.6754 110.813 36.0182C108.721 33.4328 106.598 30.8725 104.444 28.3371C103.663 27.4216 102.191 26.2751 101.671 25.2311C101.345 24.5756 101.54 23.2996 101.454 22.5681C101.12 19.7253 100.18 16.8775 99.5238 14.0902L99.1385 14.596C101.896 14.6332 103.555 18.2866 104.87 20.1768C105.742 21.2228 106.76 22.1382 107.892 22.895C110.593 25.1644 113.163 27.5848 115.591 30.1448C121.911 36.6344 127.846 43.5037 133.665 50.4426C138.501 56.2084 143.27 62.0402 147.849 68.0125C153.198 74.9886 159.853 88.0095 148.39 93.0248C143.656 95.0963 137.65 94.984 132.556 94.9479C124.975 94.8657 117.411 94.2404 109.919 93.0769C109.416 93.0006 109.199 93.7705 109.707 93.8474Z" fill="black"/>
<path d="M74.0274 59.1364C73.0046 56.3656 73.3934 46.2885 78.4414 44.1337C81.5711 42.7977 87.1751 46.1213 91.2906 45.8373C97.0124 45.4424 97.8653 40.0046 99.3295 36.1709C99.5022 35.7187 99.7054 34.8598 100.661 34.9512C101.354 35.0175 101.833 35.1184 102.526 35.1864C105.447 35.473 106.598 32.8743 105.107 31.1596C104.257 30.4393 103.17 30.061 102.056 30.0982C101.741 30.0878 101.444 29.9448 101.24 29.7044C101.035 29.464 100.942 29.1485 100.982 28.8354C101.405 25.2672 101.196 21.6523 100.365 18.1564C99.0221 11.5617 94.973 9.38582 90.5766 9.39063C86.8388 9.39473 81.4791 12.1815 78.2067 19.9872C74.9492 27.7574 70.638 47.2016 66.6863 53.4292C65.955 54.5066 65.1678 55.5451 64.3281 56.5403C65.627 58.0263 67.3161 59.1189 69.204 59.6943C72.3936 60.6402 74.0274 59.1364 74.0274 59.1364Z" fill="white"/>
<path fillRule="evenodd" clipRule="evenodd" d="M69.0895 60.0789C69.7833 60.2919 70.5043 60.4032 71.2301 60.4094C72.3361 60.4585 73.4235 60.112 74.2973 59.432L74.4945 59.25L74.4019 58.9992C73.4223 56.3461 73.7715 46.5633 78.5976 44.5031C80.2025 43.818 82.6037 44.4826 85.1437 45.1857L85.1445 45.1859L85.1641 45.1913C87.2576 45.7717 89.4211 46.3715 91.3176 46.2383C96.4516 45.8836 97.8451 41.749 99.0747 38.1008L99.075 38.1L99.0891 38.0583C99.292 37.4572 99.4904 36.8692 99.7019 36.3148L99.7563 36.1672C99.9754 35.5539 100.146 35.2984 100.621 35.3508C100.965 35.3836 101.255 35.425 101.546 35.4672C101.841 35.5094 102.137 35.5515 102.486 35.5859C103.826 35.8297 105.175 35.2106 105.864 34.0359C106.383 32.9975 106.201 31.7462 105.408 30.8984C104.599 29.9672 102.922 29.7063 102.058 29.6992C101.868 29.6972 101.688 29.6138 101.564 29.4703C101.422 29.309 101.354 29.095 101.379 28.8813C101.807 25.2716 101.597 21.6147 100.756 18.0781C99.227 10.5703 94.3871 8.99219 90.5898 8.99219H90.5754C86.7941 8.99609 81.1891 11.8375 77.8371 19.8336C76.5152 22.9867 75.0316 28.0125 73.4613 33.3336C71.2184 40.9336 68.6762 49.5469 66.3473 53.2164C65.6269 54.2762 64.8523 55.2982 64.0266 56.2781L63.8066 56.5289L64.0141 56.7898C65.3612 58.3436 67.1209 59.484 69.0895 60.0789ZM69.3168 59.3117C67.6165 58.7846 66.0805 57.829 64.8562 56.5367V56.5367C65.5086 55.7507 66.5914 54.325 67.023 53.6446C69.4117 49.8805 71.8605 41.5836 74.2285 33.5602L74.2287 33.5593C75.7927 28.2604 77.27 23.2553 78.5746 20.143C81.775 12.5086 87.0402 9.79613 90.5762 9.79222H90.5894C94.0886 9.79222 98.5512 11.2594 99.9726 18.2375C100.794 21.6926 101.001 25.2654 100.584 28.7922C100.534 29.231 100.673 29.6702 100.966 30.0008C101.239 30.3154 101.635 30.4969 102.052 30.4992C103.051 30.4623 104.03 30.7909 104.804 31.4234C105.378 32.0256 105.517 32.9208 105.154 33.6687C104.609 34.5463 103.576 34.9931 102.564 34.7891C102.229 34.7563 101.944 34.7156 101.66 34.675C101.357 34.6313 101.055 34.5883 100.698 34.5539C99.874 34.5071 99.1453 35.0847 99.0027 35.8977L98.9547 36.0289C98.7387 36.5951 98.5356 37.1967 98.3282 37.8108L98.3168 37.8445C97.1109 41.4227 95.8641 45.1219 91.2625 45.4398C89.4926 45.5586 87.3926 44.9789 85.3582 44.4156C82.6793 43.6727 80.148 42.9719 78.2836 43.7672C73.1105 45.975 72.6023 55.7422 73.5574 58.9906C73.0617 59.3164 71.6519 60.0039 69.3168 59.3117Z" fill="black"/>
<path d="M104.292 414.622C104.085 416.208 102.731 417.394 101.132 417.39H95.7795C94.9198 417.389 94.0968 417.042 93.4972 416.426C92.8977 415.809 92.5725 414.977 92.5955 414.118C94.0355 353.974 78.5795 290.214 59.2035 238.83C58.7075 294.038 44.9715 398.438 40.9555 412.982C40.3635 414.726 39.8115 417.598 36.8915 417.582C34.7144 417.562 32.5422 417.369 30.3955 417.006C27.4915 416.542 28.0035 412.766 28.2355 411.102C33.6355 362.142 26.4035 319.286 22.5795 268.27C21.3395 251.694 14.6675 233.382 14.6675 233.382C8.20353 216.318 4.37153 204.246 4.01953 187.758C12.1395 195.686 40.4355 197.862 52.6675 197.686C60.9955 197.566 83.7875 199.158 95.1635 192.974C105.972 238.862 107.284 264.422 108.876 317.526C109.644 343.07 107.948 385.734 104.292 414.622Z" fill="white"/>
<path d="M103.905 414.519C103.336 417.211 100.937 416.993 98.8355 416.993C97.0177 416.993 94.5128 417.429 93.452 415.595C92.6382 414.187 93.0414 412.091 93.0614 410.508C93.0829 408.818 93.0915 407.127 93.0872 405.437C93.079 402.164 93.0239 398.892 92.9221 395.621C92.4875 382.299 91.3829 369.007 89.6123 355.796C86.074 329.691 80.5143 303.901 72.9835 278.657C69.0116 265.187 64.5468 251.877 59.5889 238.727C59.5307 238.539 59.3456 238.421 59.1511 238.448C58.9566 238.474 58.8096 238.637 58.8032 238.833C58.5603 264.216 56.3343 289.601 53.8224 314.844C51.3726 339.464 48.4821 364.06 44.8624 388.537C43.8112 395.646 42.7707 402.783 41.2889 409.818C41.0936 410.745 40.8992 411.677 40.6469 412.591C40.4098 413.624 40.042 414.623 39.5524 415.563C38.2678 417.753 35.5972 417.218 33.4362 417.008C31.2094 416.791 28.8239 416.81 28.4844 414.099C28.4195 412.59 28.5248 411.078 28.7982 409.593C29.2822 404.995 29.6637 400.388 29.9426 395.772C32.1503 359.481 27.8083 323.327 24.5587 287.239C23.7443 278.195 23.4328 269.022 21.9847 260.051C20.7804 252.848 19.0715 245.739 16.8707 238.776C15.4029 234.042 13.5757 229.451 11.9236 224.779C9.03921 217.001 6.89467 208.968 5.51851 200.788C4.87644 196.473 4.50925 192.122 4.41916 187.761L3.73632 188.044C7.49011 191.606 12.9973 193.188 17.8921 194.403C24.485 195.96 31.1909 196.993 37.9469 197.491C43.4814 197.961 48.9924 198.051 54.5408 198.085C60.8968 198.124 67.2463 198.31 73.5986 197.965C80.9146 197.567 88.788 196.808 95.365 193.322L94.7774 193.083C98.0835 207.15 100.973 221.319 103.024 235.627C104.943 249.017 106.102 262.498 106.861 276C108.529 305.704 109.175 335.421 107.827 365.149C107.079 381.671 105.956 398.21 103.891 414.625C103.827 415.134 104.628 415.13 104.691 414.625C108.347 385.556 109.666 355.982 109.441 326.695C109.324 311.425 108.684 296.128 107.92 280.877C107.238 267.281 106.221 253.698 104.451 240.197C102.278 224.282 99.3073 208.487 95.5488 192.871C95.5143 192.752 95.4273 192.656 95.3128 192.609C95.1983 192.562 95.0688 192.571 94.9612 192.632C88.9945 195.794 81.8954 196.614 75.2563 197.064C68.9672 197.491 62.6669 197.39 56.369 197.305C44.6617 197.148 33.0537 196.787 21.5345 194.408C15.7272 193.209 8.75129 191.7 4.30198 187.478C4.18607 187.368 4.01634 187.337 3.86876 187.398C3.72118 187.459 3.62338 187.601 3.61914 187.761C3.82025 196.177 5.03592 204.537 7.23979 212.662C9.2082 219.92 11.9327 226.892 14.4503 233.966C16.2472 239.095 17.7775 244.314 19.0349 249.601C21.2268 258.626 22.0939 267.643 22.8596 276.875C25.9678 314.348 31.0376 351.827 29.4636 389.51C29.2674 394.206 28.9701 398.896 28.5717 403.581C28.3784 405.839 28.1675 408.096 27.9177 410.348C27.6658 411.72 27.6058 413.119 27.7392 414.507C28.2239 417.385 30.6359 417.512 33.1189 417.774C36.0873 418.088 39.0913 418.523 40.5244 415.413C41.5706 413.142 41.9807 410.512 42.4549 408.074C43.1168 404.67 43.6883 401.249 44.2384 397.826C47.9613 374.659 50.757 351.325 53.2612 327.999C56.1454 301.133 58.6645 274.146 59.4422 247.126C59.5218 244.362 59.5754 241.598 59.6032 238.833L58.8175 238.939C68.4988 264.545 76.2857 290.828 82.1155 317.575C88.2027 345.712 92.0174 374.446 92.2747 403.259C92.292 405.193 92.2926 407.127 92.2767 409.061C92.2615 410.882 91.9564 412.903 92.2331 414.701C92.5262 416.501 94.092 417.816 95.9155 417.793C98.9596 417.961 103.851 418.634 104.677 414.731C104.783 414.229 104.012 414.014 103.905 414.519Z" fill="black"/>
<path d="M102.965 417.235C102.71 419.67 104.191 422.676 105.579 424.693C106.795 426.429 108.577 427.687 110.619 428.252C112.821 428.832 115.088 429.128 117.365 429.135C119.168 429.14 121.052 429.041 122.661 429.854C123.828 430.428 124.72 431.442 125.14 432.672C125.603 433.982 125.087 435.817 123.706 435.968C122.451 436.106 120.655 436.188 119.864 436.188C111.964 436.438 106.755 436.226 99.8687 436.052C99.487 436.084 99.1058 435.984 98.7887 435.769C98.3727 435.408 98.4145 434.766 98.4376 434.215C98.5277 433.413 98.3251 432.604 97.867 431.939C97.3666 431.275 96.4319 431.124 95.7471 431.595C94.6664 432.544 95.5523 435.404 94.2001 435.895C93.981 435.974 91.5383 435.919 90.0263 435.858C89.4298 435.833 88.9443 435.369 88.8919 434.775C88.605 431.664 88.8597 427.748 90.2524 425.044C90.9449 423.7 91.9835 422.563 92.7386 421.253C93.5789 420.061 94.0137 418.63 93.9788 417.172L102.965 417.235Z" fill="black"/>
<path d="M38.2614 417.416C38.0064 419.851 39.4879 422.857 40.8756 424.875C42.0914 426.61 43.8736 427.868 45.9161 428.433C48.1181 429.013 50.385 429.309 52.6621 429.316C54.4647 429.321 56.3492 429.222 57.9581 430.035C59.1249 430.609 60.0164 431.623 60.4371 432.853C60.8995 434.163 60.3837 435.998 59.0028 436.15C57.7478 436.287 55.9523 436.37 55.1611 436.37C47.2606 436.619 42.0521 436.407 35.1656 436.233C34.7839 436.265 34.4026 436.165 34.0856 435.95C33.6696 435.589 33.7113 434.947 33.7345 434.396C33.8246 433.594 33.622 432.786 33.1638 432.12C32.6634 431.457 31.7288 431.305 31.0439 431.776C29.9633 432.726 30.8492 435.585 29.497 436.076C29.2779 436.155 26.8352 436.101 25.3232 436.039C24.7266 436.014 24.2412 435.55 24.1888 434.956C23.9019 431.845 24.1566 427.929 25.5492 425.225C26.2418 423.881 27.2803 422.744 28.0355 421.434C28.8882 419.965 29.3292 418.293 29.3121 416.594L33.5037 417.587L38.2614 417.416Z" fill="black"/>
<circle cx="95.8175" cy="26.1046" r="1.08121" fill="black"/>
<path d="M92.4748 22.9858C92.8191 22.2002 93.4647 21.5861 94.2664 21.2814C95.0682 20.9767 95.9587 21.0071 96.7378 21.3658C97.4537 21.6548 97.7649 20.4946 97.0568 20.2086C94.9047 19.3163 92.4312 20.2723 91.4387 22.3801C91.1044 23.0725 92.1388 23.6817 92.4748 22.9857V22.9858Z" fill="black"/>
<path d="M80.1774 21.4006C79.8028 20.6882 79.0843 20.2223 78.2811 20.1706C76.4075 19.9823 75.024 21.6947 74.6589 22.3416C74.0316 23.5041 73.7322 24.8153 73.7928 26.1348C73.8178 27.4362 74.4764 28.6434 75.5572 29.3687C76.6501 30.0325 78.9136 30.2526 79.8199 28.9233L80.1774 21.4006Z" fill="white"/>
<path d="M80.5228 21.1974C79.7103 19.637 77.688 19.4487 76.2551 20.2299C74.6136 21.2415 73.5653 22.987 73.4436 24.9113C73.2212 26.841 73.7973 28.9779 75.6805 29.882C77.142 30.6601 78.9411 30.3846 80.1027 29.2048C80.4364 28.8161 79.873 28.2477 79.537 28.6391C78.6232 29.5679 77.2048 29.7794 76.0598 29.1575C74.3081 28.3319 73.9896 26.2704 74.2972 24.5612C74.4456 23.5932 74.8455 22.6811 75.457 21.9162C76.4634 20.7406 78.8216 19.6606 79.832 21.6011C80.0699 22.0579 80.7606 21.6539 80.5228 21.1974V21.1974Z" fill="black"/>
<path d="M78.7102 22.5372C77.6776 22.1876 76.5364 22.5127 75.8431 23.354C75.167 24.1663 74.9578 25.2699 75.2896 26.2733C75.4612 26.7548 76.2345 26.5473 76.061 26.0607C75.7724 25.3387 75.9155 24.5157 76.4309 23.9336C76.9463 23.3514 77.7459 23.1096 78.4975 23.3087C78.7073 23.3587 78.919 23.2336 78.9763 23.0256C79.0336 22.8177 78.916 22.6018 78.7102 22.5372V22.5372Z" fill="black"/>
<path d="M103.537 13.8642C102.303 14.1644 101.038 14.3174 99.7685 14.3202C92.1925 14.5442 85.0086 15.0402 77.8005 19.9442V19.9442C75.6451 17.4708 74.7358 14.1492 75.331 10.9228C75.9261 7.69645 77.9605 4.91784 80.8565 3.37617C80.6431 3.11724 80.527 2.79174 80.5285 2.45617C80.525 1.64548 81.1708 0.980989 81.9812 0.961381C82.7917 0.941773 83.4689 1.57426 83.5045 2.38417C88.2935 1.30424 93.2072 3.59664 95.4565 7.96017C97.2165 8.25617 98.9765 8.56017 100.737 8.85617C101.571 8.96514 102.397 9.13085 103.209 9.35217C104.321 9.68817 105.417 10.2802 105.537 11.1922C105.705 12.5282 105.017 13.4082 103.537 13.8642Z" fill="black"/>
<path d="M92.7852 38.4389C93.486 38.3722 94.1782 38.6338 94.6596 39.1473C94.9901 39.4677 95.7088 40.68 94.669 40.6511C94.256 40.6397 93.7509 40.1957 93.4208 39.9792C92.9772 39.6883 91.6522 38.8417 92.7852 38.4389C93.2669 38.2676 93.0594 37.4944 92.5726 37.6675C92.066 37.8082 91.6862 38.2287 91.5976 38.7469C91.509 39.2651 91.7275 39.7879 92.1585 40.089C92.8719 40.6579 94.055 41.6253 95.0367 41.4366C96.1227 41.2278 96.1864 39.9907 95.7163 39.1837C95.0624 38.0989 93.8286 37.5038 92.5726 37.6675C92.0664 37.7564 92.2809 38.5275 92.7852 38.4389Z" fill="black"/>
<path d="M84.1633 101.711C84.0185 100.267 84.4887 98.8296 85.4583 97.7507C86.4279 96.6718 87.8073 96.0514 89.2579 96.0418C90.1044 96.0603 90.9492 96.1264 91.7883 96.2397C95.9946 96.7351 99.1822 97.7926 103.374 98.6716C106.872 99.405 108.552 98.5773 109.181 96.3482C110.404 92.0173 112.353 81.9352 113.341 78.2946C113.807 76.5806 114.697 73.5016 112.73 71.4794C111.773 70.4954 109.94 69.9478 108.626 69.5483C97.5583 66.2947 86.6811 62.4252 76.0451 57.9578C75.7181 57.8229 75.3449 57.8627 75.0537 58.0637C73.8247 58.8931 71.3689 59.9155 69.2738 59.0663C66.5376 57.9572 65.2345 56.8653 64.299 55.5531C64.1194 55.2964 63.8353 55.1325 63.5232 55.1055C63.2111 55.0785 62.9031 55.1913 62.6821 55.4133C57.8138 60.3789 50.4123 65.4257 44.6365 70.395C9.4729 98.9632 -5.6297 146.637 2.02696 184.652C5.11648 195.13 38.967 197.887 52.6684 197.691C62.2918 197.554 91.2203 199.697 99.5486 189.488C108.146 179.343 106.824 165.42 102.987 151.464C98.5038 135.158 85.7311 118.548 84.1633 101.711Z" fill="black"/>
<path d="M48.2344 155.654C51.5116 161.035 55.0963 166.858 59.2016 173.194C63.5143 179.852 75.1185 194.265 81.6606 198.75C89.0742 203.833 110.832 211.557 141.406 212.774C144.532 213.157 145.765 213.532 153.034 218.796C156.011 220.951 161.995 223.228 165.338 223.488L172.871 224.377C173.957 224.462 178.215 224.896 179.515 224.406C180.3 224.187 180.724 222.411 177.37 222.076C167.362 221.076 167.736 219.529 167.736 219.529C167.861 218.681 170.584 219.147 171.429 219.236C174.286 219.536 176.219 219.662 178.987 219.996C181.132 220.255 182.959 220.466 183.15 219.193C183.198 218.453 182.823 218.099 181.379 217.922C177.317 217.424 173.738 217.119 169.708 216.41C169.061 216.285 168.686 215.555 169.147 215.103C169.979 214.367 179.299 216.132 182.36 216.406C182.841 216.449 183.822 216.495 184.101 215.702C184.208 215.385 184.175 215.039 184.012 214.748C183.848 214.457 183.568 214.25 183.243 214.177C182.447 213.966 180.932 213.733 180.016 213.597C176.508 213.074 173.123 212.914 169.601 212.507C169.313 212.494 169.076 212.278 169.036 211.993C168.997 211.709 169.166 211.436 169.438 211.345C170.348 211.108 176.581 211.774 179.672 211.908C180.242 211.959 180.815 211.839 181.317 211.564C182.212 211.107 182.071 210.029 181.292 209.44C180.806 209.19 180.274 209.04 179.728 208.998C174.778 208.282 165.714 208.364 161.277 207.631C161.039 207.591 160.865 207.383 160.868 207.142C160.871 206.901 161.049 206.698 161.288 206.663C163.049 206.407 164.36 206.618 166.872 206.237C169.14 205.893 169.834 205.519 169.758 204.76C169.655 203.729 168.265 203.622 167.769 203.576C165.818 203.432 163.857 203.499 161.92 203.777C160.27 203.977 158.42 204.398 156.555 204.794C152.689 205.615 148.037 204.264 143.057 203.149C121.651 197.797 102.181 188.873 95.8934 184.217C88.4163 178.681 83.5473 170.377 79.2077 162.147C75.99 156.045 73.0664 150.215 70.3644 144.43L48.2344 155.654Z" fill="white"/>
<path fillRule="evenodd" clipRule="evenodd" d="M173.282 224.81C174.691 224.93 176.162 225.035 177.375 225.035C178.132 225.072 178.89 224.989 179.621 224.788C180.166 224.617 180.517 224.088 180.462 223.52C180.421 223.053 180.043 221.937 177.41 221.675C169.656 220.9 168.366 219.82 168.164 219.56C168.324 219.44 168.921 219.323 170.985 219.582C171.143 219.602 171.28 219.619 171.387 219.63C172.551 219.753 173.561 219.847 174.537 219.937L174.581 219.941C175.987 220.071 177.319 220.195 178.939 220.39L178.939 220.39C181.179 220.661 183.295 220.917 183.549 219.216C183.627 218.036 182.757 217.685 181.427 217.522C180.385 217.394 179.374 217.279 178.38 217.166L178.089 217.134C175.298 216.819 172.661 216.521 169.783 216.014C169.588 215.98 169.425 215.845 169.357 215.659C169.324 215.574 169.34 215.479 169.398 215.41C170.023 215.043 174.987 215.775 177.992 216.218L178.042 216.226C179.82 216.488 181.356 216.715 182.325 216.801C183.495 216.907 184.215 216.579 184.479 215.831C184.621 215.421 184.585 214.97 184.381 214.587C184.164 214.186 183.788 213.896 183.345 213.787C182.743 213.628 181.673 213.435 180.075 213.198C177.973 212.885 175.881 212.699 173.856 212.518L173.827 212.516L173.799 212.513C172.445 212.393 171.046 212.268 169.654 212.108C169.535 212.107 169.437 212.015 169.429 211.896C169.417 211.82 169.465 211.748 169.539 211.729C171.48 211.703 173.419 211.797 175.348 212.009C176.9 212.13 178.504 212.255 179.654 212.305C180.294 212.356 180.934 212.221 181.499 211.918C181.965 211.701 182.281 211.252 182.328 210.739C182.356 210.099 182.057 209.489 181.534 209.119C180.997 208.817 180.399 208.639 179.785 208.599C177.341 208.246 173.883 208.084 170.539 207.928L170.511 207.927C167.1 207.767 163.576 207.602 161.342 207.233C161.32 207.232 161.299 207.222 161.285 207.205C161.271 207.188 161.265 207.166 161.268 207.144C161.265 207.122 161.272 207.1 161.287 207.083C161.302 207.066 161.323 207.056 161.346 207.056C162.077 206.961 162.813 206.909 163.55 206.901C164.683 206.885 165.812 206.794 166.932 206.629C168.773 206.351 170.286 206.015 170.156 204.716C170.022 203.376 168.375 203.226 167.805 203.175C165.826 203.028 163.836 203.095 161.872 203.377C160.426 203.552 158.87 203.886 157.224 204.239L157.222 204.239L156.472 204.399C153.221 205.09 149.311 204.182 145.172 203.221L145.154 203.217C144.49 203.062 143.82 202.907 143.154 202.758C120.962 197.209 101.976 188.22 96.1313 183.893C88.557 178.284 83.607 169.629 79.5617 161.957C76.218 155.616 73.3281 149.827 70.727 144.257L70.552 143.883L47.668 155.49L47.8926 155.859C51.1234 161.164 54.6891 166.962 58.866 173.409C63.0559 179.876 74.8066 194.534 81.4344 199.077C85.7316 202.023 93.4992 205.128 102.745 207.595C115.377 210.844 128.323 212.713 141.358 213.168C144.373 213.537 145.564 213.877 152.8 219.117C155.817 221.302 161.895 223.619 165.291 223.882L172.839 224.773L173.282 224.81ZM59.5371 172.974C55.4625 166.684 51.9692 161.011 48.8008 155.812L70.177 144.97C72.7383 150.437 75.5793 156.12 78.8539 162.33C82.9407 170.08 87.9461 178.827 95.6555 184.535C101.551 188.902 120.663 197.959 142.969 203.537C143.572 203.672 144.171 203.81 144.763 203.948L144.972 203.996L144.983 203.999C149.215 204.981 153.213 205.91 156.638 205.182L157.389 205.021C159.018 204.672 160.557 204.342 161.968 204.17C163.887 203.897 165.829 203.831 167.761 203.974C168.474 204.039 169.3 204.191 169.361 204.796C169.392 205.109 169.223 205.473 166.812 205.838C165.724 205.999 164.626 206.087 163.526 206.102C162.758 206.11 161.992 206.164 161.23 206.264C160.796 206.327 160.473 206.697 160.468 207.135C160.464 207.573 160.779 207.95 161.211 208.022C164.294 208.412 167.395 208.648 170.501 208.727L170.528 208.729C173.845 208.884 177.272 209.044 179.69 209.394C180.162 209.433 180.622 209.556 181.051 209.756C181.352 209.962 181.532 210.304 181.531 210.669C181.507 210.907 181.355 211.112 181.135 211.205C180.695 211.451 180.19 211.555 179.689 211.506C178.553 211.456 176.955 211.332 175.411 211.212C172.029 210.949 169.935 210.8 169.338 210.955C168.894 211.07 168.596 211.487 168.631 211.945C168.66 212.448 169.053 212.854 169.554 212.902C170.973 213.066 172.388 213.191 173.757 213.313C175.779 213.492 177.868 213.678 179.957 213.989L179.981 213.993C180.581 214.082 182.3 214.338 183.14 214.561C183.368 214.612 183.562 214.758 183.674 214.962C183.773 215.148 183.791 215.366 183.724 215.566C183.593 215.935 183.17 216.077 182.396 216.005C181.45 215.92 179.851 215.684 178.158 215.434C172.12 214.544 169.493 214.257 168.866 214.815C168.578 215.092 168.471 215.508 168.59 215.89C168.746 216.363 169.148 216.713 169.638 216.801C172.529 217.31 175.162 217.608 177.946 217.923L178 217.929L178.107 217.941C179.158 218.06 180.226 218.18 181.33 218.316C182.793 218.495 182.773 218.819 182.754 219.129L182.754 219.131C182.629 219.967 181.201 219.858 179.034 219.596C177.402 219.399 176.064 219.275 174.651 219.144L174.611 219.141L174.448 219.126C173.526 219.04 172.566 218.95 171.471 218.835L171.086 218.788L171.081 218.788C169.657 218.609 167.506 218.339 167.347 219.433C167.312 219.633 167.365 219.839 167.494 219.997C168.239 221.047 171.64 221.902 177.33 222.47C178.996 222.638 179.629 223.177 179.664 223.589C179.685 223.786 179.563 223.971 179.373 224.029C178.297 224.434 174.703 224.128 173.35 224.013L165.369 223.087C162.072 222.83 156.192 220.586 153.268 218.469C145.873 213.113 144.629 212.763 141.422 212.371C110.902 211.156 89.0969 203.361 81.8867 198.418C75.341 193.93 63.6965 179.394 59.5371 172.974Z" fill="black"/>
<path d="M31.0102 136.284C34.6506 142.26 38.1142 148.397 41.9565 154.244C43.1322 156.034 44.5937 157.201 46.8366 156.899C49.5598 156.532 52.2835 154.81 54.7164 153.629C57.6378 152.211 60.5234 150.723 63.3731 149.163C65.7112 147.884 68.6991 146.68 70.5199 144.666C72.2886 142.709 71.5474 140.484 70.7632 138.246C69.5976 134.92 68.4264 131.596 67.2494 128.274L59.311 105.743C59.141 105.26 58.3678 105.468 58.5396 105.955L66.0876 127.378C67.3889 131.072 68.6999 134.762 69.9917 138.459C70.7806 140.717 71.4169 142.906 69.3518 144.683C67.9702 145.723 66.4911 146.627 64.9352 147.382C61.8866 149.095 58.7944 150.728 55.6584 152.279C53.9794 153.11 52.2886 153.917 50.5862 154.699C48.4714 155.672 45.8077 157.099 43.7223 155.225C42.4126 154.048 41.584 152.104 40.6863 150.631L37.8273 145.938L31.7009 135.881C31.4335 135.442 30.7413 135.843 31.0101 136.285L31.0102 136.284Z" fill="white"/>
<path d="M55.8477 208.484C59.0977 219.633 59.2013 238.836 59.2013 238.836C59.2013 238.836 65.8824 236.05 64.0532 217.545" stroke="black" stroke-linecap="round" stroke-dasharray="6"/>
<path d="M8.41602 196.594C24.4124 202.35 41.3412 205.077 58.336 204.633C84.7335 203.849 86.4096 201.57 86.4096 201.57" stroke="black" stroke-linecap="round" stroke-dasharray="6"/>
<path fillRule="evenodd" clipRule="evenodd" d="M32.8344 412.654C32.8528 412.657 32.8713 412.658 32.8899 412.658H32.8899C33.1 412.658 33.2741 412.495 33.2885 412.285C33.3029 412.076 33.1527 411.891 32.9445 411.862C31.3889 411.667 29.8618 411.288 28.3949 410.735C28.192 410.649 27.9581 410.744 27.8719 410.947C27.7856 411.149 27.8794 411.383 28.0817 411.47C29.6121 412.056 31.208 412.454 32.8344 412.654ZM35.2617 412.876C35.6365 412.893 36.0223 412.902 36.4192 412.902C37.6587 412.902 38.8966 412.813 40.1235 412.637C40.265 412.617 40.3849 412.522 40.438 412.389C40.4911 412.257 40.4693 412.106 40.3809 411.993C40.2925 411.881 40.1509 411.824 40.0094 411.845C38.4489 412.066 36.8715 412.144 35.2969 412.078C35.0775 412.071 34.8924 412.24 34.8797 412.459C34.8749 412.565 34.9125 412.668 34.9842 412.747C35.0558 412.825 35.1557 412.871 35.2617 412.876Z" fill="black"/>
<path fillRule="evenodd" clipRule="evenodd" d="M97.0824 412.749C97.0941 412.749 97.1059 412.75 97.1172 412.75V412.75C97.331 412.75 97.5064 412.581 97.5155 412.367C97.5246 412.154 97.3641 411.971 97.1512 411.952C95.5876 411.838 94.0429 411.539 92.5492 411.063C92.3417 410.988 92.112 411.094 92.0361 411.302C91.9603 411.509 92.0671 411.739 92.2746 411.815C93.8337 412.319 95.448 412.633 97.0824 412.749ZM99.1129 412.445C99.1137 412.666 99.2935 412.844 99.5144 412.843H99.5176C101.144 412.83 102.765 412.665 104.361 412.349C104.577 412.307 104.718 412.096 104.675 411.88C104.632 411.663 104.422 411.522 104.205 411.565C102.659 411.87 101.088 412.03 99.5113 412.043C99.2904 412.044 99.112 412.224 99.1129 412.445Z" fill="black"/>
</svg>
