<svg width="470" height="365" viewBox="0 0 470 365" fill="none" xmlns="http://www.w3.org/2000/svg">
<path d="M93.6725 91.8664C93.4389 91.8664 93.2045 91.8547 92.9694 91.8313C90.0745 91.5438 87.2741 89.7094 85.2866 86.8C85.2059 86.682 85.1943 86.5298 85.2563 86.4009C85.3182 86.2721 85.4442 86.186 85.5867 86.1752C85.7293 86.1643 85.8668 86.2304 85.9475 86.3485C87.801 89.0625 90.3893 90.7711 93.0483 91.036C96.0585 91.3227 99.0448 89.4586 99.7092 86.8547C100.107 84.9677 99.4938 83.0095 98.0905 81.6867C97.3461 81.0189 96.268 80.8768 95.376 81.3289C94.5714 81.7401 94.1705 82.6634 94.4194 83.532C94.7042 84.6205 95.7146 85.359 96.8381 85.3C96.8616 85.3 96.8877 85.2992 96.9085 85.2992C97.1294 85.2972 97.3101 85.4746 97.3122 85.6955C97.3142 85.9164 97.1368 86.0972 96.9159 86.0992C95.3982 86.193 94.0267 85.1988 93.6436 83.7273C93.2918 82.4914 93.8726 81.1806 95.0245 80.6109C96.1986 80.0178 97.6157 80.2001 98.6014 81.0711C100.229 82.6006 100.942 84.8672 100.484 87.0531C99.7784 89.818 96.8096 91.8664 93.6725 91.8664Z" fill="black"/>
<path d="M43.9636 254.786C43.4105 254.779 42.8746 254.593 42.4358 254.257C41.1115 253.172 40.4601 251.468 40.7237 249.776C41.1659 247.478 43.6249 245.71 46.2214 245.792C48.642 246 50.8487 247.262 52.2558 249.243C52.3905 249.417 52.3584 249.668 52.184 249.803C52.0096 249.939 51.7587 249.907 51.623 249.733C50.3605 247.94 48.3742 246.791 46.1902 246.592C43.9601 246.509 41.88 248.002 41.5097 249.928C41.3143 251.314 41.8425 252.704 42.9093 253.611C43.4611 254.059 44.2337 254.114 44.8433 253.749C45.3876 253.433 45.6267 252.772 45.4105 252.182C45.1541 251.413 44.3868 250.935 43.5835 251.044C43.3641 251.059 43.173 250.896 43.1535 250.677C43.1452 250.571 43.1793 250.467 43.2482 250.386C43.3172 250.305 43.4153 250.255 43.5211 250.247C44.6963 250.104 45.8083 250.814 46.173 251.94C46.5063 252.892 46.1126 253.945 45.2371 254.445C44.8478 254.663 44.4099 254.78 43.9636 254.786V254.786Z" fill="black"/>
<path d="M404.294 207.672C404.21 207.672 404.127 207.646 404.058 207.596C403.074 206.77 402.489 205.562 402.453 204.277C402.245 202.28 402.834 200.281 404.092 198.716C406.116 196.726 408.926 195.749 411.748 196.055C414.075 196.296 416.208 197.466 417.661 199.301C418.648 200.72 418.91 202.521 418.368 204.163C417.816 205.495 416.584 206.422 415.151 206.582C413.534 206.961 411.871 206.169 411.146 204.676C410.565 203.651 410.75 202.363 411.597 201.544C411.765 201.401 412.017 201.422 412.159 201.59C412.302 201.758 412.281 202.01 412.114 202.153C411.55 202.74 411.449 203.633 411.868 204.331C412.432 205.502 413.743 206.115 415.004 205.796C416.162 205.678 417.165 204.941 417.623 203.87C418.066 202.486 417.843 200.974 417.019 199.777C415.709 198.124 413.786 197.069 411.688 196.854C409.106 196.564 406.531 197.45 404.673 199.265C403.569 200.661 403.057 202.434 403.25 204.204C403.269 205.259 403.734 206.256 404.53 206.949C404.67 207.051 404.729 207.232 404.675 207.396C404.621 207.561 404.468 207.673 404.294 207.672L404.294 207.672Z" fill="black"/>
<path d="M237.774 324.224C234.827 324.109 232.164 322.433 230.786 319.825C229.506 317.503 229.072 314.589 229.499 311.163C229.516 311.021 229.608 310.9 229.74 310.844C229.871 310.788 230.023 310.807 230.137 310.893C230.251 310.979 230.31 311.12 230.292 311.262C229.888 314.516 230.289 317.268 231.486 319.439C232.778 321.914 235.353 323.45 238.144 323.412C239.599 323.4 240.976 322.754 241.917 321.644C242.694 320.599 242.981 319.269 242.703 317.997C242.339 316.58 241.141 315.532 239.689 315.358C238.674 315.152 237.645 315.64 237.163 316.556C237.064 316.753 236.824 316.833 236.626 316.734C236.429 316.636 236.349 316.396 236.447 316.198C237.072 314.964 238.442 314.296 239.799 314.566C241.59 314.792 243.056 316.098 243.489 317.85C243.811 319.347 243.467 320.91 242.549 322.134C241.47 323.429 239.88 324.187 238.196 324.211C238.056 324.22 237.914 324.224 237.774 324.224Z" fill="black"/>
<path fillRule="evenodd" clipRule="evenodd" d="M39.1348 112.976C39.1349 115.119 40.8727 116.857 43.0165 116.857C45.1593 116.854 46.8957 115.118 46.8981 112.975C46.8978 110.831 45.1599 109.094 43.0161 109.094C40.8724 109.094 39.1347 110.832 39.1348 112.976ZM40.1693 111.796C40.6463 110.645 41.77 109.894 43.0165 109.894C44.7175 109.896 46.0961 111.274 46.0981 112.975C46.0982 114.221 45.3475 115.345 44.196 115.822C43.0444 116.299 41.7189 116.036 40.8375 115.155C39.9561 114.273 39.6923 112.948 40.1693 111.796Z" fill="black"/>
<path fillRule="evenodd" clipRule="evenodd" d="M461.832 159.319C461.832 161.463 463.57 163.201 465.713 163.201C467.856 163.199 469.593 161.462 469.595 159.319C469.595 157.175 467.857 155.437 465.714 155.438C463.57 155.438 461.832 157.175 461.832 159.319ZM462.632 159.32C462.632 157.618 464.011 156.238 465.713 156.238C467.415 156.239 468.794 157.617 468.795 159.319C468.796 161.021 467.416 162.401 465.714 162.401C464.012 162.401 462.632 161.021 462.632 159.32Z" fill="black"/>
<path d="M415.191 86.4592C415.028 86.4592 414.881 86.3603 414.82 86.2092C414.759 86.0582 414.796 85.8851 414.913 85.7717C415.708 85.0073 416.034 83.8762 415.768 82.8058C415.502 81.7354 414.683 80.8889 413.623 80.5863C412.562 80.2837 411.42 80.571 410.629 81.3398C410.471 81.4934 410.217 81.4892 410.064 81.3304C409.91 81.1716 409.914 80.9184 410.073 80.7648C411.07 79.7997 412.506 79.4401 413.84 79.8215C415.174 80.203 416.203 81.2675 416.539 82.6137C416.875 83.9599 416.467 85.3831 415.469 86.3468C415.395 86.4189 415.295 86.4592 415.191 86.4592Z" fill="black"/>
<path d="M120.337 11.3807C120.193 11.3809 120.06 11.3033 119.989 11.1776C119.305 9.97102 119.317 8.49146 120.02 7.29622C120.723 6.10098 122.011 5.37164 123.397 5.38294C124.784 5.39424 126.059 6.14446 126.743 7.351C126.851 7.5431 126.783 7.78605 126.591 7.89446C126.399 8.00287 126.156 7.93594 126.047 7.74475C125.505 6.78577 124.492 6.18923 123.39 6.1801C122.288 6.17096 121.266 6.75061 120.707 7.70047C120.149 8.65032 120.141 9.82587 120.685 10.7838C120.737 10.876 120.751 10.9852 120.722 11.0874C120.694 11.1895 120.626 11.2762 120.534 11.3283C120.474 11.3628 120.406 11.3809 120.337 11.3807V11.3807Z" fill="black"/>
<path fillRule="evenodd" clipRule="evenodd" d="M263.556 189.165C264.003 190.244 265.055 190.948 266.224 190.948C267.818 190.946 269.11 189.654 269.112 188.06C269.112 186.892 268.409 185.839 267.329 185.392C266.25 184.945 265.008 185.192 264.182 186.018C263.356 186.843 263.109 188.085 263.556 189.165ZM264.136 188.06C264.136 186.907 265.071 185.972 266.224 185.972V185.972C267.376 185.973 268.311 186.907 268.312 188.06C268.312 189.213 267.377 190.148 266.224 190.148C265.071 190.148 264.136 189.213 264.136 188.06Z" fill="black"/>
<path fillRule="evenodd" clipRule="evenodd" d="M440.04 283.897C440.126 285.432 441.396 286.632 442.933 286.632C443.151 286.632 443.369 286.607 443.581 286.559C445.079 286.215 446.049 284.761 445.79 283.246C445.531 281.731 444.134 280.682 442.607 280.855C441.08 281.028 439.953 282.363 440.04 283.897ZM442.475 281.707C442.629 281.672 442.786 281.654 442.943 281.654C444.043 281.655 444.951 282.514 445.013 283.612C445.074 284.71 444.268 285.665 443.175 285.789C442.083 285.913 441.083 285.163 440.897 284.079C440.711 282.995 441.404 281.954 442.475 281.707Z" fill="black"/>
<path fillRule="evenodd" clipRule="evenodd" d="M366.359 4.68752C366.866 5.60725 367.832 6.17939 368.882 6.1818C369.1 6.18169 369.318 6.15706 369.53 6.10837C370.278 5.94008 370.927 5.47954 371.333 4.82945C372.18 3.47903 371.773 1.69762 370.423 0.849403C369.074 0.00118324 367.292 0.406972 366.443 1.75602C365.884 2.64536 365.852 3.76779 366.359 4.68752ZM368.424 1.2568C368.577 1.22179 368.734 1.20397 368.892 1.20368C369.993 1.2044 370.902 2.06419 370.963 3.16328C371.025 4.26237 370.218 5.21865 369.125 5.3428C368.031 5.46695 367.03 4.71581 366.844 3.63083C366.658 2.54584 367.351 1.50422 368.424 1.2568Z" fill="black"/>
<path fillRule="evenodd" clipRule="evenodd" d="M275.549 43.982C275.549 45.5772 276.842 46.8703 278.437 46.8703C280.032 46.8688 281.324 45.5765 281.325 43.982C281.325 42.3869 280.032 41.0938 278.437 41.0938C276.842 41.0938 275.549 42.3869 275.549 43.982ZM276.349 43.982C276.349 42.8287 277.284 41.8937 278.437 41.8937C279.59 41.895 280.524 42.8292 280.525 43.982C280.525 45.1354 279.59 46.0703 278.437 46.0703C277.284 46.0703 276.349 45.1354 276.349 43.982Z" fill="black"/>
<path fillRule="evenodd" clipRule="evenodd" d="M64.8646 324.939C65.3118 326.019 66.365 326.722 67.5333 326.722C69.1276 326.72 70.4195 325.428 70.4212 323.834C70.4212 322.665 69.7174 321.612 68.6381 321.165C67.5588 320.718 66.3164 320.965 65.4904 321.791C64.6644 322.618 64.4174 323.86 64.8646 324.939ZM65.6037 323.034C65.927 322.254 66.6886 321.745 67.5333 321.745V321.745C68.6859 321.747 69.6199 322.681 69.6212 323.834C69.6212 324.678 69.1123 325.44 68.332 325.763C67.5516 326.086 66.6533 325.908 66.0561 325.31C65.4589 324.713 65.2803 323.815 65.6037 323.034Z" fill="black"/>
<path d="M3.48841 196.979C2.45552 196.981 1.50035 196.431 0.983409 195.536C0.466468 194.642 0.466468 193.54 0.983409 192.646C1.50035 191.751 2.45552 191.201 3.48841 191.203C3.70932 191.203 3.88841 191.382 3.88841 191.603C3.88841 191.824 3.70932 192.003 3.48841 192.003C2.7415 192.002 2.0507 192.399 1.67683 193.046C1.30295 193.692 1.30295 194.49 1.67683 195.136C2.0507 195.783 2.7415 196.18 3.48841 196.179C3.70932 196.179 3.88841 196.358 3.88841 196.579C3.88841 196.8 3.70932 196.979 3.48841 196.979V196.979Z" fill="black"/>
<path d="M19.1377 364.369C18.064 364.367 17.0797 363.77 16.5824 362.819C16.085 361.867 16.1567 360.718 16.7685 359.836C16.8945 359.654 17.1437 359.61 17.3252 359.736C17.5066 359.862 17.5516 360.111 17.4256 360.292C16.7718 361.24 17.0087 362.538 17.9552 363.194C18.9016 363.85 20.2004 363.616 20.8584 362.671C20.9396 362.553 21.0778 362.487 21.2206 362.499C21.3634 362.511 21.489 362.598 21.5499 362.728C21.6108 362.858 21.5976 363.01 21.5154 363.127C20.9748 363.907 20.086 364.371 19.1377 364.369V364.369Z" fill="black"/>
<path fillRule="evenodd" clipRule="evenodd" d="M295.607 351.212C296.054 352.292 297.107 352.995 298.275 352.995C299.87 352.994 301.162 351.702 301.163 350.107C301.163 348.939 300.46 347.886 299.38 347.439C298.301 346.992 297.059 347.239 296.233 348.065C295.407 348.891 295.16 350.133 295.607 351.212ZM296.346 349.308C296.669 348.528 297.43 348.019 298.275 348.019C299.428 348.02 300.362 348.954 300.363 350.107C300.363 350.952 299.855 351.713 299.074 352.036C298.294 352.36 297.396 352.181 296.798 351.584C296.201 350.987 296.023 350.088 296.346 349.308Z" fill="black"/>
<path fillRule="evenodd" clipRule="evenodd" d="M51.5391 28.5677C51.5391 30.1626 52.8321 31.4555 54.427 31.4555C56.0213 31.4536 57.3132 30.1615 57.3148 28.5672C57.3146 26.9723 56.0216 25.6795 54.4267 25.6797C52.8318 25.6798 51.539 26.9728 51.5391 28.5677ZM52.498 27.7687C52.8211 26.9884 53.5824 26.4797 54.427 26.4797C55.5793 26.4811 56.5132 27.4148 56.5148 28.5672C56.515 29.4117 56.0064 30.1731 55.2262 30.4964C54.446 30.8197 53.5479 30.6412 52.9507 30.0441C52.3535 29.447 52.1748 28.5489 52.498 27.7687Z" fill="black"/>
</svg>
