<svg width="150" height="378" viewBox="0 0 150 378" fill="none" xmlns="http://www.w3.org/2000/svg">
<path d="M30.3383 341.35C28.3863 347.958 24.2183 359.71 22.2583 366.318C22.1383 366.734 21.9943 367.238 21.8263 367.782C21.4656 369.224 20.8827 370.6 20.0983 371.862C19.3307 372.766 18.1889 373.266 17.0038 373.216C15.8187 373.166 14.723 372.572 14.0343 371.606C13.0983 370.118 13.6103 367.198 13.9863 365.51C14.0903 365.03 14.1783 364.646 14.2263 364.43C16.3863 354.63 19.2823 341.214 21.4423 331.414L30.3383 341.35Z" fill="white"/>
<path fillRule="evenodd" clipRule="evenodd" d="M16.9703 373.613C17.0547 373.618 17.1375 373.62 17.2211 373.62C18.4608 373.635 19.6379 373.077 20.4117 372.108C21.2429 370.815 21.8501 369.392 22.2077 367.897C22.3749 367.355 22.5195 366.854 22.6413 366.429C23.6117 363.158 25.1523 358.538 26.6429 354.07L26.6511 354.045C28.1689 349.495 29.7377 344.792 30.7218 341.46L30.7851 341.246L21.2195 330.562L21.0515 331.325C19.9711 336.225 18.707 342.03 17.4429 347.834L17.3926 348.065C16.1454 353.791 14.9005 359.506 13.8351 364.341L13.5953 365.42C12.9054 368.52 12.9383 370.612 13.6953 371.816C14.4395 372.901 15.6551 373.568 16.9703 373.613ZM18.4453 346.992C19.5704 341.827 20.6865 336.703 21.6648 332.259L29.8914 341.448C28.9054 344.758 27.3703 349.362 25.8844 353.816C24.3914 358.291 22.8484 362.918 21.8695 366.216L21.8645 366.234C21.7475 366.642 21.607 367.133 21.4429 367.663C21.0813 369.051 20.5233 370.38 19.7859 371.61C19.1201 372.447 18.0818 372.898 17.0156 372.814C15.9605 372.778 14.9827 372.251 14.3726 371.39C13.7421 370.387 13.7437 368.437 14.3765 365.591L14.6164 364.513C15.6968 359.613 16.9608 353.809 18.2248 348.005L18.225 348.004C18.2984 347.667 18.3719 347.329 18.4453 346.992Z" fill="black"/>
<path d="M49.5222 349.744C47.3942 356.336 45.6661 363.312 44.1061 368.568C43.9461 369.104 43.7141 369.952 43.4181 370.904C42.8821 372.664 42.1221 374.768 41.2261 375.816C39.6981 377.616 36.2901 376.688 35.3461 375.024C34.4981 373.544 34.7461 371.312 34.9781 369.992C35.0421 369.672 35.0981 369.408 35.1381 369.224C36.5541 362.808 38.1701 355.088 39.8901 347L49.5222 349.744Z" fill="white"/>
<path fillRule="evenodd" clipRule="evenodd" d="M38.4395 377.177C38.5935 377.191 38.7442 377.199 38.8927 377.199C39.8949 377.239 40.8624 376.828 41.5293 376.079C42.2942 375.184 43.0364 373.53 43.7996 371.025C43.9915 370.407 44.1569 369.834 44.2937 369.359L44.3012 369.333L44.4895 368.684C45.0778 366.702 45.6895 364.477 46.3372 362.122C47.3872 358.302 48.5778 353.971 49.902 349.869L50.0294 349.475L39.5872 346.5L38.2317 352.89C36.9864 358.771 35.8091 364.327 34.7473 369.141C34.7067 369.327 34.6505 369.593 34.5841 369.925C34.1755 372.248 34.3153 374.031 34.9981 375.224C35.7833 376.37 37.0528 377.091 38.4395 377.177ZM39.0145 353.055L40.1918 347.505L49.0145 350.017C47.7406 354.002 46.5938 358.171 45.5772 361.867L45.5653 361.91C44.9192 364.261 44.3082 366.482 43.7223 368.455L43.5317 369.112C43.3957 369.587 43.2293 370.165 43.0348 370.79C42.6228 372.494 41.9066 374.11 40.9207 375.56C40.2982 376.206 39.402 376.512 38.5145 376.38C37.388 376.315 36.3514 375.744 35.6926 374.828C35.1129 373.815 35.002 372.167 35.37 370.073C35.4332 369.755 35.4895 369.494 35.5286 369.312C36.591 364.495 37.7684 358.938 39.0145 353.055Z" fill="black"/>
<path d="M99.3711 346.788C100.875 353.556 102.915 362.545 103.987 367.937C104.067 368.353 104.163 368.849 104.291 369.385C104.543 370.921 105.157 372.374 106.083 373.625C107.496 375.157 109.878 375.268 111.427 373.873C112.747 372.401 112.291 369.097 112.163 368.113C112.139 367.929 112.115 367.745 112.091 367.553C111.187 360.233 110.107 350.737 109.067 341.953L99.3711 346.788Z" fill="white"/>
<path fillRule="evenodd" clipRule="evenodd" d="M108.9 375.252H108.907C109.957 375.28 110.974 374.879 111.724 374.142C113.146 372.557 112.709 369.212 112.559 368.064L112.487 367.506C111.906 362.799 111.263 357.288 110.582 351.452C110.211 348.267 109.835 345.043 109.464 341.909L109.397 341.344L98.9121 346.571L99.9098 351.045C101.232 356.967 102.732 363.68 103.599 368.042L103.599 368.043C103.679 368.458 103.775 368.95 103.9 369.474C104.15 371.082 104.798 372.601 105.785 373.894C106.58 374.773 107.715 375.267 108.9 375.252ZM100.69 350.869L99.8293 347.008L108.736 342.567C109.066 345.354 109.398 348.206 109.728 351.032L109.788 351.544C110.468 357.381 111.111 362.894 111.693 367.605L111.772 368.216C112.125 370.923 111.909 372.737 111.129 373.606C110.533 374.177 109.731 374.482 108.907 374.452H108.901C107.942 374.466 107.024 374.068 106.379 373.359C105.487 372.164 104.903 370.768 104.679 369.294C104.56 368.796 104.47 368.332 104.388 367.911L104.379 367.861C103.514 363.515 102.014 356.797 100.69 350.869Z" fill="black"/>
<path d="M78.1699 351.646C79.4419 357.718 80.6099 362.118 81.5619 366.918C81.7299 367.758 82.0979 369.63 82.5939 371.454C82.9026 372.834 83.4149 374.161 84.1139 375.39C85.4659 377.326 87.5699 377.022 88.9299 376.174C90.4659 375.222 90.4659 372.798 90.2819 371.126C90.2179 370.462 90.1219 369.926 90.0899 369.638C89.3779 363.894 88.6419 357.558 87.8099 350.406L78.1699 351.646Z" fill="white"/>
<path fillRule="evenodd" clipRule="evenodd" d="M83.7855 375.623C84.4366 376.631 85.5556 377.239 86.7559 377.237C87.6019 377.222 88.4274 376.973 89.1402 376.517C90.4684 375.695 90.9863 373.867 90.6801 371.091C90.6378 370.656 90.5824 370.275 90.5394 369.98C90.5168 369.826 90.498 369.696 90.4863 369.592C89.7928 363.993 89.0868 357.924 88.2692 350.895L88.2684 350.888L88.1605 349.961L77.6895 351.309L77.7785 351.732C78.3879 354.641 78.9645 357.13 79.5223 359.535C80.1145 362.09 80.6738 364.503 81.1691 367L81.1895 367.1C81.3637 367.975 81.7269 369.794 82.2074 371.562C82.5173 372.99 83.0499 374.36 83.7855 375.623ZM80.3019 359.355C79.7723 357.071 79.2254 354.713 78.6504 351.991L87.459 350.858L87.4738 350.981L87.4863 351.088C88.2989 358.075 89.0015 364.115 89.6918 369.686C89.7032 369.789 89.7229 369.923 89.7464 370.084L89.748 370.095C89.7894 370.38 89.8426 370.748 89.884 371.173C90.0699 372.857 90.0184 375.033 88.7176 375.838C87.4941 376.601 85.641 376.882 84.4394 375.162C83.7633 373.974 83.271 372.689 82.9793 371.353C82.5066 369.611 82.1465 367.809 81.9738 366.944L81.9535 366.844C81.4559 364.334 80.8957 361.916 80.3019 359.355Z" fill="black"/>
<path d="M31.157 12.8599C31.8681 10.3883 34.4026 7.73944 36.3079 6.01191C37.1174 6.58176 38.199 6.57672 39.0033 5.99935C39.6802 5.33542 39.9442 4.35685 39.6931 3.44255C39.4006 2.51204 38.745 1.73893 37.8748 1.29836C36.9695 0.792697 35.8553 0.845924 35.0023 1.4356C33.8129 2.31042 33.9067 3.65734 34.9083 4.70348C32.7795 7.55366 28.9934 8.86452 25.4414 8.669L28.6329 11.6967L31.157 12.8599Z" fill="white"/>
<path fillRule="evenodd" clipRule="evenodd" d="M30.9894 13.2229C31.0418 13.247 31.0989 13.2595 31.1566 13.2597L31.1566 13.2597C31.3349 13.2601 31.4919 13.1421 31.5409 12.9706C32.1902 10.7128 34.4745 8.24247 36.362 6.50341C37.2875 7.0242 38.4348 6.94082 39.2753 6.29169C40.0631 5.52834 40.3713 4.39588 40.0792 3.33856C39.7559 2.29924 39.0261 1.43478 38.0558 0.941689C37.0153 0.36967 35.7407 0.435943 34.7652 1.11279C34.1899 1.50137 33.8153 2.12402 33.7417 2.81435C33.7042 3.50886 33.9365 4.19102 34.3902 4.71825C32.4448 7.11356 29.0495 8.4581 25.4628 8.26903C25.295 8.25771 25.1386 8.35445 25.0737 8.50966C25.0073 8.66366 25.0441 8.84281 25.1659 8.9581L28.3573 11.9862C28.3887 12.0168 28.4252 12.0416 28.4652 12.0597L30.9894 13.2229ZM30.916 12.3081L28.8597 11.3605L26.4605 9.08467C29.8598 9.10402 33.0845 7.5806 35.2285 4.94249C35.3456 4.78612 35.3324 4.56795 35.1972 4.42686C34.7668 4.03064 34.527 3.46882 34.5386 2.88389C34.5958 2.42402 34.8516 2.0123 35.2386 1.75733C35.9695 1.25543 36.9229 1.21537 37.6933 1.65421C38.4641 2.04171 39.0458 2.724 39.3066 3.54639C39.517 4.31749 39.2968 5.1422 38.73 5.70577C38.0606 6.15357 37.1843 6.14207 36.5269 5.67686C36.3743 5.57718 36.1738 5.59291 36.0386 5.71514C34.1527 7.4253 31.791 9.91514 30.916 12.3081Z" fill="black"/>
<path d="M41.8978 10.7493C39.6613 12.0077 37.6093 13.569 35.7998 15.3887C34.4662 17.0202 34.1227 19.2467 34.9026 21.2043C35.4278 23.1251 37.0933 24.516 39.077 24.6903C41.0316 24.7384 42.9717 24.3422 44.7511 23.5317C50.3271 21.2043 53.0347 23.4421 53.7639 26.2614C54.6569 29.7146 52.8548 32.8112 49.8897 33.2972C46.4426 33.8623 45.4227 32.2777 41.8977 30.5972C39.0984 29.2627 35.4236 29.4239 34.8873 32.193C31.2649 58.6024 35.4356 157.198 35.6598 182.325C35.7435 191.717 35.8494 201.261 38.5742 210.249C42.0449 221.699 49.2417 230.981 57.5076 239.706C70.7092 253.01 95.5479 263.209 107.567 277.59C115.925 287.591 119.182 294.801 120.81 307.595C123.139 325.895 116.623 342.02 96.0392 348.375C79.1628 353.586 63.5831 351.868 48.4637 349.464C37.8246 347.772 29.563 341.865 22.8829 333.414C13.5065 321.551 13.1783 300.829 14.5916 289.509C17.0403 269.896 18.267 256.923 20.7156 237.31C23.6879 218.415 23.483 199.18 23.1923 180.055C22.8437 157.118 25.7188 62.2638 22.4632 37.6104C21.5606 32.0914 20.6525 31.4775 14.5373 28.9649C13.4556 28.4709 12.8686 27.2859 13.1309 26.126C13.2687 25.6283 13.4731 23.6931 11.5242 23.5295C11.0289 23.4975 10.5404 23.6587 10.1614 23.9793C9.78649 24.4062 9.54905 24.9362 9.48004 25.5002C9.27062 26.5432 6.64554 24.0601 5.87373 23.3427C2.12556 19.8586 -0.571691 15.1106 1.28538 10.0716C2.01309 8.16136 3.29654 6.51301 4.97013 5.33924C9.4648 2.12891 15.2437 2.51215 19.9992 4.68529C23.106 6.14972 25.8803 8.23451 28.1512 10.8113C29.8805 12.6751 32.6312 13.1763 34.9068 12.0423C36.755 11.1541 38.4779 10.0258 40.0308 8.68665C39.923 8.45401 39.8465 8.20809 39.8033 7.95533C39.7159 7.09097 40.1081 6.24797 40.8255 5.7581C42.0144 4.83745 43.7101 4.97983 44.7287 6.08584C45.3386 6.59244 45.709 7.33098 45.7501 8.12277C45.7912 8.91457 45.4994 9.68749 44.9452 10.2545C44.0658 10.8944 42.9345 11.0781 41.8978 10.7493Z" fill="white"/>
<path fillRule="evenodd" clipRule="evenodd" d="M48.4011 349.856C56.368 351.268 64.4345 352.044 72.5245 352.178C80.5299 352.238 88.4981 351.084 96.1573 348.754C114.954 342.95 123.85 328.314 121.207 307.541C119.586 294.808 116.346 287.468 107.875 277.331C101.344 269.517 90.9761 262.881 80.9488 256.464L80.9377 256.457C72.5263 251.073 63.8305 245.507 57.798 239.428C50.555 231.782 42.6534 222.323 38.9573 210.13C36.2269 201.124 36.1417 191.564 36.0597 182.318C36.0043 176.094 35.7135 165.616 35.3454 152.351L35.3441 152.304L35.3436 152.287C34.2365 112.374 32.564 52.0725 35.28 32.2652C35.4056 31.5283 35.8818 30.8985 36.5566 30.5769C37.8292 29.9378 39.9058 30.0878 41.7261 30.955C42.6791 31.4095 43.4526 31.8608 44.1363 32.2597L44.155 32.2706C45.9933 33.3456 47.3237 34.123 49.9542 33.6886C51.3847 33.4561 52.6485 32.6253 53.4292 31.4042C54.3922 29.8332 54.654 27.9309 54.1511 26.1581C53.8152 24.6782 52.8459 23.4207 51.5003 22.7191C49.7276 21.837 47.4042 21.9855 44.5972 23.1597C42.8767 23.9464 41.0002 24.3324 39.1089 24.2886C37.2849 24.1272 35.7562 22.8432 35.2823 21.0745C34.5466 19.2569 34.8563 17.1831 36.0909 15.6597C37.8336 13.9124 39.8005 12.4042 41.9401 11.1745C43.0737 11.4862 44.2878 11.251 45.223 10.5386C45.8136 9.97099 46.149 9.18825 46.1526 8.36907C46.1431 7.39175 45.73 6.46184 45.0112 5.79954C43.8553 4.54328 41.9284 4.3852 40.5831 5.43626C39.7497 6.01344 39.2985 7.00018 39.4073 8.00813C39.4366 8.19938 39.4856 8.3871 39.5534 8.56829C38.081 9.8007 36.4613 10.8457 34.7315 11.6792C32.6146 12.7264 30.0615 12.2634 28.4472 10.5394C26.139 7.92365 23.321 5.80672 20.1659 4.31829C14.6456 1.79485 8.87685 2.05345 4.73701 5.01047C2.99506 6.22743 1.6613 7.94215 0.910452 9.93001C-1.3208 15.9839 2.8917 21.1136 5.60108 23.6324L5.6792 23.705C7.78154 25.6613 8.79326 26.3128 9.41826 26.1144C9.65888 26.0364 9.83447 25.8287 9.87139 25.5784C9.92353 25.1002 10.1157 24.648 10.4237 24.2784C10.7222 24.0303 11.1033 23.9039 11.4909 23.9245C11.9067 23.9247 12.2988 24.1181 12.5519 24.448C12.8194 24.9403 12.8855 25.5173 12.7362 26.0574C12.4366 27.4022 13.126 28.7719 14.3847 29.3324C20.3925 31.8003 21.1933 32.3214 22.0667 37.6597C24.338 54.8548 23.6225 106.145 23.0999 143.609L23.0995 143.635C22.8784 159.47 22.6878 173.144 22.7925 180.058C23.062 197.784 23.3675 217.875 20.319 237.258C19.0973 247.041 18.1643 255.31 17.2624 263.302L17.2534 263.382C16.3511 271.385 15.4175 279.66 14.1949 289.456C12.523 302.845 13.7136 322.455 22.5691 333.658C29.9222 342.962 38.3722 348.26 48.4011 349.856ZM11.5581 23.1277C11.5026 23.123 11.4472 23.1206 11.3909 23.1206V23.1206C10.8442 23.1252 10.3164 23.3209 9.8988 23.6738C9.46372 24.1308 9.18544 24.7145 9.10427 25.3402C8.85036 25.2816 8.14412 24.9066 6.22459 23.1191L6.14646 23.0465C3.5824 20.6629 -0.409787 15.8262 1.66052 10.2066C2.35658 8.36961 3.59121 6.78562 5.20271 5.66212C9.10427 2.87305 14.5754 2.64258 19.8332 5.04649C22.8899 6.48937 25.6197 8.54148 27.8551 11.077C29.709 13.0626 32.6446 13.5999 35.0816 12.3996C36.9621 11.4946 38.7152 10.3459 40.2957 8.9832L40.5144 8.78946L40.3972 8.52226C40.3041 8.32302 40.2376 8.11235 40.1996 7.8957C40.1343 7.17543 40.4671 6.47691 41.0676 6.07383C42.0977 5.27633 43.5674 5.40311 44.4457 6.36523C45.0078 6.87956 45.3355 7.60117 45.3527 8.36288C45.3502 8.96732 45.1027 9.5449 44.6668 9.96368C43.8928 10.4956 42.9177 10.6436 42.0207 10.3652L41.8645 10.3145L41.7176 10.3887C39.4378 11.6659 37.3478 13.2555 35.5082 15.1113C34.0696 16.8492 33.6923 19.2329 34.5238 21.3301C35.0942 23.4062 36.8995 24.9057 39.0449 25.0856C41.0633 25.1407 43.0676 24.7343 44.9051 23.8973C47.4559 22.834 49.6121 22.6731 51.1449 23.4356C52.2824 24.0341 53.0986 25.1032 53.3762 26.3582C53.823 27.9135 53.5993 29.5847 52.759 30.9676C52.1 31.9995 51.0329 32.702 49.8246 32.8996C47.476 33.2839 46.3783 32.6429 44.5596 31.5809L44.5582 31.5801L44.5533 31.5772C43.8537 31.1685 43.0598 30.7047 42.0699 30.2332C40.0074 29.2496 37.7012 29.1035 36.1965 29.8629C35.2952 30.3012 34.6603 31.1469 34.491 32.1347C31.7621 52.0316 33.4363 112.388 34.5449 152.327L34.552 152.581C34.9166 165.744 35.2046 176.141 35.2597 182.326C35.3425 191.628 35.4285 201.246 38.1917 210.362C41.9355 222.714 49.9105 232.265 57.2238 239.985C63.3277 246.135 72.0659 251.728 80.5175 257.137L80.5244 257.141C90.498 263.525 100.811 270.126 107.26 277.843C115.619 287.844 118.815 295.085 120.413 307.643C123.002 327.985 114.304 342.314 95.9214 347.99C78.9339 353.235 63.1925 351.397 48.5261 349.065C38.705 347.503 30.4198 342.301 23.1972 333.162C17.7581 326.282 12.3448 310.732 14.9886 289.554C16.2099 279.772 17.1423 271.506 18.0439 263.514L18.0487 263.471C18.9527 255.457 19.8878 247.168 21.1112 237.37C24.1676 217.936 23.8622 197.813 23.5927 180.058L23.5925 180.046C23.4878 173.144 23.6784 159.475 23.8995 143.646L23.8999 143.62C24.4225 106.132 25.1381 54.808 22.8581 37.5425C21.9378 31.9159 20.9737 31.1738 14.6894 28.5925C13.7902 28.1801 13.3013 27.1957 13.5159 26.23C13.7201 25.4728 13.6094 24.6652 13.2089 23.9909C12.822 23.4631 12.2124 23.1442 11.5581 23.1277Z" fill="black"/>
<path d="M0.682809 14.2189C3.34695 15.6062 6.61811 14.9448 8.53398 12.6314C10.5824 10.0429 10.2874 6.3125 7.85749 4.07812C7.85749 4.07812 4.52427 5.15173 2.91731 7.24686C1.4318 9.26488 0.647078 11.7134 0.682809 14.2189V14.2189Z" fill="black"/>
<path d="M6.53257 7.62058C6.21917 7.69048 5.93188 7.84747 5.70379 8.07347C5.33145 8.43049 5.89763 8.99569 6.26946 8.63916C6.39979 8.51107 6.5655 8.42498 6.74523 8.392C7.24737 8.27938 7.03483 7.50792 6.53256 7.62058H6.53257Z" fill="white"/>
<ellipse cx="21.875" cy="13.0547" rx="1.26567" ry="1.26568" fill="black"/>
<path d="M110.712 281.574C124.945 282.236 137.314 291.562 141.867 305.064C142.024 305.552 142.797 305.343 142.638 304.851C137.982 291.008 125.302 281.445 110.712 280.774C110.197 280.756 110.198 281.556 110.712 281.574V281.574Z" fill="black"/>
<path d="M142.072 304.438C140.344 308.463 141.004 313.116 143.784 316.501C145.012 317.953 147.406 319.045 148.67 317.625C149.384 316.824 149.321 315.61 149.125 314.556C148.281 309.999 145.765 307.239 142.072 304.438" fill="black"/>
<path d="M33.5892 58.882C35.1485 58.4363 36.8194 59.0216 37.7596 60.343C38.5595 61.6251 38.2906 63.3008 37.1297 64.2682C36.0465 64.9439 34.7157 65.093 33.5098 64.6739" fill="black"/>
<path d="M33.5098 70.4451C35.8605 69.4474 38.0283 71.3651 37.6579 73.2458C37.2875 75.1266 35.2653 75.4609 33.5098 74.8456" fill="black"/>
<path d="M33.6472 80.8413C35.7758 80.2402 38.5393 81.766 38.5393 84.4162C38.5393 86.8793 36.1868 88.033 33.541 87.6704" fill="black"/>
<path d="M33.7383 91.8633C36.6379 91.3995 39.101 93.1456 38.8299 96.0863C38.6132 98.4361 36.482 99.4334 33.9406 99.1419" fill="black"/>
<path d="M33.9531 103.144C37.48 102.278 40.4731 105.988 38.0976 108.693C37.0901 109.543 35.0457 109.748 33.9531 109.695" fill="black"/>
<path d="M34.0957 114.282C35.6439 114.021 37.2347 114.227 38.6652 114.874C39.8598 115.681 40.4988 117.092 40.3176 118.522C40.0448 120.861 36.0772 121.707 34.0957 121.14" fill="black"/>
<path d="M34.5371 126.112C35.7547 125.998 38.1664 125.799 39.4658 126.964C40.9634 128.244 41.2462 130.451 40.1199 132.068C39.0121 133.498 36.3294 134.199 34.5371 133.778" fill="black"/>
<path d="M34.8789 137.849C36.2871 137.577 37.7443 137.733 39.0632 138.297C40.8124 139.282 40.8124 140.817 40.095 142.24C39.396 143.625 36.4244 144.04 34.8789 143.897" fill="black"/>
<path d="M34.8789 149.14C36.1508 149.14 38.1635 148.813 39.556 149.767C41.0093 150.902 41.3749 152.949 40.4043 154.517C39.3768 156.04 36.8229 156.133 35.408 156.012" fill="black"/>
<path d="M35.1621 160.165C38.4812 159.535 40.676 160.431 40.6754 163.692C40.675 166.077 37.0026 166.032 35.4086 165.944" fill="black"/>
<path d="M50.7208 273.487C49.3468 273.015 48.5548 270.394 48.122 269.216C47.5332 267.613 46.9507 266.014 47.6944 264.346C48.7622 262.184 50.0501 260.138 51.5376 258.241C53.9501 254.942 55.4602 258.94 56.2418 260.857C56.9209 262.513 57.4848 264.213 57.9297 265.947C58.1958 266.993 58.9421 269.071 58.3374 270.103C57.7863 271.044 55.8799 271.701 54.9515 272.131C53.7359 272.695 52.0169 273.628 50.6145 273.473C50.1035 273.417 50.1075 274.217 50.6145 274.273C51.8559 274.41 53.2242 273.741 54.3349 273.274C55.8551 272.748 57.2802 271.979 58.5552 270.998C60.3576 269.357 58.631 265.281 58.0268 263.424C57.4251 261.575 55.9193 255.543 53.2665 255.764C51.3875 255.92 49.8597 259.218 49.0186 260.539C47.9437 262.228 46.3963 264.17 46.5055 266.292C46.706 267.852 47.1729 269.366 47.8859 270.767C48.4175 271.989 49.1271 273.784 50.5081 274.259C50.9961 274.426 51.2056 273.654 50.7208 273.487Z" fill="black"/>
<path d="M70.2757 269.678C69.7048 272.517 68.5869 275.728 68.6364 278.634C68.6663 280.388 69.7858 281.688 71.2008 282.629C75.1414 285.249 78.4316 282.124 79.3547 278.201C79.9929 275.489 81.3766 271.235 78.1938 269.701C76.4667 268.949 74.6304 268.477 72.7546 268.305C71.5047 268.169 70.7339 268.448 70.2757 269.678C70.0957 270.161 70.8686 270.369 71.0471 269.89C71.7154 268.097 76.471 269.815 77.6697 270.348C80.3934 271.559 79.1605 275.452 78.6423 277.735C78.2335 279.535 77.6019 281.527 75.8269 282.435C73.9108 283.415 71.8047 282.417 70.4575 280.976C68.8818 279.291 69.5991 277.198 70.0009 275.161C70.3473 273.403 70.6961 271.647 71.0471 269.89C71.1482 269.388 70.3772 269.173 70.2757 269.678Z" fill="black"/>
<path d="M26.8993 295.079C28.2805 297.605 29.4986 300.818 31.4098 302.981C32.5722 304.297 34.2714 304.556 35.9584 304.357C40.3535 303.838 41.1816 299.672 39.5208 296.145C38.417 293.801 36.5663 289.236 33.2913 289.873C31.5927 290.341 29.9774 291.071 28.5032 292.036C27.2419 292.759 26.3745 293.427 26.859 294.983C27.0115 295.473 27.784 295.264 27.6304 294.771C27.0304 292.843 32.1589 290.859 33.5039 290.644C35.9858 290.249 37.5553 294.055 38.4879 295.867C39.2456 297.338 39.9527 299.007 39.5226 300.702C38.97 302.879 36.8003 303.692 34.7781 303.614C32.4654 303.524 31.5632 301.894 30.5496 300.056C29.5614 298.263 28.5749 296.47 27.5901 294.675C27.3431 294.223 26.652 294.626 26.8993 295.079Z" fill="black"/>
<path d="M102.81 279.696C100.232 278.389 97.4322 276.442 94.6228 275.722C92.9692 275.391 91.2605 275.92 90.0836 277.128C86.6542 280.118 88.4799 284.1 91.9468 286.043C94.4092 287.422 98.305 290.024 100.675 287.318C101.861 285.854 102.807 284.211 103.476 282.451C103.941 281.281 103.872 280.466 102.81 279.696C102.393 279.394 101.993 280.087 102.407 280.387C103.94 281.5 101.008 285.672 100.187 286.647C98.2461 288.951 94.6586 286.618 92.5794 285.477C91.0485 284.637 89.6212 283.606 89.1593 281.843C88.6038 279.723 89.8692 278.009 91.6569 276.98C93.7028 275.804 95.367 276.842 97.2656 277.796C98.9803 278.658 100.694 279.521 102.407 280.387C102.865 280.619 103.27 279.929 102.81 279.696Z" fill="black"/>
<path d="M34.5484 244.107C37.3775 243.588 40.8205 243.441 43.4654 242.295C45.198 241.543 45.9991 239.778 46.2534 237.978C46.8644 233.655 42.9167 231.974 39.2319 232.499C36.4917 232.889 31.8329 233.17 31.5699 236.712C31.5356 238.512 31.7561 240.307 32.2249 242.045C32.5196 243.326 33.0168 244.154 34.442 244.121C34.6576 244.114 34.8284 243.937 34.8284 243.721C34.8284 243.505 34.6576 243.328 34.442 243.321C32.4445 243.367 32.2162 238.133 32.3699 236.712C32.6573 234.055 36.5306 233.744 38.6611 233.394C40.3809 233.112 42.2881 232.9 43.8423 233.901C45.7322 235.117 45.8109 237.426 45.094 239.325C44.2562 241.545 42.4431 241.824 40.3727 242.212C38.3607 242.588 36.3484 242.963 34.3357 243.335C33.8301 243.428 34.0443 244.199 34.5484 244.107Z" fill="black"/>
<path d="M105.931 310.343C107.088 308.139 108.807 305.754 109.45 303.343C109.752 301.958 109.346 300.514 108.367 299.49C105.797 296.32 102.234 297.884 100.465 300.959C99.2223 303.121 97.0017 306.41 99.3902 308.488C100.793 309.709 104.362 312.442 105.931 310.343C106.24 309.93 105.545 309.531 105.24 309.939C104.321 311.169 100.87 308.694 100.066 308.004C98.072 306.29 100.031 303.359 101.034 301.581C101.564 300.412 102.447 299.438 103.559 298.798C105.625 297.85 107.598 299.274 108.469 301.106C109.292 302.837 108.059 304.535 107.275 306.041C106.599 307.341 105.92 308.641 105.24 309.939C105.001 310.394 105.692 310.799 105.931 310.343Z" fill="black"/>
<path d="M75.1315 302.19C74.2393 299.906 76.0198 298.586 77.7827 297.57C79.24 296.73 80.8357 295.662 82.5134 295.358C87.2858 294.494 87.2382 301.525 87.1823 304.524C87.178 306.3 86.9849 308.071 86.6063 309.807C86.3824 310.756 86.0919 311.957 85.1802 312.502C83.5426 313.48 81.9147 311.662 80.9596 310.677C78.5668 308.14 76.5866 305.245 75.0912 302.095C74.8624 301.633 74.1722 302.038 74.4004 302.498C75.5607 304.939 77.0012 307.237 78.693 309.345C79.9667 310.882 81.6468 313.185 83.7767 313.521C88.4977 314.265 88.0266 305.084 87.9758 302.466C87.9078 298.962 86.7315 293.542 82.0546 294.646C79.7467 295.29 77.601 296.414 75.7578 297.945C74.3127 299.136 73.6563 300.601 74.3601 302.403C74.5454 302.877 75.3193 302.671 75.1315 302.19Z" fill="black"/>
<path d="M64.9118 336.9C64.8902 340.469 59.0402 340.618 56.4563 340.481C51.1835 340.201 52.9472 334.288 54.2261 331.132C54.8684 329.494 55.65 327.915 56.5623 326.411C56.9811 325.56 57.5628 324.799 58.2744 324.172C60.4267 322.724 61.4994 324.082 62.2914 325.694C63.8733 329.228 64.7628 333.032 64.9118 336.9C64.9482 337.411 65.7484 337.415 65.7118 336.9C65.5597 334.043 65.0561 331.216 64.2125 328.481C63.6031 326.615 62.8029 323.554 60.6787 322.824C56.6326 321.433 53.9598 329.524 52.9746 332.146C51.5937 335.819 51.3315 341.056 56.4563 341.281C59.5595 341.417 65.686 341.162 65.7118 336.9C65.7044 336.685 65.5275 336.514 65.3118 336.514C65.0962 336.514 64.9193 336.685 64.9118 336.9V336.9Z" fill="black"/>
<path d="M75.6667 324.78C75.2978 328.976 74.3492 333.955 77.5114 337.325C78.9436 338.852 81.4073 340.937 83.5068 341.292C85.4763 341.625 85.8683 339.701 86.2667 338.208C87.4051 333.942 88.3284 328.578 84.3333 325.579C82.4683 324.179 76.3552 320.256 75.681 324.673C75.6041 325.177 76.3748 325.394 76.4524 324.886C76.997 321.317 83.398 325.657 84.7132 326.927C87.6031 329.717 86.353 334.878 85.418 338.283C85.3618 338.728 85.2358 339.161 85.0447 339.567C84.3326 340.356 83.1472 340.5 82.2676 339.902C81.5065 339.468 80.7743 338.986 80.0756 338.457C78.3056 337.162 76.8068 335.694 76.3195 333.472C75.7049 330.669 76.2186 327.602 76.4667 324.78C76.5117 324.267 75.7115 324.27 75.6667 324.78Z" fill="black"/>
<path d="M98.4534 323.153C97.9599 326.758 97.4248 330.89 100.413 333.51C101.595 334.547 103.873 336.142 105.588 335.76C107.29 335.382 108.005 332.852 108.444 331.474C109.51 328.136 111.309 321.98 106.616 320.686C104.768 320.191 102.837 320.082 100.945 320.363C99.3028 320.63 98.7114 321.542 98.4534 323.153C98.3728 323.657 99.1436 323.874 99.2249 323.366C99.5112 321.577 100.434 321.135 102.115 321.071C103.486 320.996 104.86 321.108 106.2 321.404C110.376 322.417 108.67 327.969 107.783 330.916C107.12 333.12 106.107 335.736 103.299 334.444C101.805 333.808 100.524 332.757 99.6101 331.415C98.3297 329.32 98.907 325.687 99.2249 323.366C99.2938 322.862 98.5231 322.645 98.4534 323.153Z" fill="black"/>
<path d="M27.9348 328.579C27.9228 326.414 28.0892 324.252 28.4323 322.114C28.5742 321.254 28.7501 320.4 28.9413 319.55C29.1851 318.466 29.2183 317.389 30.2325 316.864C31.6771 316.117 34.2294 316.77 35.7043 317.306C37.8614 318.09 38.7565 319.725 39.5616 321.737C40.1476 323.201 40.7197 324.685 41.1583 326.201C41.3889 326.989 41.5728 327.789 41.7092 328.599C41.87 329.57 41.9232 330.838 40.921 331.483C40.5621 331.714 39.5255 331.562 39.0728 331.569C37.2411 331.623 35.4085 331.5 33.6002 331.202C32.0854 330.932 28.3599 330.264 27.9205 328.473C27.7979 327.973 27.0262 328.185 27.1491 328.686C27.6007 330.527 30.145 331.155 31.7397 331.598C34.3701 332.25 37.0831 332.506 39.7892 332.358C41.7729 332.301 42.8065 331.579 42.6446 329.491C42.4429 326.89 41.4351 324.351 40.498 321.948C39.8073 320.176 39.1346 318.369 37.4755 317.285C35.4708 316.144 33.1742 315.62 30.873 315.777C28.6551 315.899 28.5003 317.811 28.0973 319.659C27.4552 322.589 27.1325 325.58 27.1348 328.579C27.1419 328.795 27.3189 328.966 27.5348 328.966C27.7507 328.966 27.9277 328.795 27.9348 328.579Z" fill="black"/>
<path d="M24.047 265.325C24.276 267.762 24.5465 270.565 25.693 272.774C26.3766 274.092 27.4702 274.377 28.9012 274.263C31.116 274.087 35.6716 273.219 35.7249 270.377C35.6423 266.845 34.5015 263.418 32.4501 260.541C31.64 259.52 30.8871 259.527 29.7836 260.186C28.3694 261.138 27.0052 262.162 25.6964 263.255C24.829 263.906 24.1078 264.21 24.047 265.325C24.019 265.839 24.8191 265.837 24.847 265.325C24.8982 264.385 26.901 263.344 27.5599 262.85C28.3802 262.121 29.259 261.462 30.1874 260.877C31.6603 260.13 32.0577 261.264 32.6509 262.447C33.8868 264.767 34.6533 267.309 34.9065 269.926C35.0942 270.813 34.5913 271.701 33.7339 271.996C32.455 272.655 31.0824 273.114 29.6641 273.357C28.8734 273.57 28.0393 273.559 27.2545 273.326C26.5953 272.869 26.1427 272.17 25.995 271.382C25.3757 269.415 24.9904 267.382 24.847 265.325C24.7993 264.816 23.9988 264.811 24.047 265.325Z" fill="black"/>
<path d="M48.9102 298.813C49.0911 301.33 49.5478 303.82 50.2721 306.238C50.6515 307.413 51.1067 308.875 52.3199 309.42C54.9837 310.616 59.6029 308.83 61.8577 307.341C63.8369 306.033 62.9153 303.08 62.4316 301.172C61.7468 298.471 60.754 294.664 58.7129 292.613C57.279 291.173 55.6978 292.743 54.4273 293.697C52.9649 294.795 51.5026 295.893 50.0403 296.99C49.3029 297.545 48.9054 297.86 48.9102 298.813C48.9177 299.028 49.0945 299.199 49.3102 299.199C49.5258 299.199 49.7027 299.028 49.7102 298.813C49.7041 297.594 52.5108 296.13 53.3687 295.486C54.447 294.676 55.6851 293.388 57.0104 293.056C57.9938 292.809 58.065 292.99 58.6259 293.81C58.9947 294.374 59.3194 294.966 59.5972 295.58C60.8949 298.298 62.1435 301.636 62.2206 304.685C62.2555 306.065 61.7941 306.523 60.588 307.127C58.9537 307.949 57.2007 308.51 55.3928 308.79C54.4836 309.01 53.5308 308.97 52.6435 308.674C51.7655 308.246 51.4206 307.139 51.1225 306.273C50.3575 303.851 49.8834 301.347 49.7102 298.813C49.6634 298.304 48.863 298.3 48.9102 298.813Z" fill="black"/>
<path d="M13.9863 365.508C16.5462 366.439 19.1654 367.198 21.8263 367.78C21.4656 369.221 20.8826 370.598 20.0983 371.86C19.3308 372.764 18.1889 373.264 17.0038 373.214C15.8187 373.164 14.723 372.57 14.0343 371.604C13.0983 370.116 13.6104 367.196 13.9863 365.508Z" fill="black"/>
<path d="M43.2416 371.478C42.862 373.045 42.1771 374.522 41.226 375.825C39.698 377.625 36.29 376.697 35.346 375.033C34.498 373.553 34.826 370.929 35.058 369.609C37.7505 370.378 40.4823 371.002 43.2416 371.478Z" fill="black"/>
<path d="M90.2125 370.531C90.5455 372.52 90.4657 375.227 88.9297 376.179C87.5697 377.027 85.4657 377.331 84.1137 375.395C83.4147 374.165 82.9024 372.839 82.5938 371.458C84.2669 371.343 87.813 370.776 90.2125 370.531Z" fill="black"/>
<path d="M111.425 373.878C109.865 375.24 107.509 375.13 106.081 373.63C105.145 372.598 104.549 370.564 104.221 369.092C106.885 368.864 109.53 368.447 112.136 367.844C112.16 368.036 112.998 372.33 111.425 373.878Z" fill="black"/>
</svg>
