<svg width="452" height="533" viewBox="0 0 452 533" fill="none" xmlns="http://www.w3.org/2000/svg">
<path d="M340.944 399.068C346.373 393.15 349.967 385.784 351.29 377.863C351.878 374.299 351.634 368.671 347.37 368.227C345.004 367.947 342.733 369.245 341.773 371.425C339.528 375.654 341.83 381.997 345.316 385.278C348.803 388.56 353.817 389.812 358.604 389.681C373.198 389.284 384.775 377.807 394.711 367.109" stroke="black" strokLinecap="round"/>
<path d="M23.6558 329.82C28.2149 322.443 34.341 315.758 42.2637 311.966C50.2185 308.159 60.7528 305.942 68.8288 310.569C70.885 311.747 72.4332 313.218 72.3822 315.73C72.3306 318.272 70.8504 319.709 68.7045 320.748C65.097 322.46 61.0366 322.972 57.1171 322.21C49.3849 320.722 43.3854 314.597 42.0587 306.835C40.7359 297.829 44.7999 288.881 52.4522 283.951C52.9944 283.608 52.4932 282.742 51.9475 283.088C44.5519 287.848 40.3049 296.233 40.8421 305.012C41.435 313.516 47.3698 320.702 55.6086 322.891C61.3718 324.403 74.2684 323.432 73.3492 314.865C72.9011 310.69 68.2038 308.737 64.6385 307.781C59.7101 306.637 54.5696 306.787 49.7162 308.216C37.9868 311.281 29.0798 319.142 22.7923 329.315C22.453 329.864 23.3177 330.366 23.6558 329.819V329.82Z" fill="black"/>
<path d="M338.427 280.113L342.6 273.335C342.938 272.785 342.073 272.283 341.736 272.83L337.563 279.608C337.225 280.158 338.09 280.66 338.427 280.113Z" fill="black"/>
<path d="M115.65 7.51906L119.822 0.741141C120.161 0.191601 119.296 -0.311239 118.959 0.236421L114.786 7.01434C114.448 7.56388 115.312 8.06672 115.65 7.51906Z" fill="black"/>
<path d="M421.744 296.695L426.043 302.847C426.409 303.371 427.277 302.872 426.907 302.342L422.608 296.191C422.242 295.667 421.374 296.166 421.744 296.695Z" fill="black"/>
<path d="M271.494 16.9923L275.793 23.1439C276.159 23.6676 277.027 23.1684 276.657 22.6392L272.358 16.4876C271.992 15.9639 271.124 16.4631 271.494 16.9923Z" fill="black"/>
<path d="M364.391 176.947L371.973 169.373C372.157 169.176 372.152 168.869 371.961 168.678C371.77 168.487 371.463 168.482 371.266 168.666L363.684 176.24C363.499 176.437 363.505 176.745 363.695 176.936C363.886 177.126 364.194 177.131 364.391 176.947H364.391Z" fill="black"/>
<path d="M444.522 220.422L450.228 227.264C450.641 227.759 451.345 227.048 450.936 226.557L445.229 219.714C444.817 219.22 444.113 219.93 444.522 220.422Z" fill="black"/>
<path d="M447.886 421.742L450.314 433.119C450.449 433.748 451.413 433.482 451.279 432.854L448.85 421.476C448.716 420.847 447.752 421.114 447.886 421.742Z" fill="black"/>
<path d="M392.578 532.087L397.555 526.071C397.962 525.579 397.258 524.867 396.848 525.364L391.871 531.379C391.463 531.872 392.167 532.583 392.578 532.087H392.578Z" fill="black"/>
<path d="M294.811 477.128V466.717C294.801 466.448 294.58 466.234 294.311 466.234C294.041 466.234 293.82 466.448 293.811 466.717V477.128C293.82 477.397 294.041 477.61 294.311 477.61C294.58 477.61 294.801 477.397 294.811 477.128Z" fill="black"/>
<path d="M15.8003 512.051C18.184 510.608 20.3401 508.819 22.1978 506.742C22.6257 506.264 21.9208 505.554 21.4906 506.035C19.6928 508.051 17.6049 509.787 15.2956 511.188C15.0677 511.332 14.9949 511.631 15.131 511.864C15.267 512.096 15.563 512.179 15.8004 512.051H15.8003Z" fill="black"/>
<path d="M20.1251 395.522C22.4707 398.308 25.0129 400.921 27.7321 403.344C28.2113 403.77 28.921 403.066 28.4393 402.636C25.72 400.214 23.1778 397.6 20.8322 394.815C20.4171 394.322 19.7128 395.033 20.1251 395.522Z" fill="black"/>
<path d="M64.8695 207.811L68.6863 216.274C68.9504 216.86 69.8125 216.352 69.5497 215.77L65.733 207.307C65.4689 206.721 64.6068 207.229 64.8695 207.811Z" fill="black"/>
<path d="M14.2205 234.604L18.9183 226.387C19.0464 226.149 18.9633 225.853 18.7305 225.717C18.4976 225.581 18.1988 225.654 18.0548 225.882L13.357 234.099C13.2289 234.336 13.312 234.632 13.5448 234.768C13.7777 234.905 14.0765 234.832 14.2205 234.604Z" fill="black"/>
<path d="M0.449106 117.152L9.33783 127.411C9.75998 127.899 10.4647 127.189 10.0449 126.704L1.15622 116.445C0.734066 115.958 0.0293457 116.668 0.449106 117.152V117.152Z" fill="black"/>
</svg>
