<svg width="311" height="553" viewBox="0 0 311 553" fill="none" xmlns="http://www.w3.org/2000/svg">
<path fillRule="evenodd" clipRule="evenodd" d="M230.559 140.987L310.915 548.392C311.095 549.302 310.905 550.247 310.388 551.018C309.872 551.789 309.07 552.323 308.159 552.503C307.934 552.547 307.706 552.57 307.477 552.57C305.807 552.568 304.371 551.386 304.048 549.747L226.41 156.12L166.099 404.199L191.549 548.461C191.71 549.375 191.502 550.316 190.97 551.077C190.437 551.837 189.625 552.355 188.711 552.517C188.509 552.552 188.304 552.57 188.098 552.57C186.401 552.568 184.951 551.349 184.656 549.678L161.98 421.141L130.678 549.897C130.382 551.112 129.461 552.077 128.261 552.428C127.061 552.78 125.765 552.465 124.86 551.601C123.956 550.738 123.581 549.457 123.876 548.242L142.725 470.711L29.6817 465.141L6.89138 549.978C6.56791 551.187 5.62371 552.131 4.41489 552.454C3.20606 552.778 1.9165 552.431 1.03255 551.546C0.1486 550.66 -0.195265 549.37 0.130639 548.161L24.3512 458L24.3577 457.869L24.386 457.871L113.828 124.921C114.33 123.054 116.25 121.947 118.117 122.449C119.984 122.95 121.091 124.871 120.589 126.737L118.513 134.464L118.729 135.688L222.924 140.822L225.524 130.128C225.981 128.249 227.874 127.096 229.752 127.553C231.631 128.009 232.783 129.902 232.327 131.781L230.285 140.182C230.409 140.438 230.501 140.709 230.559 140.987ZM203.307 221.516L221.241 147.747L119.977 142.758L133.24 217.938L203.307 221.516ZM162.349 382.946L149.017 307.373L182.067 308.883L164.041 383.029L162.349 382.946ZM126.067 217.572L114.223 150.435L96.592 216.067L126.067 217.572ZM127.315 224.645L140.605 299.981L74.8567 296.977L94.7345 222.981L127.315 224.645ZM155.179 382.592L141.852 307.045L72.997 303.899L53.2067 377.569L155.179 382.592ZM147.771 300.309L134.487 225.011L201.624 228.44L183.752 301.953L147.771 300.309ZM31.54 458.223L144.409 463.785L158.951 403.969L156.427 389.663L51.3484 384.486L31.54 458.223Z" fill="black"/>
<path d="M131.057 443.614C131.817 445.298 131.121 446.891 130.958 448.502C130.693 450.209 131.233 451.943 132.42 453.198C134.106 454.82 136.71 455.116 138.977 455.694C141.784 456.41 145.267 456.903 148.074 457.618C149.173 457.889 150.107 458.61 150.648 459.604C151.166 460.987 151.09 463.387 149.445 463.567C148.305 463.692 142.199 463.659 140.18 463.545C135.08 463.413 132.957 463.472 127.856 463.34C126.942 463.343 126.047 463.071 125.29 462.559C124.78 461.862 124.385 461.088 124.118 460.266C123.396 458.822 121.411 457.74 120.716 459.65C120.088 461.951 119.367 462.441 117.982 462.522C116.541 462.648 115.091 462.42 113.758 461.859C110.756 458.786 114.655 446.883 119.148 442.18L131.057 443.614Z" fill="black"/>
<path d="M74.5077 493.867C75.239 495.564 75.0216 497.667 74.9427 499.284C74.8579 501.022 75.1254 505.686 84.2322 509.584C86.8949 510.724 90.091 512.172 92.6656 513.499C93.6763 514.009 94.4254 514.921 94.7289 516.012C94.9241 517.475 94.3115 519.797 92.6679 519.604C89.8279 519.317 87.0051 518.879 84.2117 518.292C79.2706 517.019 77.1924 516.461 72.2513 515.188C71.1811 514.95 70.1727 514.49 69.2912 513.838C68.8967 513.472 68.8387 512.005 68.6849 511.064C68.5137 509.584 68.2768 509.174 67.166 508.986C66.2272 508.826 65.6603 509.518 65.2969 510.952C64.7896 513.282 64.0954 513.81 62.7168 513.963C61.2842 514.164 59.8243 514.012 58.4635 513.522C55.0466 511.924 59.9396 494.912 62.9855 492.758L74.5077 493.867Z" fill="black"/>
<path d="M195.054 148.617C199.329 148.647 203.589 148.093 207.714 146.97C212.365 145.562 215.749 143.67 215.74 140.712C215.266 138.916 213.281 137.865 210.467 137.382C209.874 137.301 209.306 137.093 208.801 136.773C208.502 136.533 208.218 136.275 207.951 136.001C207.374 135.492 206.166 134.526 205.133 134.721C198.02 135.291 193.548 142.039 193.557 142.732L195.054 148.617Z" fill="white"/>
<path d="M195.055 149.121C197.943 149.234 200.833 148.992 203.662 148.399C207.148 147.808 211.113 146.88 213.973 144.675C215.491 143.506 216.966 141.441 215.768 139.556C215.154 138.695 214.298 138.037 213.309 137.664C212.421 137.359 211.517 137.105 210.601 136.903C209.686 136.585 208.838 136.102 208.097 135.477C203.601 132.107 197.24 136.758 194.356 140.453C193.627 141.387 193.033 142.105 193.176 143.262C193.529 145.119 193.995 146.953 194.573 148.754C194.654 149.011 194.924 149.158 195.184 149.086C195.443 149.015 195.6 148.75 195.537 148.488L194.556 144.632C194.24 143.388 193.882 142.931 194.428 142.068C196.711 138.465 203.454 132.894 207.598 136.358C209.424 137.884 211.48 137.671 213.475 138.844C217.899 141.447 212.451 144.708 209.914 145.697C205.194 147.569 200.125 148.395 195.055 148.121C194.414 148.067 194.417 149.067 195.055 149.121Z" fill="black"/>
<path d="M55.6582 238.727C65.6914 318.807 70.6846 410.179 62.2748 486.479C61.9796 488.561 61.3462 493.277 64.9744 493.858C67.3199 494.321 69.7036 494.565 72.0943 494.584C75.7464 494.598 76.427 491.01 77.1678 488.827C82.1882 470.648 103.174 343.718 103.788 274.712L55.6582 238.727Z" fill="black"/>
<path d="M133.29 30.1365C132.438 24.7595 130.662 19.5707 128.039 14.8C123.075 5.42438 117.13 5.14214 113.265 6.05669C108.719 7.13261 104.773 11.3892 103.434 21.884C102.101 32.3311 101.253 40.2632 99.7308 53.6991C99.6553 54.3655 99.2635 56.0788 99.0988 56.7289C96.2382 68.0159 81.9649 71.9196 73.0289 79.6078C61.7904 89.2771 50.4446 107.829 45.6868 121.87C40.0179 138.601 35.8419 156.052 40.6843 169.287C44.5405 178.856 52.7854 181.335 68.4482 183.039C79.7519 184.269 99.6218 184.48 109.447 179.122C115.692 175.715 120.46 170.124 122.836 163.419C124.72 158.401 124.716 154.144 125.04 148.795C126.02 132.588 117.492 107.506 122.262 99.8039C122.964 98.5055 124.583 97.6215 127.502 97.7843C163.49 99.7921 175.858 99.9165 184.872 99.747C190.111 99.6486 198.565 98.8032 202.188 93.248C205.297 88.4806 203.226 80.7927 198.991 74.2704C191.28 62.3956 163.026 38.0811 150.957 30.1364C150.957 30.1364 147.798 27.9016 145.778 30.1329C143.142 33.0433 144.813 34.5702 144.813 34.5702C162.592 51.255 180.453 69.8382 184.253 75.4455C190.015 83.9483 178.846 83.239 170.628 81.9307C155.905 79.228 147.924 77.4738 132.819 74.6031C126.125 73.3309 110.709 69.9861 108.135 62.4649C107.39 60.2859 107.946 54.9055 110.552 53.0303C114.005 50.546 122.08 53.1769 126.915 51.383C132.659 49.2516 133.109 43.5064 133.594 38.3996C133.651 37.7972 133.691 37.1849 133.712 36.5627" fill="white"/>
<path d="M102.105 30.3265C100.519 30.3235 99.7034 28.9828 99.277 27.4624C98.838 25.9544 98.5609 24.4041 98.4501 22.8375C98.2543 19.1256 98.7457 15.4094 99.8997 11.8761C101.583 6.80999 105.529 2.81577 110.573 1.06943C115.618 -0.676914 121.188 0.0234611 125.644 2.96434C127.268 3.95014 128.579 5.3771 129.424 7.07905C130.257 8.81551 130.127 10.8606 129.079 12.4767C127.844 13.9537 125.992 14.7714 124.069 14.6884C122.176 14.5911 120.301 14.2784 118.478 13.7564C116 13.0809 113.401 12.9712 110.875 13.4355C108.316 13.9354 106.181 15.69 105.195 18.1033C104.488 20.1692 104.961 22.423 105.077 24.6034C105.193 26.7839 106.044 30.3337 102.105 30.3265Z" fill="black"/>
<path d="M133.291 30.1328C133.419 31.2706 134.661 32.1517 135.779 32.6179C136.59 32.8859 137.381 33.208 138.148 33.5821C139.395 34.4247 138.875 35.952 137.46 36.5338C136.233 36.8595 134.944 36.8682 133.712 36.5591" fill="white"/>
<path fillRule="evenodd" clipRule="evenodd" d="M151.246 29.7242C164.014 38.1295 191.821 62.3067 199.41 73.9938C203.253 79.9108 206.11 88.1466 202.607 93.5166C199.806 97.8111 193.843 100.074 184.883 100.243C176.842 100.394 165.115 100.379 127.475 98.2789C125.051 98.1451 123.397 98.752 122.702 100.037C120.087 104.262 121.647 114.202 123.299 124.725L123.3 124.73C124.612 133.087 125.968 141.729 125.539 148.82C125.498 149.498 125.462 150.158 125.427 150.805L125.427 150.806C125.185 155.277 124.976 159.138 123.304 163.59C120.89 170.41 116.04 176.096 109.687 179.556C103.059 183.171 92.0853 184.251 82.3182 184.251C77.6675 184.255 73.0199 184.015 68.3944 183.532C52.4461 181.796 44.1624 179.25 40.2205 169.47C35.0697 155.392 40.1834 136.549 45.2132 121.705C50.3475 106.554 62.1654 88.2911 72.703 79.2247C75.8549 76.6824 79.2108 74.404 82.7367 72.4127L82.7369 72.4125C89.9414 68.0723 96.7464 63.9727 98.6141 56.6017C98.7938 55.8917 99.1654 54.2477 99.2337 53.6388L100.141 45.5899C101.159 36.5397 101.893 30.0011 102.938 21.816C104.146 12.3512 107.582 6.8839 113.15 5.56603C119.382 4.09093 124.54 7.1173 128.481 14.5616C131.115 19.3548 132.904 24.5658 133.769 29.966C133.77 29.9713 133.773 29.9755 133.775 29.9796C133.778 29.9848 133.781 29.9898 133.782 29.9966C134.068 31.3428 135.386 31.8307 136.67 32.3057C138.027 32.8076 139.344 33.295 139.362 34.7648C139.394 37.3822 136.156 37.3848 134.175 37.1362C134.173 37.1869 134.17 37.2377 134.168 37.2884C134.148 37.676 134.128 38.0636 134.092 38.4425L134.068 38.7013C133.581 43.8297 133.03 49.6427 127.089 51.8473C124.743 52.7174 121.735 52.5914 118.826 52.4689L118.8 52.4678C115.582 52.3344 112.544 52.2085 110.844 53.4317C108.444 55.1588 107.944 60.3561 108.609 62.2984C109.809 65.8072 115 70.7042 132.912 74.1075C139.459 75.3517 144.647 76.3819 149.665 77.3785C156.203 78.6773 162.378 79.9034 170.718 81.4347C181.014 83.0719 184.187 81.8238 185.038 80.4879C185.69 79.462 185.287 77.858 183.839 75.7218C179.956 69.9923 161.928 51.3126 144.471 34.9308C144.392 34.859 142.471 33.0353 145.407 29.7931C147.238 27.7682 150.028 28.8619 151.246 29.7242ZM184.863 99.2428C193.472 99.0806 199.161 96.9703 201.769 92.9708C205.01 88.0021 202.242 80.1915 198.572 74.5386C191.044 62.9444 163.399 38.9214 150.682 30.5498C150.555 30.4605 147.845 28.5923 146.148 30.4639C143.91 32.9356 145.104 34.1514 145.156 34.2022C162.656 50.6245 180.75 69.3814 184.667 75.1607C186.359 77.6577 186.767 79.6309 185.882 81.0244C184.391 83.3687 179.373 83.8252 170.55 82.42C162.19 80.8858 156.012 79.6587 149.471 78.3594L149.43 78.3513C144.427 77.3578 139.25 76.3297 132.726 75.0899C117.966 72.2857 109.534 68.0909 107.662 62.6226C106.878 60.3302 107.421 54.6626 110.26 52.6202C112.241 51.1952 115.448 51.328 118.845 51.4688L118.868 51.4698L118.87 51.4698C121.677 51.5875 124.585 51.7093 126.741 50.9097C132.094 48.9235 132.591 43.6794 133.072 38.6075L133.072 38.6065L133.097 38.3477C133.153 37.7549 133.191 37.1529 133.212 36.5415L133.222 36.5418C133.239 36.3945 133.315 36.2605 133.433 36.1708C133.551 36.0811 133.701 36.0435 133.847 36.0666C133.902 36.0757 133.958 36.0852 134.016 36.0949C135.225 36.299 137.012 36.6007 137.925 35.6386C139.11 34.389 137.344 33.7348 136.388 33.386C134.859 32.828 133.168 32.0104 132.799 30.2677C132.797 30.2466 132.797 30.2254 132.798 30.2043L132.796 30.2046C131.953 24.8838 130.194 19.7493 127.597 15.0293C123.896 8.0391 119.112 5.1841 113.381 6.5391C108.259 7.75102 105.079 12.9336 103.93 21.9429C102.886 30.1202 102.152 36.6558 101.135 45.7017L100.228 53.751C100.148 54.4595 99.74 56.2285 99.5838 56.8472C97.6146 64.6172 90.3133 69.0157 83.2527 73.2691C79.7755 75.2324 76.4653 77.4778 73.3553 79.9825C62.9354 88.9473 51.2445 107.022 46.1605 122.026C41.1834 136.715 36.116 155.341 41.1541 169.111C44.8992 178.404 52.9578 180.846 68.5027 182.538C78.9153 183.67 99.2078 184.132 109.208 178.678C115.349 175.332 120.036 169.833 122.367 163.239C123.986 158.93 124.191 155.14 124.428 150.751C124.464 150.102 124.5 149.44 124.541 148.76C124.963 141.775 123.615 133.186 122.311 124.88L122.31 124.876C120.629 114.165 119.042 104.05 121.837 99.5362C122.445 98.4107 123.938 97.0802 127.531 97.2808C165.133 99.3785 176.841 99.3951 184.863 99.2428Z" fill="black"/>
<path d="M123.058 25.9138C124.317 24.399 126.195 23.5372 128.165 23.5705C128.569 23.5563 128.889 23.2247 128.889 22.8205C128.889 22.4162 128.569 22.0846 128.165 22.0705C125.668 22.0548 123.305 23.1941 121.762 25.1567C121.174 25.9215 122.477 26.6692 123.058 25.9138H123.058Z" fill="black"/>
<circle cx="127.492" cy="27.9042" r="0.9745" fill="black"/>
<path d="M144.261 33.1614C141.259 30.5532 138.236 26.685 135.627 24.5914C133.666 22.807 131.336 21.4757 128.803 20.6919C126.891 20.3613 124.943 20.2897 123.012 20.4791C120.344 20.5435 117.951 20.4804 117.251 19.7247C116.817 19.2556 116.563 17.9484 118.144 17.3367C122.689 15.5633 123.815 14.8798 128.55 14.6218C132.645 14.3988 135.305 15.2332 139.114 16.6272C143.471 18.2212 147.809 22.4952 150.153 28.6277C148.642 28.3173 147.078 28.7993 146.004 29.906C145.081 30.7706 144.469 31.9145 144.261 33.1614Z" fill="white"/>
<path d="M144.614 32.8102C140.397 29.0366 137.059 24.1914 131.993 21.4399C129.87 20.3127 127.481 19.7836 125.081 19.9092C123.551 19.9437 122.019 20.0536 120.487 19.9824C119.708 20.0736 118.919 19.9613 118.196 19.6564C116.826 18.6585 118.131 17.8278 120.176 17.07C125.563 15.0739 130.946 14.4653 136.495 16.242C142.608 18.1182 147.485 22.7539 149.67 28.7629L150.285 28.1478C148.75 27.9186 147.188 28.3236 145.957 29.2696C144.727 30.2156 143.934 31.6213 143.761 33.1637C143.71 33.8053 144.71 33.8019 144.761 33.1637C145.112 30.6031 147.454 28.7988 150.019 29.1121C150.351 29.1805 150.788 28.8797 150.634 28.497C148.149 22.3046 143.917 17.7047 137.561 15.5454C131.035 13.3286 125.097 14.0469 118.824 16.5369C117.544 17.0449 115.688 18.0334 116.648 19.7315C117.676 21.5487 121.344 21.0206 123.011 20.9814C125.167 20.7592 127.346 20.9042 129.454 21.4101C131.599 22.2124 133.573 23.4124 135.273 24.9472C138.402 27.5335 140.884 30.8117 143.907 33.5172C144.385 33.9453 145.095 33.2404 144.614 32.8102Z" fill="black"/>
<path d="M96.5336 98.8906C100.805 113.897 106.414 134.864 110.862 138.342C113.576 140.465 118.5 141.716 122.374 142.069C152.248 144.795 168.251 143.919 194.633 141.592C194.647 141.591 194.661 141.588 194.675 141.586C194.847 141.554 196.074 141.446 196.725 144.571C197.612 148.828 195.243 149.362 195.243 149.362C169.702 157.024 144.217 158.928 117.35 157.566C110.079 157.197 101.061 155.43 96.5763 151.777C93.4404 149.223 89.4697 142.473 87.7221 139.517C79.4107 125.459 77.0204 118.647 70.8203 103.539" fill="white"/>
<path d="M132.907 158.473C127.853 158.473 122.668 158.337 117.324 158.066C110.2 157.704 100.926 155.964 96.2602 152.165C93.0932 149.585 89.2182 143.03 87.3559 139.881L87.2919 139.772C80.0238 127.479 77.2177 120.579 72.5683 109.147C71.8803 107.455 71.1503 105.659 70.3578 103.729C70.2899 103.563 70.3154 103.375 70.4245 103.233C70.5337 103.092 70.7099 103.019 70.8869 103.043C71.0639 103.067 71.2147 103.184 71.2826 103.349C72.0756 105.281 72.806 107.077 73.495 108.77C78.1264 120.159 80.9223 127.034 88.1522 139.263L88.2167 139.371C89.9061 142.23 93.8632 148.923 96.892 151.389C101.37 155.037 110.409 156.714 117.375 157.067C146.816 158.56 171.514 155.959 195.1 148.883C195.203 148.856 197.001 148.346 196.235 144.673C195.767 142.435 195.006 142.039 194.764 142.078C167.863 144.455 151.985 145.273 122.328 142.568C118.738 142.24 113.5 141.041 110.554 138.736C106.35 135.449 101.466 118.168 97.1556 102.921L96.0526 99.0275C95.9771 98.7619 96.1312 98.4853 96.3968 98.4098C96.6625 98.3343 96.939 98.4884 97.0145 98.754L98.118 102.649C102.175 117.001 107.224 134.863 111.17 137.948C113.945 140.119 118.964 141.256 122.419 141.571C151.996 144.271 167.838 143.455 194.59 141.094C195.026 141.015 196.495 141.022 197.214 144.469C198.191 149.154 195.47 149.823 195.353 149.85C175.967 155.667 155.811 158.473 132.907 158.473Z" fill="black"/>
<path d="M52.527 133.597L56.0093 136.504C56.5 136.913 57.2111 136.209 56.7164 135.796L53.2341 132.889C52.7433 132.48 52.0322 133.184 52.527 133.597Z" fill="black"/>
<path d="M111.777 93.3764L107.633 95.2234C107.047 95.4849 107.555 96.3469 108.138 96.0868L112.281 94.2399C112.868 93.9784 112.36 93.1164 111.777 93.3764Z" fill="black"/>
<path d="M125.208 121.439L121.065 123.286C120.478 123.547 120.986 124.409 121.57 124.149L125.713 122.302C126.3 122.041 125.792 121.179 125.208 121.439Z" fill="black"/>
<path d="M145.79 149.184L148.871 152.513C149.309 152.987 150.015 152.278 149.578 151.806L146.497 148.477C146.059 148.003 145.353 148.712 145.79 149.184Z" fill="black"/>
<path d="M88.5219 85.1752L85.6704 81.6473C85.2658 81.1467 84.5622 81.8581 84.9633 82.3544L87.8148 85.8823C88.2194 86.3829 88.9231 85.6715 88.5219 85.1752Z" fill="black"/>
<path d="M139.422 77.5019L137.872 73.2389C137.654 72.6389 136.687 72.8979 136.908 73.5047L138.458 77.7677C138.676 78.3677 139.643 78.1087 139.422 77.5019Z" fill="black"/>
<path d="M158.864 92.1193L162.993 90.2415C163.578 89.9755 163.07 89.1133 162.488 89.378L158.359 91.2558C157.774 91.5218 158.282 92.384 158.864 92.1193Z" fill="black"/>
<path d="M196.042 84.0214L196.619 79.5221C196.7 78.8855 195.7 78.8915 195.619 79.5221L195.042 84.0214C194.96 84.6579 195.961 84.652 196.042 84.0214Z" fill="black"/>
<path d="M182.08 57.3533L184.237 53.3624C184.543 52.7961 183.679 52.2906 183.373 52.8576L181.217 56.8486C180.911 57.4148 181.774 57.9203 182.08 57.3533Z" fill="black"/>
<path d="M188.299 97.622L191.478 100.858C191.93 101.318 192.637 100.61 192.185 100.151L189.006 96.9149C188.555 96.4551 187.848 97.1623 188.299 97.622H188.299Z" fill="black"/>
<path d="M56.3586 165.55L52.3798 167.729C51.8152 168.038 52.3193 168.902 52.8846 168.592L56.8634 166.414C57.428 166.105 56.9239 165.241 56.3586 165.55Z" fill="black"/>
<path d="M72.3696 147.371L76.449 145.388C77.0276 145.106 76.5212 144.244 75.9443 144.524L71.8649 146.508C71.2863 146.789 71.7927 147.652 72.3696 147.371Z" fill="black"/>
<path d="M94.219 169.401L97.5238 172.508C97.9925 172.949 98.701 172.243 98.2309 171.801L94.9261 168.694C94.4575 168.253 93.749 168.959 94.219 169.401Z" fill="black"/>
<path d="M92.3096 129.013L96.8386 128.759C97.4785 128.723 97.4826 127.723 96.8386 127.759L92.3096 128.013C91.6697 128.049 91.6655 129.049 92.3096 129.013Z" fill="black"/>
<path d="M116.915 155.764L114.057 159.287C113.656 159.783 114.359 160.494 114.765 159.994L117.622 156.471C118.024 155.976 117.321 155.264 116.915 155.764V155.764Z" fill="black"/>
<path d="M174.819 151.629L173.436 155.949C173.24 156.563 174.205 156.826 174.401 156.215L175.784 151.895C175.98 151.28 175.015 151.017 174.819 151.629Z" fill="black"/>
<path d="M50.6253 103.167L53.9301 106.274C54.3987 106.715 55.1072 106.009 54.6372 105.567L51.3324 102.46C50.8637 102.019 50.1552 102.725 50.6253 103.167Z" fill="black"/>
<path d="M77.2031 171.979L76.1538 168.031C76.0732 167.773 75.8032 167.626 75.5433 167.698C75.2834 167.769 75.127 168.034 75.1895 168.296L76.2388 172.245C76.3194 172.502 76.5894 172.649 76.8493 172.578C77.1092 172.506 77.2656 172.241 77.2031 171.979Z" fill="black"/>
<path d="M36.9127 154.203L40.9974 154.288C41.2668 154.278 41.4804 154.057 41.4804 153.788C41.4804 153.518 41.2668 153.297 40.9974 153.288L36.9127 153.203C36.6433 153.212 36.4297 153.434 36.4297 153.703C36.4297 153.973 36.6433 154.194 36.9127 154.203Z" fill="black"/>
<path d="M124.46 42.683C125.144 44.1087 126.464 45.4564 128.164 45.3051C128.8 45.2485 128.806 44.2479 128.164 44.3051C126.803 44.4262 125.862 43.3009 125.324 42.1783C125.046 41.5983 124.183 42.1049 124.46 42.683Z" fill="black"/>
<path d="M106.64 25.2399C106.031 23.8591 104.083 23.5729 102.763 24.3062C101.283 25.1288 100.677 26.5271 100.809 28.4792C100.963 30.0832 101.889 31.5114 103.29 32.3069C104.704 33.1789 106.523 33.0103 107.753 31.8937L106.64 25.2399Z" fill="white"/>
<path d="M107.072 24.9909C106.231 23.584 104.478 23.0172 102.972 23.6654C101.391 24.3178 100.344 25.8427 100.305 27.5528C100.031 31.5635 104.665 35.2646 108.106 32.2505C108.591 31.8257 107.881 31.1208 107.399 31.5434C104.791 33.8275 101.284 30.9447 101.291 28.0061C101.214 26.8254 101.728 25.6836 102.664 24.9589C103.191 24.5232 103.879 24.3328 104.556 24.4352C105.233 24.5376 105.833 24.9233 106.208 25.4956C106.521 26.0583 107.385 25.5545 107.072 24.9909H107.072Z" fill="black"/>
<path d="M108.29 16.5625C108.559 16.5532 108.773 16.3321 108.773 16.0625C108.773 15.7929 108.559 15.5718 108.29 15.5625C108.02 15.5718 107.807 15.7929 107.807 16.0625C107.807 16.3321 108.02 16.5532 108.29 16.5625Z" fill="black"/>
<path d="M111.508 16.0234C111.778 16.0141 111.991 15.793 111.991 15.5234C111.991 15.2539 111.778 15.0328 111.508 15.0234C111.239 15.0328 111.025 15.2539 111.025 15.5234C111.025 15.793 111.239 16.0141 111.508 16.0234Z" fill="black"/>
<path d="M109.711 19.4219C109.981 19.4125 110.194 19.1914 110.194 18.9219C110.194 18.6523 109.981 18.4312 109.711 18.4219C109.442 18.4312 109.229 18.6523 109.229 18.9219C109.229 19.1914 109.442 19.4125 109.711 19.4219Z" fill="black"/>
<path d="M106.479 19.75C106.748 19.7407 106.962 19.5196 106.962 19.25C106.962 18.9804 106.748 18.7593 106.479 18.75C106.21 18.7593 105.996 18.9804 105.996 19.25C105.996 19.5196 106.21 19.7407 106.479 19.75Z" fill="black"/>
<path d="M104.373 25.6454C103.645 25.8159 103.038 26.3162 102.732 26.9983C102.426 27.6804 102.455 28.4663 102.811 29.1237C102.955 29.3518 103.254 29.4248 103.487 29.2886C103.72 29.1525 103.803 28.8563 103.675 28.619C103.472 28.2301 103.464 27.7684 103.654 27.373C103.844 26.9775 104.209 26.6947 104.639 26.6096C105.268 26.4766 105.002 25.5125 104.373 25.6454Z" fill="black"/>
<path d="M104.441 28.3357C104.88 28.7727 105.023 29.4255 104.808 30.0059C104.578 30.6077 105.544 30.8681 105.772 30.2718C106.115 29.2578 105.784 28.1377 104.946 27.4723C104.417 27.1036 103.916 27.9701 104.441 28.3357Z" fill="black"/>
<path d="M114.2 67.1103C114.632 65.4893 114.8 63.8091 114.697 62.1346C114.622 60.8651 114.24 59.6328 113.584 58.5434C111.726 55.8518 107.765 56.3907 106.576 56.2302C103.054 55.7547 99.9152 55.1204 97.2649 53.5702C96.1124 52.6241 94.392 53.0638 94.1732 53.9375C93.7417 56.1874 92.8941 58.3371 91.6741 60.2761C90.8028 61.6113 89.9391 62.8822 90.1909 64.4565C90.5099 66.4514 93.2545 67.5751 95.2425 67.9343C98.7586 68.5696 101.567 69.0493 105.125 69.3857C108.291 69.6851 113.457 70.3895 114.2 67.1103Z" fill="white"/>
<path d="M114.683 67.2394C115.304 64.3446 115.801 60.767 113.938 58.1861C112.327 55.9531 109.67 55.9251 107.189 55.7627C105.074 55.6143 102.984 55.2242 100.958 54.5998C99.3267 54.0989 97.7884 52.7747 96.1334 52.5649C92.9906 52.1663 93.12 56.4846 92.1329 58.4783C91.0305 60.7046 88.5119 63.2292 90.2335 65.8086C91.9577 68.3919 96.0298 68.6034 98.7355 69.0446C102.347 69.7799 106.023 70.1495 109.709 70.148C111.868 70.0546 113.975 69.4831 114.683 67.2394C114.877 66.6243 113.912 66.361 113.718 66.9736C112.91 69.5356 109.474 69.2353 107.331 69.084C104.543 68.8871 101.759 68.5306 99.0014 68.0803C96.7024 67.7049 93.4822 67.5755 91.6833 65.8752C89.1639 63.494 92.4475 60.3748 93.4178 58.0423C93.6713 56.9884 94.0086 55.9564 94.4266 54.9563C95.8252 52.8126 97.7639 54.4814 99.2104 55.0513C101.576 55.9497 104.055 56.5135 106.577 56.7264C108.417 56.8944 110.359 56.6607 112.004 57.7126C114.966 59.6071 114.336 64.0968 113.718 66.9736C113.584 67.6011 114.547 67.8693 114.683 67.2394Z" fill="black"/>
<path d="M108.031 58.6028C107.704 61.5682 108.09 64.5688 109.156 67.355C109.381 67.952 110.348 67.6934 110.121 67.0892C109.086 64.3878 108.712 61.4781 109.031 58.6028C109.097 57.9634 108.097 57.968 108.031 58.6028H108.031Z" fill="black"/>
<path d="M102.767 58.057C102.287 60.8918 102.094 63.7821 101.441 66.5858C101.295 67.2119 102.259 67.4792 102.405 66.8517C103.058 64.0484 103.251 61.1569 103.731 58.3228C103.838 57.6933 102.874 57.4228 102.767 58.057Z" fill="black"/>
<path d="M142.678 34.6148C143.221 31.8014 146.589 28.6339 150.201 27.2639C150.702 27.0417 151.256 26.9665 151.797 27.047C153.413 27.3839 155.309 30.1826 155.422 30.4053C155.775 30.9351 155.675 31.645 155.191 32.0573C154.765 32.4587 150.039 35.9744 148.037 37.8555C147.601 38.2334 147.109 38.5418 146.579 38.7695C145.013 39.1987 142.258 36.7874 142.678 34.6148Z" fill="white"/>
<path fillRule="evenodd" clipRule="evenodd" d="M145.795 29.2783C147.274 28.0543 149.734 26.2608 151.796 26.5459C154.457 26.9136 156.689 30.2765 155.628 32.0641C155.104 32.9482 154.112 33.6503 153.203 34.2943C152.887 34.5184 152.58 34.7356 152.307 34.9509C151.705 35.4249 151.12 35.9368 150.535 36.4494C149.708 37.1736 148.879 37.8992 147.997 38.5215C145.28 40.4401 141.976 37.6811 142.177 34.6136C142.18 34.5965 142.185 34.5796 142.19 34.563C142.192 34.5506 142.192 34.539 142.192 34.5273C142.192 34.5125 142.192 34.4976 142.195 34.4807C142.524 32.0712 144.129 30.656 145.795 29.2783ZM151.423 34.5406C152.37 33.8948 153.317 33.2491 154.131 32.464H154.132C156.391 30.2864 152.986 26.7919 150.333 27.7449C147.501 28.7624 143.177 32.6018 143.177 34.6889C143.175 36.7915 145.091 38.9621 147.087 37.9376C147.902 37.3895 148.658 36.7591 149.344 36.0566C150 35.5117 150.712 35.0261 151.423 34.5406Z" fill="black"/>
<path d="M194.982 139.105C197.448 141.787 198.754 145.336 198.613 148.977C198.611 149.525 198.453 150.061 198.158 150.522C197.19 151.859 193.861 152.445 193.611 152.457C192.984 152.562 192.376 152.181 192.199 151.57C192.006 151.017 190.731 145.267 189.833 142.671C189.579 142.1 189.427 141.488 189.385 140.865C189.828 139.339 193.734 137.936 194.982 139.105Z" fill="white"/>
<path fillRule="evenodd" clipRule="evenodd" d="M195.335 138.75C197.289 140.354 198.149 142.752 198.722 145.118C199.128 146.795 199.651 149.362 198.512 150.874C197.296 152.488 192.816 154.148 191.716 151.701C191.172 150.093 190.76 148.444 190.484 146.77C190.333 146.184 190.089 145.53 189.837 144.854C189.382 143.63 188.899 142.334 188.895 141.245C188.884 138.732 193.282 137.471 195.155 138.628L195.162 138.632C195.173 138.639 195.184 138.644 195.195 138.65C195.209 138.657 195.222 138.663 195.234 138.671C195.241 138.676 195.245 138.681 195.25 138.687C195.253 138.691 195.257 138.696 195.262 138.7C195.272 138.707 195.282 138.714 195.292 138.72C195.306 138.729 195.32 138.737 195.335 138.75ZM193.887 151.908C195.069 151.829 196.207 151.426 197.176 150.744C198.686 149.023 198.063 146.118 197.42 144.187C196.841 142.448 196.062 140.549 194.674 139.51C193.574 138.834 190.874 139.345 190.166 140.529C189.75 141.226 190.147 142.267 190.469 143.112C190.562 143.356 190.648 143.584 190.707 143.782C191.204 145.45 191.616 147.143 192.028 148.834C192.136 149.279 192.245 149.724 192.355 150.169C192.372 150.24 192.389 150.309 192.405 150.377C192.608 151.227 192.747 151.805 193.887 151.908Z" fill="black"/>
<path d="M165.1 301.437C165.1 314.607 160.97 334.276 158.4 346.486C151.612 378.716 143.022 410.539 132.67 441.806C131.26 445.406 128.12 445.077 124.59 444.397C121.07 443.707 118.01 442.637 118.26 439.517C119.45 425.097 127.56 368.877 128.26 336.387C128.53 324.057 127.41 312.647 125.66 306.477C121.96 293.257 103.87 275.897 83.4402 261.577C68.4302 251.047 51.0502 236.957 43.0402 222.527C34.9202 207.937 36.1502 185.797 44.2002 174.977C48.8602 179.987 56.4902 181.737 68.4502 183.037C79.7502 184.267 99.6202 184.477 109.45 179.117C124.11 205.587 136.45 225.747 154.81 265.037C158.99 273.976 165.1 289.276 165.1 301.437Z" fill="black"/>
<path d="M73.9826 186.803C73.8657 195.532 74.2347 204.555 77.9111 212.629C81.2611 219.986 86.9524 225.922 92.8025 231.359C106.303 243.907 120.181 256.008 130.79 271.24C135.329 277.466 139.143 284.19 142.158 291.28C145.258 299.134 146.827 307.508 146.78 315.951C146.777 326.062 144.927 336.069 143.219 346C141.576 355.549 139.829 365.081 138.037 374.603C134.069 395.688 129.859 416.727 126.036 437.839C125.922 438.468 126.885 438.738 127 438.105C130.425 419.191 134.163 400.336 137.755 381.454C139.57 371.91 141.333 362.357 143.044 352.794C144.719 343.32 146.563 333.808 147.397 324.215C149.3 308.219 145.545 292.062 136.784 278.545C127.565 263.404 115.391 250.675 102.394 238.74C95.2332 232.165 87.3757 225.907 81.9259 217.747C75.7334 208.475 74.8371 197.662 74.9826 186.803C74.9733 186.534 74.7522 186.32 74.4826 186.32C74.213 186.32 73.9919 186.534 73.9826 186.803V186.803Z" fill="white"/>
<path d="M97.538 186.66C98.154 194.217 103.617 199.821 105.907 206.802C108.875 215.848 102.74 225.652 94.7526 229.827C94.182 230.126 94.687 230.989 95.2573 230.691C102.377 226.969 108.634 218.405 107.664 210.063C106.67 201.52 99.2418 195.295 98.538 186.66C98.4861 186.023 97.4856 186.017 97.538 186.66Z" fill="white"/>
<path d="M97.3082 57.0556C97.0002 59.9325 96.0184 62.6964 94.4426 65.123C94.0938 65.6661 94.9591 66.1681 95.3061 65.6278C96.9672 63.0463 97.9957 60.1093 98.3082 57.0556C98.377 56.4166 97.3765 56.4214 97.3082 57.0556Z" fill="black"/>
<path d="M203.621 138.71C205.206 137.838 206.95 137.295 208.749 137.112C209.383 137.048 209.39 136.047 208.749 136.112C206.774 136.306 204.858 136.896 203.116 137.847C202.551 138.155 203.055 139.019 203.621 138.71Z" fill="black"/>
<path d="M203.621 142.098C206.583 140.198 209.968 139.059 213.475 138.782C214.117 138.759 214.12 137.759 213.475 137.782C209.79 138.061 206.232 139.247 203.116 141.234C202.888 141.378 202.815 141.677 202.951 141.91C203.087 142.143 203.384 142.226 203.621 142.098H203.621Z" fill="black"/>
<path d="M207.967 143.744C210.118 142.337 212.627 141.575 215.197 141.547C215.467 141.538 215.68 141.316 215.68 141.047C215.68 140.777 215.467 140.556 215.197 140.547C212.449 140.571 209.765 141.38 207.462 142.881C206.935 143.243 207.435 144.11 207.967 143.744Z" fill="black"/>
</svg>
