<svg width="419" height="390" viewBox="0 0 419 390" fill="none" xmlns="http://www.w3.org/2000/svg">
<path d="M16.3436 276.149C14.7179 275.656 12.953 276.038 11.6774 277.16C10.4365 278.277 9.39819 279.601 8.60844 281.072C6.4009 284.673 4.42584 287.998 1.93754 291.411C0.636709 293.196 0.666439 294.171 1.36095 294.797C2.86376 296.134 4.4423 297.384 6.08876 298.54C8.07642 299.849 10.5 295.791 12.9879 292.895C13.9642 291.759 16.0449 292.538 16.6864 293.61C16.9752 294.091 17.1424 294.635 17.1737 295.195C17.1626 296.593 16.6281 297.937 15.6755 298.962C14.3627 300.517 12.4095 301.974 13.3407 304.277C13.6672 305.028 14.2032 305.668 14.8845 306.122C17.8244 308.182 20.9345 309.987 24.1809 311.518C25.2008 312.153 26.4281 312.364 27.6014 312.107C28.4371 311.716 29.1263 311.068 29.5685 310.259C30.6808 308.853 31.2243 307.081 31.0912 305.294C30.6111 302.498 27.6088 301.051 25.3936 299.278C24.3296 298.558 23.5895 297.451 23.3314 296.192C23.2866 295.497 23.3952 294.8 23.6495 294.151C24.3859 291.999 25.719 290.074 26.3094 287.877C26.8999 285.681 26.4756 282.924 24.489 281.816L16.3436 276.149Z" fill="black"/>
<path d="M53.8619 220.852C39.117 242.52 23.4592 263.935 18.0331 271.938C16.2676 274.532 14.8938 277.51 17.6214 279.844C20.3576 282.166 22.7723 282.997 25.7774 280.556C35.501 270.897 45.2017 260.366 56.3517 247.863" fill="white"/>
<path d="M22.2071 282.513C20.3516 282.355 18.6121 281.544 17.298 280.225C14.2115 277.585 15.8487 274.259 17.6197 271.656C19.7203 268.559 23.3131 263.509 27.8614 257.115C34.8439 247.301 44.4064 233.858 53.4483 220.57L54.2755 221.133C45.2276 234.43 35.6612 247.877 28.6764 257.695C24.1315 264.083 20.5416 269.13 18.4474 272.218C16.1334 275.618 15.984 277.785 17.9469 279.464C20.9337 281.999 22.9718 282.19 25.462 280.169C34.1417 271.542 43.2794 261.771 55.9786 247.529L56.7247 248.195C44.0113 262.452 34.8614 272.236 26.13 280.911C25.0517 281.89 23.6625 282.457 22.2071 282.513Z" fill="black"/>
<path d="M394.9 218.829C399.437 306.401 330.857 389.354 224.374 389.354C130.211 389.332 53.8896 312.991 53.8896 218.829C53.8896 124.666 130.211 48.3259 224.374 48.3031C224.374 48.3031 385.872 44.5871 394.9 218.829Z" fill="white"/>
<path fillRule="evenodd" clipRule="evenodd" d="M53.3486 218.826C53.3486 313.129 130.07 389.851 224.375 389.851C274.244 389.851 319.308 371.315 351.267 337.659C381.581 305.721 397.524 262.782 395.399 218.8C393.335 178.963 383.06 145.181 364.86 118.392C350.293 96.9501 330.65 79.9203 306.476 67.7753C265.684 47.2809 225.444 47.7867 224.393 47.8L224.375 47.8002C130.07 47.8002 53.3486 124.522 53.3486 218.826ZM224.386 48.8002C224.413 48.7992 224.619 48.7958 224.992 48.7958C230.195 48.7958 267.882 49.4945 306.062 68.6863C330.074 80.7566 349.583 97.6756 364.046 118.974C382.134 145.607 392.346 179.21 394.401 218.851C396.512 262.559 380.667 305.232 350.542 336.97C318.774 370.426 273.967 388.851 224.375 388.851C130.622 388.851 54.3486 312.578 54.3486 218.826C54.3486 125.073 130.622 48.8002 224.386 48.8002Z" fill="black"/>
<path d="M115.765 271.916C109.643 268.899 102.478 269.983 96.156 267.406C89.8605 264.722 84.4219 260.362 80.4323 254.801C71.3846 242.511 70.6589 226.899 74.7424 212.673C75.767 209.676 76.0971 206.485 75.7077 203.341C75.0804 199.514 73.3 195.983 72.6594 192.156C71.2527 183.753 74.1525 175.442 77.508 167.857C80.5703 160.741 84.3412 153.951 88.7638 147.59C91.359 143.947 96.3024 138.171 100.253 143.614C102.352 146.506 102.504 150.32 104.546 153.261C107.876 158.057 116.943 160.818 115.877 167.931C115.089 173.19 108.815 169.981 105.687 169.34C103.383 168.861 100.987 169.141 98.8552 170.138C94.0088 172.412 91.9797 177.849 93.0479 182.928C93.9384 187.162 97.8413 192.723 102.755 190.153C108.337 187.235 109.065 175.602 117.342 179.215C120.839 180.742 123.507 183.88 125.852 186.794C128.982 190.684 131.892 195.031 127.888 199.62C125.75 202.07 122.698 203.582 120.296 205.758C118.08 207.757 116.187 210.087 114.686 212.666C111.659 217.878 110.591 224 111.675 229.929C112.22 232.954 113.356 235.841 115.019 238.425C116.783 241.129 120.321 243.74 119.963 247.275C119.904 248.022 119.543 248.712 118.963 249.185C118.382 249.659 117.633 249.874 116.89 249.781C115.896 249.653 114.913 249.445 113.953 249.16C112.313 248.762 110.631 248.56 108.944 248.558C106.473 248.515 104.123 249.621 102.581 251.552C99.5148 255.638 102.392 260.21 106.801 261.449C110.17 262.395 113.722 261.388 117.12 262.145C121.255 263.065 125.89 267.285 125.517 271.841C125.527 273.246 124.659 274.508 123.342 274.999C121.935 275.598 120.906 275.174 119.611 274.432C118.277 273.668 117.126 272.642 115.765 271.916C115.197 271.613 114.691 272.476 115.26 272.78C117.591 274.023 120.081 276.888 123.003 276.338C125.02 275.83 126.463 274.057 126.549 271.979C127.04 265.915 120.55 261.196 115.096 260.857C111.165 260.613 106.406 261.731 103.44 258.346C101.729 256.237 102.01 253.149 104.073 251.384C106.294 249.261 109.526 249.37 112.35 249.857C114.559 250.237 117.956 251.918 119.873 250.004C121.336 248.544 121.215 246.102 120.46 244.341C119.059 241.072 116.072 238.755 114.53 235.516C112.83 231.911 112.055 227.937 112.277 223.957C112.712 215.828 117.461 208.835 123.904 204.148C126.46 202.288 129.198 200.481 130.415 197.418C131.586 194.47 130.678 191.788 128.963 189.29C125.818 184.71 120.355 177.04 113.959 177.521C106.766 178.061 107.171 189.871 100.159 189.703C95.1664 189.583 93.3067 182.484 93.8968 178.479C94.4391 174.407 97.4976 171.123 101.521 170.292C105.362 169.507 108.458 171.938 112.17 171.976C114.289 172.117 116.215 170.747 116.775 168.698C118.365 162.648 111.974 158.8 108.163 155.606C106.701 154.454 105.486 153.02 104.591 151.387C103.582 149.417 103.182 147.203 102.295 145.183C101.355 143.042 99.666 140.65 97.1891 140.233C94.0324 139.701 91.3292 142.749 89.5394 144.922C87.2266 147.874 85.1511 151.005 83.3324 154.285C79.1079 161.238 75.6964 168.654 73.165 176.387C71.9233 180.193 71.29 184.171 71.2887 188.174C71.3598 192.24 72.5936 195.922 73.7791 199.764C75.1168 204.023 75.0732 208.595 73.6546 212.828C72.5813 216.35 71.8414 219.965 71.4447 223.625C70.6836 231.147 71.691 238.743 74.3864 245.807C79.0918 257.889 89.7853 268.373 102.95 270.286C107.142 270.895 111.379 270.867 115.26 272.78C115.835 273.063 116.342 272.201 115.765 271.916V271.916Z" fill="black"/>
<path fillRule="evenodd" clipRule="evenodd" d="M219.332 368.332C222.376 369.806 227.791 370.528 234.653 370.528C259.462 370.528 303.177 361.098 322.085 343.73C323.588 342.459 324.829 340.907 325.737 339.161C326.736 337.352 326.432 335.103 324.989 333.624C321.115 329.413 320.906 326.775 321.902 322.452C322.274 321.06 322.79 319.71 323.441 318.425C323.902 317.472 324.313 316.495 324.674 315.499C326.241 310.934 325.212 305.604 321.92 301.241C318.956 297.044 314.106 294.586 308.969 294.678C305.689 294.85 301.889 296.599 301.294 300.034C300.811 302.816 302.6 305.048 304.332 307.207C305.68 308.888 307.073 310.627 307.371 312.596C307.557 314.064 307.136 315.545 306.205 316.696C305.138 318.107 303.554 319.036 301.802 319.278C298.42 319.469 295.227 317.711 293.579 314.752C293.119 313.925 292.713 313.07 292.361 312.192C291.264 309.173 289.259 306.568 286.621 304.735C285.555 303.866 284.55 302.924 283.614 301.915C282.085 300.023 280.797 297.947 279.78 295.736C278.786 293.606 277.563 291.591 276.132 289.726C274.038 287.244 270.957 285.81 267.71 285.805C265.854 285.814 264.118 286.723 263.055 288.244C260.936 291.313 262.38 294.857 263.775 298.283C264.657 300.171 265.266 302.176 265.585 304.236C265.806 306.617 265.034 309.073 264.287 311.447L264.286 311.45C263.326 314.504 262.334 317.661 263.414 320.743C264.182 322.935 265.842 324.566 267.448 326.144L267.448 326.144C268.382 327.017 269.25 327.958 270.044 328.96C271.306 330.701 271.691 332.929 271.088 334.993C270.785 335.941 270.005 336.66 269.036 336.886C267.55 337.22 266.158 336.371 264.685 335.473L264.684 335.472C263.735 334.832 262.704 334.322 261.619 333.955C259.984 333.609 258.293 333.624 256.664 333.999C255.426 334.256 254.157 334.337 252.896 334.24C250.981 333.965 249.279 332.873 248.231 331.246C246.42 328.441 245.818 325.023 246.561 321.768C247.485 318.534 248.86 315.447 250.647 312.598C251.736 310.743 252.723 308.83 253.605 306.868C257.439 297.886 256.379 287.564 250.8 279.549C245.1 271.703 234.691 267.585 225.494 269.535C224.361 269.775 223.234 270.1 222.144 270.415C220.186 271.076 218.153 271.485 216.093 271.634C214.293 271.621 212.5 271.413 210.745 271.012C208.572 270.483 206.33 270.297 204.1 270.463C198.875 271.121 192.639 276.083 190.806 288.04C190.214 291.904 189.183 295.928 186.024 296.478C184.376 296.76 182.714 295.914 181.057 295.064C174.62 291.765 167.797 289.283 160.746 287.674C156.517 286.71 148.947 285.871 145.761 291.087C142.952 295.689 145.869 301.434 149.22 304.955C150.172 305.955 151.209 306.917 152.212 307.848L152.212 307.848L152.215 307.85C154.768 310.22 157.408 312.669 158.708 315.853C159.373 317.702 159.805 319.627 159.995 321.582C160.168 323.024 160.43 324.453 160.779 325.862C163.548 336.108 174.264 341.417 185.432 345.629L185.483 345.649C192.55 348.313 200.574 351.338 208.702 351.118C212.035 350.945 215.351 350.529 218.623 349.872C225.241 348.713 231.492 347.619 237.167 350.365C239.745 351.613 241.392 353.562 241.572 355.578C241.699 356.925 241.204 358.257 240.229 359.195C238.385 361.089 234.67 362.267 231.194 362.044C230.245 361.985 229.142 361.853 227.974 361.713L227.955 361.711C224.096 361.251 219.73 360.73 217.697 362.414C217.017 362.98 216.61 363.809 216.578 364.693C216.469 366.169 217.395 367.394 219.332 368.332ZM218.336 363.184C219.547 362.451 220.962 362.127 222.372 362.259C224.207 362.304 226.037 362.453 227.854 362.707L227.855 362.707C229.038 362.848 230.155 362.982 231.132 363.042C234.304 363.247 238.561 362.342 240.945 359.892C242.12 358.742 242.716 357.125 242.568 355.488C242.356 353.12 240.5 350.868 237.602 349.464C231.637 346.578 224.932 347.751 218.45 348.887C215.226 349.534 211.96 349.946 208.676 350.118C200.716 350.323 192.806 347.341 185.822 344.708L185.785 344.694C174.866 340.576 164.396 335.413 161.745 325.6C161.406 324.231 161.153 322.843 160.985 321.443C160.783 319.406 160.329 317.401 159.633 315.476C158.251 312.087 155.528 309.561 152.895 307.118L152.893 307.116L152.879 307.103C151.891 306.186 150.871 305.239 149.945 304.266C146.591 300.743 144.261 295.462 146.615 291.609C149.581 286.751 157.328 287.921 160.523 288.649C167.512 290.245 174.275 292.708 180.653 295.981L180.667 295.988C182.334 296.843 184.223 297.811 186.196 297.462C189.979 296.804 191.148 292.407 191.794 288.193C192.888 281.055 196.8 272.39 204.225 271.456C206.351 271.301 208.489 271.483 210.559 271.995C212.385 272.406 214.25 272.621 216.122 272.634C218.266 272.481 220.383 272.058 222.422 271.376C223.495 271.066 224.604 270.746 225.701 270.513C234.527 268.646 244.517 272.601 249.991 280.137C255.367 287.866 256.385 297.818 252.686 306.475C251.818 308.403 250.847 310.283 249.776 312.107C247.939 315.037 246.529 318.214 245.587 321.541C244.785 325.072 245.443 328.778 247.411 331.817C248.617 333.679 250.573 334.925 252.769 335.232C254.124 335.34 255.486 335.258 256.817 334.988C258.303 334.637 259.847 334.613 261.344 334.916C262.341 335.261 263.289 335.735 264.163 336.326L264.163 336.326C265.741 337.289 267.372 338.284 269.255 337.863C270.561 337.573 271.616 336.613 272.026 335.339C272.752 332.957 272.314 330.372 270.845 328.361C270.021 327.317 269.12 326.338 268.148 325.431L268.146 325.429C266.552 323.862 265.048 322.383 264.357 320.412C263.388 317.643 264.288 314.779 265.241 311.747L265.241 311.746C266.018 309.278 266.82 306.725 266.581 304.144C266.257 301.985 265.624 299.884 264.701 297.906C263.346 294.579 262.066 291.437 263.877 288.812C264.772 287.559 266.214 286.813 267.753 286.804C270.687 286.82 273.467 288.12 275.36 290.363C276.744 292.172 277.928 294.126 278.891 296.191C279.942 298.478 281.277 300.624 282.864 302.578C283.831 303.621 284.869 304.596 285.972 305.495C288.491 307.227 290.404 309.706 291.441 312.582C291.808 313.501 292.234 314.395 292.716 315.258C294.549 318.574 298.137 320.529 301.917 320.272C303.938 319.996 305.767 318.928 307 317.303C308.097 315.938 308.588 314.183 308.359 312.447C308.022 310.212 306.543 308.367 305.113 306.582L305.112 306.581C303.446 304.504 301.874 302.542 302.278 300.204C302.758 297.439 306.033 295.833 309.021 295.676C313.826 295.605 318.356 297.913 321.122 301.842C324.213 305.941 325.187 310.924 323.729 315.175C323.378 316.138 322.979 317.082 322.534 318.005C321.855 319.353 321.316 320.768 320.928 322.227C319.895 326.714 320.125 329.814 324.253 334.302C325.416 335.487 325.651 337.3 324.828 338.743C323.974 340.367 322.813 341.811 321.409 342.994C297.498 364.957 233.644 374.157 219.768 367.432C218.237 366.691 217.499 365.794 217.576 364.763C217.59 364.152 217.867 363.577 218.336 363.184Z" fill="black"/>
<path fillRule="evenodd" clipRule="evenodd" d="M171.794 361.688C173.697 363.093 176.015 363.822 178.379 363.761H178.38C178.465 363.761 178.549 363.761 178.635 363.759C180.819 363.717 183.375 362.659 183.822 360.435C184.157 358.776 183.229 357.041 181.067 355.279C177.177 352.105 172.727 349.686 167.947 348.149C166.775 347.683 165.503 347.524 164.253 347.687C162.818 347.893 161.708 349.051 161.563 350.493C161.562 352.458 162.879 353.783 163.841 354.75L163.841 354.751C165.603 356.52 170.388 360.582 171.794 361.688ZM172.413 360.903C171.06 359.838 166.255 355.759 164.55 354.046C163.665 353.155 162.562 352.046 162.563 350.493C162.564 349.582 163.521 348.849 164.445 348.668C165.53 348.547 166.627 348.695 167.64 349.1C172.302 350.6 176.641 352.959 180.435 356.054C182.288 357.563 183.097 358.971 182.842 360.238C182.503 361.921 180.414 362.724 178.616 362.759C176.396 362.874 174.205 362.219 172.413 360.903Z" fill="black"/>
<path d="M335.154 222.423C338.57 219.063 344.884 220.027 349.238 220.249C354.111 220.38 358.927 221.336 363.48 223.077C368.149 224.994 373.49 228.254 375.662 233.009C376.988 235.909 376.65 238.794 374.153 240.907C372.51 242.298 370.778 243.322 369.717 245.27C367.626 249.11 368.067 255.368 363.095 256.937C358.407 258.417 353.302 255.277 348.445 256.103C343.257 256.984 339.124 260.439 334.275 262.207C331.201 263.329 327.81 263.439 325.457 260.825C323.423 258.4 322.763 255.108 323.704 252.087C324.756 248.983 326.611 246.214 329.082 244.062C330.706 242.497 332.521 241 333.647 239.008C336.702 233.601 331.154 227.346 335.154 222.423C335.556 221.927 334.853 221.216 334.447 221.716C332.963 223.407 332.315 225.675 332.68 227.896C333.121 231.457 334.704 235.091 332.783 238.503C331.327 241.089 328.718 242.821 326.762 244.993C324.73 247.111 323.28 249.718 322.553 252.561C321.638 256.732 323.331 261.833 327.55 263.504C333.005 265.665 338.87 260.9 343.557 258.758C346.778 257.173 350.414 256.637 353.955 257.224C356.779 257.699 359.783 258.672 362.666 258.073C367.625 257.041 368.308 252.111 369.654 248.045C370.105 246.457 370.936 245.002 372.075 243.807C373.082 242.808 374.371 242.14 375.39 241.152C376.972 239.676 377.727 237.515 377.408 235.374C376.718 230.237 371.998 226.558 367.83 224.12C362.583 221.239 356.744 219.605 350.764 219.342C345.8 218.982 338.381 217.846 334.447 221.716C333.987 222.168 334.695 222.875 335.154 222.423Z" fill="black"/>
<path fillRule="evenodd" clipRule="evenodd" d="M140.998 262.772C142.668 264.03 144.712 264.692 146.803 264.651C148.496 264.648 150.168 264.269 151.698 263.543C153.089 262.995 154.22 261.939 154.86 260.588C155.664 258.574 154.678 256.415 153.487 255.066C152.612 254.143 151.639 253.316 150.586 252.603L150.572 252.592C150.115 252.259 149.658 251.925 149.219 251.571C148.695 251.112 148.218 250.601 147.796 250.046C146.762 248.786 145.59 247.359 143.577 247.359C140.801 247.359 139.027 249.567 138.448 253.744C137.967 257.202 137.827 260.27 140.998 262.772ZM139.438 253.881C139.788 251.362 140.79 248.359 143.577 248.359V248.359C145.118 248.359 146.043 249.486 147.023 250.68C147.488 251.288 148.013 251.848 148.592 252.351C149.047 252.718 149.522 253.064 149.996 253.41C150.991 254.081 151.91 254.859 152.737 255.729C153.686 256.803 154.568 258.623 153.931 260.217C153.38 261.33 152.43 262.195 151.27 262.639C147.972 264.205 144.093 263.943 141.618 261.987C139.099 259.999 138.908 257.698 139.438 253.881Z" fill="black"/>
<path d="M46.11 305.648C44.5598 304.953 42.7606 305.109 41.3531 306.061C39.9807 307.011 38.7832 308.193 37.8134 309.552C35.1674 312.844 32.787 315.892 29.8864 318.963C28.37 320.568 28.2759 321.54 28.8855 322.248C30.2068 323.765 31.6143 325.205 33.1011 326.56C34.9069 328.11 37.8251 324.392 40.6598 321.834C41.7722 320.831 43.7374 321.868 44.2379 323.012C44.4634 323.526 44.5605 324.086 44.5205 324.646C44.3323 326.032 43.6318 327.297 42.5571 328.193C41.0579 329.569 38.9359 330.767 39.5678 333.169C39.7966 333.955 40.2471 334.659 40.8654 335.196C43.5207 337.611 46.377 339.795 49.4032 341.726C50.3345 342.484 51.5252 342.849 52.7216 342.743C53.6002 342.461 54.3657 341.906 54.907 341.159C56.1884 339.906 56.952 338.217 57.0464 336.427C56.9244 333.592 54.1296 331.777 52.1568 329.738C51.1926 328.889 50.5988 327.696 50.5022 326.415C50.5459 325.72 50.7419 325.042 51.0764 324.431C52.0794 322.39 53.6457 320.649 54.5097 318.545C55.3736 316.441 55.302 313.652 53.4718 312.302L46.11 305.648Z" fill="black"/>
<path d="M195.246 77.3907V77.4007C195.236 78.5807 195.216 79.7507 195.206 80.9307C192.796 104.951 191.876 131.971 183.146 164.151C181.976 168.471 180.666 172.891 179.186 177.401C174.767 191.282 168.032 204.316 159.266 215.951C151.396 226.501 131.586 245.521 122.216 253.771C93.616 278.971 74.136 296.451 54.906 311.211C51.616 313.251 49.326 312.121 46.9159 309.461C44.496 306.801 46.246 304.021 48.3161 301.671C57.8961 290.821 94.0161 253.061 114.006 227.451C121.596 217.731 127.946 208.741 131.436 201.501C136.206 191.641 140.926 176.961 140.576 156.351C140.366 143.581 138.226 128.541 132.936 110.951C127.666 93.3907 118.796 75.2607 121.086 53.2807C122.726 37.5507 131.356 20.5307 152.226 12.6107C152.25 12.6087 152.274 12.6019 152.296 12.5907C153.666 12.0707 155.096 11.5907 156.576 11.1507C162.144 9.33188 167.879 8.06905 173.696 7.38066C179.405 6.60479 185.165 6.25383 190.926 6.33066C190.786 6.49066 190.646 6.65066 190.516 6.81066C189.316 8.26688 188.394 9.93119 187.796 11.7207C185.906 17.3107 187.896 25.2406 189.366 30.9407C190.836 36.6507 192.856 42.2907 193.116 48.1807C193.356 53.4507 191.266 59.1007 191.186 64.3707C191.116 69.2207 191.506 73.5607 195.086 77.2207C195.136 77.2807 195.186 77.3307 195.246 77.3907Z" fill="white"/>
<path d="M195.086 77.2212C194.456 82.9612 193.946 88.8812 193.415 95.0212C191.665 115.411 189.705 138.131 182.606 164.201C181.456 168.461 180.165 172.811 178.706 177.251C174.293 191.073 167.586 204.055 158.866 215.651C150.915 226.311 130.856 245.491 121.886 253.401L112.425 261.741C88.7355 282.641 71.6155 297.751 54.6456 310.781C51.9155 312.471 49.9155 312.031 47.2856 309.131C45.5456 307.221 45.9655 305.091 48.6955 302.001C51.1556 299.211 55.3456 294.671 60.6556 288.921C76.1456 272.141 99.5456 246.781 114.406 227.761C123.185 216.511 128.736 208.241 131.886 201.721C138.296 188.471 141.386 173.401 141.126 156.631C140.925 142.521 138.355 127.245 133.415 110.801C132.286 107.041 131.016 103.331 129.675 99.4012C124.816 85.1912 119.796 70.5012 121.586 53.3312C122.596 43.6112 128.046 20.1012 156.746 11.6212C165.136 8.67124 178.596 6.80124 189.196 6.80124C189.636 6.80124 190.076 6.80124 190.516 6.81124C190.646 6.65124 190.786 6.49124 190.926 6.33124L190.946 6.31124C190.656 6.28124 184.456 5.69124 173.696 7.38124C167.878 8.06963 162.144 9.33246 156.576 11.1512C155.096 11.5912 153.666 12.0712 152.296 12.5912C152.274 12.6025 152.25 12.6093 152.226 12.6112C148.577 13.7816 145.074 15.3652 141.786 17.3312C141.741 17.3508 141.701 17.3778 141.666 17.4112C125.156 28.2812 121.426 45.2812 120.596 53.2312C118.776 70.6112 123.836 85.4112 128.736 99.7312C130.066 103.641 131.336 107.341 132.466 111.091C137.306 127.211 139.856 142.211 140.116 156.091C140.446 172.921 137.406 188.031 130.986 201.281C127.866 207.741 122.346 215.951 113.616 227.141C98.7856 246.131 75.3956 271.471 59.9255 288.241C54.6056 293.991 50.4155 298.541 47.9455 301.341C45.8555 303.701 43.8157 306.801 46.5456 309.801C47.9355 311.331 49.5856 312.741 51.7356 312.741C52.9801 312.698 54.1868 312.303 55.2156 311.601C72.2556 298.521 89.3856 283.411 113.086 262.491L122.546 254.151C131.546 246.221 151.676 226.961 159.666 216.251C168.452 204.568 175.21 191.488 179.656 177.561C181.156 172.961 182.499 168.461 183.686 164.061C190.716 138.081 192.666 115.441 194.416 95.1113C194.646 92.4113 194.879 89.758 195.116 87.1513C195.156 85.0813 195.176 83.0013 195.206 80.9313C195.216 79.7513 195.236 78.5813 195.246 77.4013V77.3913C195.186 77.3312 195.136 77.2812 195.086 77.2212Z" fill="black"/>
<path d="M195.245 77.3912V77.4012C195.235 78.5812 195.215 79.7512 195.205 80.9312C195.175 83.0012 195.155 85.0812 195.115 87.1512C194.765 109.601 193.835 131.751 190.215 154.011C189.595 157.821 188.465 162.241 184.895 163.711C184.506 163.873 184.1 163.99 183.685 164.061C183.507 164.101 183.327 164.131 183.145 164.151C182.965 164.171 182.785 164.191 182.605 164.201C181.52 164.246 180.432 164.196 179.355 164.051C168.576 162.88 157.877 161.063 147.315 158.611C145.185 158.183 143.108 157.519 141.125 156.631C140.945 156.541 140.755 156.451 140.575 156.351C140.425 156.261 140.265 156.181 140.115 156.091C139.425 155.678 138.781 155.192 138.195 154.641C135.405 151.991 134.425 148.001 133.595 144.251C127.935 118.681 124.315 95.5412 120.725 69.6112C120.725 69.6112 114.395 33.9412 141.665 17.4112C141.7 17.3778 141.741 17.3508 141.785 17.3312C145.074 15.3652 148.577 13.7816 152.225 12.6112C152.25 12.6093 152.273 12.6025 152.295 12.5912C159.279 10.2885 166.435 8.54634 173.695 7.38124C184.455 5.69124 190.655 6.28124 190.945 6.31124L190.925 6.33124C190.785 6.49124 190.645 6.65124 190.515 6.81124C189.315 8.26746 188.393 9.93177 187.795 11.7212C185.905 17.3112 187.895 25.2412 189.365 30.9412C190.835 36.6512 192.855 42.2912 193.115 48.1812C193.355 53.4512 191.265 59.1012 191.185 64.3712C191.115 69.2212 191.505 73.5612 195.085 77.2212C195.135 77.2812 195.185 77.3312 195.245 77.3912Z" fill="black"/>
<path d="M362.046 124.094C360.186 127.604 356.336 134.714 343.636 132.384C339.025 131.651 334.696 129.689 331.106 126.704C330.168 127.183 329.183 127.565 328.166 127.844C327.052 128.162 325.854 127.812 325.086 126.944C324.026 125.644 324.966 123.814 325.936 122.444C325.276 121.894 324.806 121.474 324.696 121.364C320.676 117.544 317.146 113.514 319.326 107.784C321.166 102.974 329.606 96.6537 330.006 92.4137C330.316 89.2237 326.206 84.5438 323.766 82.1338C318.636 77.5138 315.446 75.9137 308.786 73.2238C308.113 73.0193 307.429 72.8557 306.736 72.7338C306.926 72.3438 307.066 71.9237 307.216 71.5238C308.646 67.6838 311.636 64.0938 315.676 63.1538C315.977 63.0824 316.268 62.9785 316.546 62.8438C322.636 68.4037 327.906 74.7137 333.956 80.5537C334.726 81.3837 336.736 83.2938 337.186 83.7838C346.296 93.7838 348.666 95.0037 355.646 102.894C362.666 110.814 364.236 119.964 362.046 124.094Z" fill="white"/>
<path fillRule="evenodd" clipRule="evenodd" d="M331.033 127.294C336.013 131.141 342.107 133.265 348.398 133.348C357.706 133.348 360.858 127.401 362.487 124.327C364.848 119.877 363.074 110.519 356.019 102.562C352.542 98.6299 350.15 96.2955 347.618 93.8238L347.603 93.8094C345.036 91.3032 342.123 88.4602 337.554 83.4449C337.35 83.2222 336.828 82.71 336.243 82.1368L336.235 82.1292C335.534 81.4416 334.742 80.6653 334.304 80.1929C331.629 77.6117 329.069 74.8965 326.592 72.27L326.57 72.2466L326.553 72.2278C323.464 68.9528 320.272 65.5673 316.883 62.4736L316.63 62.2422L316.322 62.3955C316.08 62.5131 315.825 62.6038 315.562 62.666C311.735 63.5562 308.439 66.8022 306.748 71.3472L306.644 71.6289C306.539 71.93 306.42 72.2257 306.286 72.5146L305.996 73.1133L306.652 73.2256C307.309 73.3414 307.959 73.4951 308.599 73.686C315.094 76.3096 318.254 77.8413 323.414 82.4888C324.924 83.9795 329.825 89.0972 329.508 92.3657C329.307 94.4966 326.733 97.4048 324.244 100.217L324.241 100.221C322.026 102.724 319.736 105.312 318.858 107.605C316.563 113.637 320.313 117.888 324.342 121.715C324.441 121.815 324.777 122.118 325.268 122.535C323.959 124.529 323.768 126.118 324.698 127.259C325.578 128.262 326.951 128.68 328.24 128.337C329.208 128.096 330.144 127.746 331.033 127.294ZM331.429 126.321L331.178 126.108L330.883 126.255C329.993 126.716 329.058 127.082 328.092 127.348C327.153 127.641 326.13 127.359 325.474 126.627C324.803 125.805 325.096 124.494 326.344 122.732L326.61 122.354L326.256 122.059C325.587 121.501 325.141 121.101 325.041 121C321.089 117.246 317.715 113.423 319.793 107.961C320.605 105.838 322.835 103.318 324.992 100.881L324.993 100.88L324.997 100.875C327.71 97.8097 330.272 94.9138 330.504 92.4609C330.854 88.8549 326.153 83.788 324.101 81.7612C318.828 77.0126 315.442 75.3715 308.929 72.7436C308.404 72.5874 307.912 72.4599 307.439 72.3588C307.488 72.2304 307.536 72.101 307.583 71.9721L307.685 71.6972C308.9 68.4306 311.668 64.5986 315.797 63.6376C316.019 63.5836 316.237 63.5149 316.449 63.4321C319.719 66.4388 322.817 69.7236 325.816 72.9043L325.843 72.9326L325.848 72.9383C328.338 75.5786 330.912 78.309 333.59 80.8926C334.007 81.3434 334.788 82.1095 335.49 82.7984L335.544 82.8511C336.111 83.4072 336.618 83.9043 336.816 84.1196C341.404 89.1556 344.327 92.0093 346.904 94.5254L346.919 94.5395C349.548 97.1045 351.817 99.3198 355.272 103.224C361.948 110.756 363.757 119.799 361.605 123.858L361.601 123.865C359.826 127.214 356.137 134.171 343.727 131.891C339.203 131.167 334.956 129.244 331.429 126.321Z" fill="black"/>
<path d="M337.996 127.552C337.753 127.551 337.545 127.376 337.504 127.136C337.151 124.541 338.794 122.092 341.329 121.434C341.503 121.395 341.685 121.452 341.806 121.583C341.927 121.715 341.969 121.901 341.915 122.071C341.862 122.241 341.722 122.371 341.548 122.41C339.521 122.935 338.208 124.893 338.49 126.967C338.514 127.113 338.474 127.261 338.378 127.374C338.283 127.487 338.143 127.552 337.996 127.552Z" fill="black"/>
<path d="M339.879 122.762C339.749 122.762 339.624 122.711 339.531 122.62C339.098 122.199 338.74 121.708 338.472 121.168C338.349 120.92 338.451 120.62 338.698 120.497C338.946 120.375 339.246 120.476 339.369 120.724C339.586 121.163 339.877 121.562 340.228 121.903C340.374 122.045 340.419 122.261 340.343 122.45C340.266 122.638 340.083 122.762 339.879 122.762Z" fill="black"/>
<path d="M338.274 124.338C338.232 124.338 338.19 124.332 338.15 124.322C337.642 124.192 337.157 123.984 336.714 123.705C336.562 123.61 336.473 123.441 336.48 123.262C336.487 123.083 336.588 122.922 336.747 122.839C336.905 122.755 337.096 122.763 337.247 122.859C337.603 123.083 337.991 123.25 338.398 123.353C338.642 123.416 338.801 123.65 338.77 123.9C338.738 124.15 338.526 124.338 338.274 124.338H338.274Z" fill="black"/>
<path d="M337.514 126.486L337.488 126.485L335.996 126.406C335.722 126.389 335.513 126.154 335.527 125.88C335.542 125.606 335.775 125.394 336.049 125.407L337.54 125.486C337.811 125.501 338.021 125.728 338.014 125.999C338.006 126.27 337.785 126.486 337.514 126.486V126.486Z" fill="black"/>
<path d="M321.627 118.103C321.454 118.103 321.293 118.014 321.202 117.867C321.111 117.72 321.102 117.536 321.179 117.381C322.308 115.172 324.569 113.77 327.05 113.742H327.103C327.379 113.743 327.602 113.968 327.601 114.244C327.6 114.52 327.375 114.743 327.099 114.742C327.083 114.74 327.066 114.74 327.05 114.742C324.948 114.766 323.032 115.953 322.075 117.825C321.991 117.995 321.817 118.103 321.627 118.103Z" fill="black"/>
<path d="M366.066 133.14C361.636 138.95 353.616 143.7 346.406 141.07C344.556 140.475 343.022 139.165 342.146 137.43C341.291 135.551 341.641 133.343 343.036 131.82C348.236 127.31 354.146 123.96 355.956 117.74C356.546 115.782 356.308 113.668 355.296 111.89C354.447 110.66 353.264 109.699 351.886 109.12C353.723 108.869 355.156 107.403 355.366 105.56C355.343 103.076 353.465 101.001 350.996 100.73C349.608 100.547 348.209 100.986 347.176 101.93C346.347 100.928 346.017 99.6048 346.276 98.3305C346.766 96.0693 348.814 94.4901 351.126 94.5905C355.276 94.8705 359.876 98.0505 363.156 101.36C365.797 103.999 367.927 107.105 369.436 110.52C372.646 117.61 370.786 126.95 366.066 133.14Z" fill="black"/>
<path fillRule="evenodd" clipRule="evenodd" d="M372.926 122.064C373.014 122.068 373.101 122.07 373.187 122.07C374.707 122.111 376.159 121.441 377.112 120.257C378.212 118.731 378.524 116.453 378.041 113.483C377.893 111.608 376.996 109.872 375.552 108.668C374.357 107.8 372.87 107.433 371.408 107.645C370.099 107.722 368.876 108.324 368.018 109.315L367.882 109.493L369.95 120.414L370.01 120.573C370.666 121.532 371.764 122.093 372.926 122.064ZM372.974 121.065C372.181 121.089 371.421 120.747 370.915 120.136L368.95 109.758C369.645 109.093 370.554 108.696 371.515 108.639C372.704 108.458 373.917 108.741 374.903 109.428C376.17 110.478 376.948 112.002 377.055 113.644C377.486 116.304 377.227 118.388 376.302 119.672C375.478 120.641 374.242 121.158 372.974 121.065Z" fill="black"/>
<path d="M377.469 112.539C384.765 112.966 392.939 117.756 398.499 123.783C410.791 137.105 418.268 159.783 418.788 180.184C418.934 185.908 418.659 191.743 416.751 197.141C414.842 202.54 411.109 207.502 405.872 209.817C399.868 212.472 384.193 212.013 377.072 202.48C371.193 194.609 370.13 184.085 372.767 174.621C375.403 165.158 380.445 156.512 383.221 147.089C385.996 137.665 384.779 126.511 377.633 118.237L377.469 112.539Z" fill="black"/>
<path d="M351.506 109.654C350.995 109.655 350.489 109.544 350.026 109.327C349.776 109.209 349.668 108.911 349.786 108.661C349.903 108.411 350.201 108.304 350.451 108.422C351.328 108.793 352.331 108.702 353.126 108.179C354.102 107.632 354.75 106.646 354.864 105.534C354.828 103.315 353.147 101.469 350.942 101.226C349.702 101.057 348.451 101.448 347.527 102.292C346.648 103.131 346.328 104.4 346.703 105.556C346.766 105.723 346.735 105.911 346.622 106.049C346.508 106.187 346.33 106.254 346.154 106.225C345.978 106.196 345.831 106.075 345.768 105.908C345.245 104.38 345.659 102.688 346.829 101.575C347.969 100.521 349.518 100.029 351.057 100.233C353.797 100.523 355.873 102.84 355.863 105.595C355.726 107.037 354.896 108.322 353.637 109.038C352.995 109.431 352.259 109.644 351.506 109.654Z" fill="black"/>
<path d="M351.927 106.677C351.728 106.677 351.547 106.558 351.468 106.375C351.389 106.192 351.426 105.98 351.563 105.834C351.862 105.397 351.841 104.816 351.51 104.402C351.137 103.902 350.54 103.62 349.917 103.651C349.784 103.662 349.653 103.618 349.552 103.531C349.452 103.443 349.392 103.318 349.385 103.185C349.376 103.053 349.42 102.922 349.508 102.822C349.595 102.722 349.718 102.661 349.851 102.653C350.818 102.6 351.748 103.038 352.322 103.819C352.939 104.617 352.926 105.735 352.291 106.519C352.197 106.62 352.065 106.677 351.927 106.677Z" fill="black"/>
<path d="M251.773 107.196C245.899 119.296 240.317 132.226 236.651 145.167C235.332 149.824 234.304 154.744 235.313 159.478C236.43 164.726 239.9 169.114 243.267 173.292C254.665 187.435 268.277 205.907 280.027 220.741C282.7 224.122 286.094 226.865 289.961 228.768C291.827 229.684 293.697 230.568 295.247 231.507C297.095 232.572 298.823 233.834 300.399 235.271C300.794 235.644 301.675 236.485 301.16 237.089C300.799 237.514 298.768 236.635 298.255 236.416C296.365 235.58 294.531 234.625 292.762 233.557C292.534 233.426 292.245 233.48 292.08 233.685C291.915 233.89 291.924 234.185 292.102 234.379C295.414 237.994 302.993 244.589 306.757 248.535C307.155 248.973 307.505 249.453 307.801 249.967C307.939 250.203 307.947 250.494 307.822 250.738C307.697 250.982 307.457 251.146 307.184 251.172C306.79 251.234 306.276 250.989 305.541 250.359C302.981 248.164 300.705 246.345 298.156 244.137C297.95 243.959 296.826 243.113 296.307 243.31C295.896 243.466 295.653 243.826 295.96 244.164C298.707 246.885 301.655 249 304.312 251.809C305.137 252.584 305.895 253.428 306.576 254.332C306.836 254.725 306.776 255.247 306.436 255.572C305.783 256.216 304.916 255.633 304.533 255.272C302.091 252.977 299.686 250.66 297.244 248.364C296.168 247.353 294.428 245.692 293.823 246.085C293.489 246.394 293.739 246.793 294.053 247.211C297.033 250.532 299.786 253.032 302.772 256.346C303.426 257.071 303.835 257.964 303.233 258.399C302.716 258.832 301.203 257.699 299.537 256.032C297.388 253.883 295.873 252.21 293.451 250.092C292.754 249.482 291.326 248.305 290.868 248.861C290.868 248.861 289.954 248.93 297.33 256.377C298.638 257.699 298.629 258.558 298.324 258.858C297.702 259.381 296.173 258.275 295.298 257.471L289.327 251.564C286.787 249.033 284.438 246.319 282.298 243.442C279.468 239.96 276.07 235.143 275.613 228.762C275.543 227.786 275.138 226.863 274.465 226.151C260.604 211.443 245.099 194.404 231.327 179.822C226.447 174.655 221.423 169.251 219.23 162.491C217.134 156.032 217.855 149.029 218.84 142.31C221.005 127.566 224.331 113.017 228.789 98.7969" fill="white"/>
<path d="M297.915 259.48C296.875 259.48 295.566 258.398 294.96 257.84L288.975 251.92C286.944 249.965 285.073 247.85 283.38 245.595C282.897 244.987 282.41 244.373 281.91 243.758C278.806 239.939 275.57 235.175 275.114 228.799C275.051 227.938 274.693 227.124 274.101 226.496C267.361 219.343 260.113 211.511 253.105 203.937C245.697 195.933 238.038 187.657 230.964 180.166C226.305 175.233 221.024 169.642 218.754 162.646C216.592 155.984 217.409 148.619 218.345 142.238C220.517 127.469 223.85 112.894 228.312 98.6484L229.267 98.9473C224.819 113.143 221.499 127.666 219.335 142.384C218.373 148.939 217.609 155.88 219.705 162.338C221.905 169.119 227.104 174.624 231.69 179.48C238.769 186.974 246.43 195.252 253.838 203.258C260.846 210.831 268.092 218.661 274.829 225.81C275.579 226.606 276.032 227.636 276.112 228.727C276.548 234.827 279.68 239.429 282.686 243.127C283.189 243.745 283.678 244.362 284.163 244.974C285.829 247.191 287.668 249.272 289.664 251.197L295.65 257.117C296.873 258.24 297.846 258.604 298.002 258.476C298.024 258.433 298.064 257.831 296.974 256.73C290.004 249.692 290.233 249.081 290.368 248.715L290.481 248.416L290.643 248.391C290.782 248.291 290.946 248.232 291.116 248.22C291.705 248.187 292.541 248.632 293.78 249.717C295.583 251.293 296.906 252.645 298.309 254.077C298.811 254.589 299.328 255.119 299.89 255.68C302.267 258.055 302.962 257.99 302.959 257.992C302.998 257.957 303.021 257.908 303.025 257.856C302.961 257.404 302.74 256.988 302.401 256.682C300.932 255.051 299.493 253.592 298.102 252.181C296.673 250.732 295.195 249.234 293.682 247.546C293.396 247.169 292.789 246.364 293.482 245.72C294.408 245.116 295.731 246.254 297.507 247.926L297.587 248.001C298.829 249.168 300.065 250.339 301.293 251.514C302.484 252.648 303.678 253.78 304.875 254.91C305.004 255.031 305.675 255.621 306.085 255.216C306.263 255.056 306.291 254.786 306.149 254.593C305.671 253.927 305.129 253.309 304.529 252.75C304.321 252.539 304.122 252.337 303.948 252.154C302.516 250.687 301.009 249.295 299.435 247.982C298.17 246.89 296.861 245.761 295.608 244.52C295.374 244.292 295.276 243.96 295.347 243.641C295.458 243.262 295.752 242.963 296.129 242.844C297.015 242.505 298.424 243.71 298.483 243.76C299.852 244.946 301.142 246.019 302.439 247.098C303.558 248.029 304.682 248.964 305.866 249.98C306.631 250.635 306.975 250.702 307.106 250.678C307.224 250.66 307.329 250.591 307.392 250.489C307.405 250.461 307.449 250.376 307.357 250.196C307.082 249.726 306.76 249.285 306.396 248.881C304.612 247.012 301.92 244.5 299.316 242.07C296.447 239.394 293.482 236.626 291.733 234.718C291.389 234.342 291.371 233.772 291.69 233.374C292.008 232.977 292.569 232.871 293.011 233.124L293.419 233.359C295.04 234.33 296.721 235.198 298.451 235.957C299.189 236.34 299.986 236.593 300.81 236.707C300.841 236.574 300.738 236.28 300.056 235.635C298.505 234.223 296.806 232.983 294.988 231.935C293.673 231.139 292.142 230.391 290.521 229.599L289.74 229.218C285.81 227.277 282.358 224.488 279.636 221.052C274.267 214.275 268.415 206.615 262.756 199.207C256.026 190.397 249.068 181.287 242.878 173.607C239.65 169.6 235.989 165.059 234.823 159.583C233.774 154.65 234.915 149.459 236.17 145.032C239.345 133.826 244.159 121.734 251.322 106.979L252.223 107.415C245.085 122.117 240.29 134.156 237.133 145.304C235.849 149.831 234.8 154.668 235.802 159.375C236.917 164.617 240.498 169.06 243.657 172.979C249.854 180.669 256.817 189.784 263.55 198.599C269.207 206.003 275.056 213.661 280.419 220.431C283.049 223.751 286.383 226.445 290.181 228.32L290.959 228.701C292.602 229.502 294.152 230.26 295.506 231.08C297.384 232.163 299.14 233.447 300.741 234.909C301.144 235.288 302.368 236.443 301.541 237.415C301.107 237.921 300.17 237.778 298.09 236.89C296.313 236.111 294.587 235.221 292.921 234.226L292.513 233.992C294.192 235.921 297.144 238.675 299.998 241.338C302.612 243.779 305.317 246.301 307.118 248.191C307.55 248.664 307.927 249.182 308.245 249.738C308.455 250.109 308.469 250.559 308.283 250.942C308.076 251.331 307.697 251.599 307.262 251.666C306.699 251.748 306.068 251.469 305.216 250.74C304.034 249.727 302.914 248.794 301.799 247.868C300.497 246.784 299.202 245.706 297.828 244.516C297.442 244.166 296.976 243.914 296.472 243.782C296.41 243.803 296.356 243.84 296.314 243.889C297.54 245.027 298.835 246.144 300.088 247.224C301.688 248.559 303.219 249.975 304.675 251.466C304.844 251.645 305.037 251.841 305.24 252.046C305.897 252.66 306.488 253.339 307.004 254.075C307.384 254.665 307.293 255.443 306.786 255.929C306.405 256.238 305.916 256.382 305.428 256.327C304.94 256.273 304.494 256.025 304.191 255.639C302.988 254.508 301.793 253.375 300.604 252.239C299.373 251.067 298.139 249.897 296.901 248.73L296.821 248.655C296.041 247.853 295.166 247.149 294.214 246.561C294.287 246.682 294.367 246.799 294.453 246.912C295.924 248.548 297.393 250.038 298.814 251.479C300.213 252.898 301.659 254.365 303.144 256.012C303.676 256.525 303.99 257.223 304.02 257.961C303.986 258.301 303.806 258.609 303.526 258.805C303.052 259.201 302.103 259.306 299.183 256.387C298.618 255.823 298.099 255.292 297.594 254.777C296.206 253.359 294.896 252.02 293.122 250.469C292.661 250.038 292.15 249.663 291.601 249.351C293.465 251.72 295.498 253.951 297.685 256.027C298.416 256.613 298.886 257.464 298.992 258.395C299.017 258.688 298.912 258.978 298.705 259.187C298.497 259.396 298.209 259.503 297.915 259.48L297.915 259.48Z" fill="black"/>
<path d="M203.452 0.88815C216.08 -0.22897 232.66 5.66329 243.801 10.1118C285.882 26.9131 308.991 48.2989 316.49 57.0113C317.386 57.9309 317.977 59.1042 318.182 60.3717C318.279 61.614 317.377 62.7386 315.679 63.1565C311.64 64.0876 308.646 67.6843 307.22 71.5214C307.019 72.3106 306.632 73.0401 306.091 73.6485C305.286 74.2168 304.314 74.5005 303.329 74.4548C294.428 75.0021 289.387 75.532 281.764 80.0061C278.304 82.0369 274.249 86.1759 270.798 88.2227C265.915 91.119 262.279 92.2803 255.705 92.83C250.766 92.9332 245.831 92.465 240.999 91.4346C227.127 88.319 218.691 86.7904 206.628 83.3591C203.657 82.5138 198.433 80.1869 196.086 78.1769C191.579 74.3157 191.11 69.6457 191.19 64.3749C191.27 59.1041 193.356 53.4512 193.119 48.1851C192.853 42.2973 190.837 36.6539 189.365 30.9469C187.892 25.24 185.906 17.309 187.799 11.7274C189.691 6.14565 194.337 1.69444 203.452 0.88815Z" fill="white"/>
<path fillRule="evenodd" clipRule="evenodd" d="M240.889 91.9243C245.308 92.8695 249.814 93.3465 254.332 93.3477C254.809 93.3477 255.282 93.3418 255.747 93.3296C262.289 92.7827 266.009 91.6465 271.053 88.6548C272.982 87.4125 274.82 86.0345 276.553 84.5312C278.273 83.0361 280.099 81.6684 282.017 80.4389C289.602 75.9873 294.552 75.497 303.36 74.9555C305.34 75.2439 307.199 73.9305 307.589 71.9678L307.688 71.6972C308.904 68.4277 311.671 64.5952 315.798 63.6435C317.67 63.1831 318.801 61.8838 318.68 60.3349C318.48 58.957 317.846 57.6789 316.869 56.687C312.941 52.123 290.968 28.4067 243.987 9.6489C232.678 5.13425 216.17 -0.738797 203.408 0.391583C192.933 1.31833 188.88 6.98142 187.325 11.5683C185.35 17.3919 187.474 25.6249 188.88 31.0731L188.88 31.0737C189.228 32.4228 189.607 33.769 189.986 35.1152L189.987 35.1199C191.182 39.3724 192.418 43.7692 192.619 48.209C192.622 51.1019 192.302 53.9862 191.667 56.8086C191.135 59.2975 190.808 61.8261 190.69 64.3686C190.615 69.2866 190.945 74.4331 195.761 78.5586C198.272 80.7094 203.7 83.0478 206.492 83.8418C215.334 86.3569 222.128 87.8296 230.73 89.6933C233.842 90.3677 237.17 91.0889 240.889 91.9243ZM188.272 11.8896C190.395 5.62693 195.518 2.09372 203.496 1.38767L203.496 1.38763C216.045 0.274353 232.403 6.10101 243.616 10.5776C290.381 29.249 312.209 52.8066 316.111 57.3393C316.944 58.1734 317.494 59.2483 317.684 60.412C317.765 61.4638 316.952 62.33 315.567 62.6708C311.059 63.7099 308.057 67.8349 306.75 71.3491L306.649 71.6284C306.528 72.3887 306.102 73.0669 305.47 73.5064C304.838 73.9459 304.054 74.1088 303.299 73.9575C294.585 74.4931 289.278 75.0185 281.511 79.5766C279.547 80.8317 277.677 82.2295 275.917 83.7587C274.223 85.2289 272.428 86.5774 270.543 87.7944C265.648 90.6977 262.033 91.8007 255.693 92.3315C250.794 92.4384 245.899 91.9743 241.108 90.9487C237.386 90.1127 234.056 89.3911 230.942 88.7162L230.933 88.7143C222.353 86.8549 215.575 85.3858 206.765 82.8798C203.634 81.9892 198.612 79.6835 196.412 77.7988C191.921 73.9526 191.616 69.2587 191.69 64.3842C191.808 61.8975 192.129 59.4245 192.651 56.9902C193.302 54.0935 193.626 51.133 193.618 48.164C193.412 43.6074 192.16 39.1528 190.948 34.8447L190.948 34.8437C190.572 33.5047 190.195 32.1656 189.849 30.8237C188.473 25.4907 186.393 17.4306 188.272 11.8896Z" fill="black"/>
<path fillRule="evenodd" clipRule="evenodd" d="M213.942 20.2145C213.942 22.3868 215.703 24.1478 217.875 24.148C220.047 24.1455 221.807 22.3858 221.809 20.2143C221.809 18.0421 220.048 16.2812 217.876 16.2813C215.703 16.2813 213.942 18.0423 213.942 20.2145ZM215.166 19.0923C215.62 17.9961 216.689 17.2813 217.875 17.2812C219.495 17.2831 220.807 18.5951 220.809 20.2143C220.809 21.4008 220.095 22.4704 218.999 22.9246C217.902 23.3787 216.641 23.1278 215.802 22.289C214.963 21.4501 214.712 20.1884 215.166 19.0923Z" fill="black"/>
<path fillRule="evenodd" clipRule="evenodd" d="M235.97 42.3143C236.579 43.784 238.013 44.7421 239.604 44.7418C241.775 44.7388 243.534 42.9793 243.537 40.8082C243.537 39.2173 242.578 37.7831 241.108 37.1744C239.638 36.5657 237.947 36.9024 236.822 38.0275C235.697 39.1526 235.361 40.8445 235.97 42.3143ZM236.894 39.6855C237.348 38.5893 238.418 37.8748 239.604 37.8751C241.223 37.8775 242.535 39.1894 242.537 40.8082C242.537 41.9947 241.822 43.0645 240.726 43.5185C239.63 43.9726 238.368 43.7215 237.529 42.8825C236.69 42.0434 236.439 40.7816 236.894 39.6855Z" fill="black"/>
<path d="M270.2 25.8892C268.79 25.8872 267.489 25.1304 266.79 23.9057C266.092 22.681 266.102 21.1759 266.818 19.9609L267.679 20.4678C266.869 21.8631 267.337 23.6506 268.728 24.4692C270.118 25.2877 271.909 24.8301 272.736 23.4448L273.597 23.9526C272.888 25.1545 271.596 25.8913 270.2 25.8892Z" fill="black"/>
<path fillRule="evenodd" clipRule="evenodd" d="M203.642 53.0195C203.642 55.1919 205.403 56.9528 207.575 56.9526C209.746 56.9499 211.506 55.1903 211.508 53.019C211.508 50.8467 209.747 49.0858 207.575 49.0859C205.402 49.0861 203.641 50.8472 203.642 53.0195ZM204.865 51.8966C205.319 50.8005 206.389 50.0858 207.575 50.0859C209.194 50.0879 210.506 51.4 210.508 53.019C210.508 54.2055 209.794 55.2752 208.698 55.7293C207.601 56.1834 206.34 55.9324 205.501 55.0935C204.662 54.2545 204.411 52.9928 204.865 51.8966Z" fill="black"/>
<path fillRule="evenodd" clipRule="evenodd" d="M295.858 54.5252C296.467 55.9949 297.902 56.9531 299.493 56.9528C301.664 56.9497 303.423 55.1902 303.425 53.0192C303.425 51.4282 302.467 49.994 300.997 49.3853C299.527 48.7766 297.835 49.1134 296.71 50.2385C295.586 51.3636 295.249 53.0555 295.858 54.5252ZM296.782 51.8964C297.236 50.8003 298.306 50.0858 299.493 50.0861C301.112 50.0885 302.423 51.4003 302.425 53.0192C302.426 54.2057 301.711 55.2754 300.615 55.7295C299.518 56.1835 298.257 55.9325 297.418 55.0934C296.579 54.2544 296.328 52.9925 296.782 51.8964Z" fill="black"/>
<path d="M240.581 54.8203C234.54 65.7176 229.374 77.0784 225.135 88.7951C224.403 90.8174 223.703 93.0798 224.54 95.0607C225.324 96.9151 227.238 97.9902 229.042 98.8846C234.511 101.596 240.169 103.906 245.973 105.798C249.811 107.048 254.067 108.1 257.794 106.551C261.347 105.076 263.579 101.587 265.504 98.2561C271.48 87.9101 276.688 77.1385 281.084 66.0284" fill="white"/>
<path d="M240.15 54.5668C235.684 62.6446 231.688 70.9733 228.182 79.5115C226.598 83.3756 224.321 87.7049 223.758 91.8758C223.293 95.3168 225.242 97.4361 228.11 98.9701C231.896 100.935 235.801 102.661 239.802 104.14C243.675 105.624 247.771 107.284 251.925 107.723C260.568 108.636 264.395 101.359 268.025 94.815C273.145 85.5616 277.667 75.9905 281.566 66.1602C281.804 65.5622 280.837 65.3026 280.602 65.8944C277.544 73.5966 274.101 81.14 270.284 88.4961C268.5 91.9292 266.655 95.3412 264.682 98.6703C262.73 101.965 260.349 105.418 256.445 106.47C252.43 107.552 248.153 106.028 244.37 104.735C240.368 103.367 236.439 101.797 232.597 100.03C231.005 99.3484 229.451 98.5832 227.94 97.7377C225.233 96.1239 224.241 93.9726 224.992 90.8781C226.056 87.2297 227.385 83.6639 228.969 80.2095C232.488 71.6018 236.51 63.208 241.013 55.0716C241.324 54.5077 240.461 54.0027 240.15 54.5668L240.15 54.5668Z" fill="black"/>
<path d="M261.778 103.606C260.593 102.849 259.903 101.516 259.968 100.111C260.033 98.7063 260.843 97.4429 262.093 96.7977C263.342 96.1525 264.841 96.2236 266.024 96.9843L265.485 97.8261C264.603 97.2602 263.486 97.2079 262.555 97.6889C261.624 98.17 261.02 99.1112 260.971 100.158C260.922 101.205 261.435 102.199 262.317 102.765L261.778 103.606Z" fill="black"/>
<path fillRule="evenodd" clipRule="evenodd" d="M235.97 86.0408C236.579 87.5106 238.013 88.4687 239.604 88.4684C241.775 88.4654 243.534 86.7058 243.537 84.5348C243.537 82.9439 242.578 81.5096 241.108 80.9009C239.638 80.2923 237.947 80.629 236.822 81.7541C235.697 82.8792 235.361 84.5711 235.97 86.0408ZM236.894 83.412C237.348 82.3159 238.418 81.6014 239.604 81.6017C241.223 81.6041 242.535 82.916 242.537 84.5348C242.537 85.7213 241.822 86.791 240.726 87.2451C239.63 87.6992 238.368 87.4481 237.529 86.609C236.69 85.77 236.439 84.5082 236.894 83.412Z" fill="black"/>
<path fillRule="evenodd" clipRule="evenodd" d="M267.611 66.1755C267.611 68.3477 269.372 70.1087 271.544 70.1089C273.716 70.1064 275.476 68.3467 275.478 66.1753C275.478 64.003 273.717 62.2421 271.545 62.2422C269.372 62.2422 267.611 64.0032 267.611 66.1755ZM268.611 66.1758C268.611 64.5557 269.924 63.2423 271.544 63.2422V63.2422C273.164 63.2441 274.476 64.5561 274.478 66.1753C274.478 67.7953 273.165 69.1088 271.545 69.1089C269.925 69.109 268.611 67.7958 268.611 66.1758Z" fill="black"/>
</svg>
