<svg width="465" height="496" viewBox="0 0 465 496" fill="none" xmlns="http://www.w3.org/2000/svg">
<path d="M153.002 110.883C175.431 129.018 207.897 149.698 235.645 157.571C251.929 162.192 281.491 165.225 300.47 165.808C301.178 165.83 301.85 166.126 302.343 166.633C302.837 167.141 303.114 167.821 303.117 168.529L303.142 173.677C303.144 174.329 302.914 174.961 302.492 175.458C302.071 175.956 301.487 176.287 300.843 176.393C279.985 179.844 278.804 180.201 258.19 180.564C244.639 180.803 228.264 179.297 215.164 175.819C207.039 173.432 199.147 170.313 191.584 166.502" fill="white"/>
<path d="M255.312 181.088C241.317 181.088 226.462 179.334 215.035 176.301C206.878 173.906 198.955 170.776 191.364 166.95L191.804 166.051C199.336 169.849 207.197 172.956 215.291 175.335C227.424 178.555 243.46 180.328 258.182 180.062C277.723 179.718 279.619 179.404 297.762 176.395L300.761 175.898C301.288 175.814 301.768 175.544 302.113 175.137C302.458 174.729 302.645 174.212 302.642 173.678L302.616 168.529C302.616 167.95 302.39 167.394 301.987 166.979C301.583 166.563 301.033 166.322 300.454 166.306C280.968 165.708 251.583 162.611 235.508 158.05C207.149 150.003 174.132 128.608 152.688 111.27L153.316 110.492C174.684 127.769 207.567 149.083 235.781 157.088C251.778 161.627 281.058 164.71 300.485 165.306C301.323 165.33 302.119 165.679 302.704 166.28C303.289 166.881 303.616 167.686 303.616 168.524L303.642 173.673C303.647 174.445 303.376 175.193 302.878 175.782C302.379 176.371 301.686 176.762 300.924 176.884L297.925 177.381C279.717 180.401 277.814 180.717 258.199 181.062C257.242 181.079 256.28 181.088 255.312 181.088Z" fill="black"/>
<path d="M303.142 167.324C304.56 167.358 313.544 166.695 317.223 166.549C320.92 166.403 323.133 166.473 324.966 168.308C327.006 170.352 327.97 176.392 326.086 181.218C325.744 182.173 325.177 183.031 324.432 183.718C322.655 185.133 317.177 184.894 314.911 184.568C307.899 183.56 302.725 175.129 302.725 175.129L303.142 167.324Z" fill="white"/>
<path d="M318.826 185.32C317.493 185.322 316.162 185.236 314.84 185.063C307.679 184.033 302.515 175.742 302.299 175.39L302.217 175.257L302.668 166.813L303.153 166.824C303.915 166.846 306.918 166.653 310.104 166.454C312.77 166.288 315.527 166.116 317.204 166.049C320.925 165.904 323.325 165.958 325.319 167.954C327.519 170.156 328.513 176.374 326.552 181.4C326.182 182.438 325.561 183.369 324.744 184.109C323.553 185.057 321.076 185.32 318.826 185.32ZM303.232 174.995C303.913 176.045 308.752 183.177 314.982 184.073C317.404 184.422 322.572 184.56 324.121 183.327C324.795 182.692 325.308 181.907 325.62 181.036C327.416 176.434 326.554 170.605 324.612 168.661C322.964 167.01 321.007 166.901 317.243 167.048C315.579 167.114 312.827 167.286 310.167 167.452C307.427 167.624 304.816 167.787 303.616 167.819L303.232 174.995Z" fill="black"/>
<path d="M462.935 402.377C462.341 401.273 461.44 400.365 460.34 399.763C459.241 399.162 457.99 398.893 456.741 398.988C455.372 399.186 454.022 399.496 452.704 399.916C451.377 400.304 450.071 400.704 449.121 400.909C442.332 402.301 435.288 401.763 428.789 399.355C433.83 391.143 438.149 382.51 441.696 373.551C455.133 338.617 462.895 300.898 461.622 281.234C455.797 286.682 449.164 289.361 441.642 286.717C427.969 281.904 414.511 268.241 406.201 256.37C394.017 238.941 383.829 221.932 386.16 200.963C386.388 198.918 386.98 196.929 387.908 195.092C382.901 203.456 374.418 210.741 364.576 216.461C361.773 218.09 358.663 219.121 355.442 219.491C352.221 219.86 348.959 219.56 345.86 218.608C342.76 217.656 339.891 216.074 337.433 213.961C334.975 211.847 332.98 209.248 331.574 206.327C327.289 197.35 324.222 187.841 322.454 178.052C322.012 175.548 320.897 164.212 315.127 162.694C312.143 161.91 307.218 162.83 303.937 169.694C302.778 173.017 301.985 176.456 301.57 179.95C300.545 179.195 300.093 172.915 296.737 172.785C292.56 172.634 287.779 177.609 285.696 179.843C277.052 189.092 267.771 209.241 268.861 225.666C269.076 231.402 270.202 237.066 272.195 242.448C247.848 248.049 228.185 254.708 207.54 264.604C193.089 272.774 173.922 286.879 161.555 306.219C157.669 312.28 154.363 318.694 151.68 325.375C149.992 324.541 148.381 323.559 146.867 322.439C146.9 322.424 146.933 322.406 146.964 322.385C150.925 320.41 154.41 315.986 152.349 311.356C149.964 305.981 141.676 306.586 139.636 311.863C139.067 313.288 138.865 314.833 139.048 316.356C139.231 317.88 139.793 319.333 140.683 320.583C137.92 320.605 135.287 319.515 133.992 316.871C132.783 314.442 133.053 311.442 133.657 308.884C134.132 306.856 130.938 306.337 130.463 308.356C129.642 311.841 129.599 315.856 131.488 319.018C133.905 323.055 138.805 324.382 143.251 323.594C145.424 325.553 147.875 327.179 150.525 328.418C149.374 331.575 148.394 334.793 147.59 338.056C145.884 345.309 145.112 352.751 145.291 360.201H145.28C138.643 361.798 131.11 362.608 125.099 359.629C124.494 359.327 117.803 355.895 115.289 355.668C114.102 355.611 112.919 355.836 111.836 356.326C110.753 356.816 109.803 357.556 109.062 358.485C106.321 362.165 108.943 366.05 110.594 367.799C111.748 369 113.072 370.025 114.523 370.842C123.955 376.238 138.751 374.112 145.96 370.799C146.651 377.096 147.79 383.335 149.37 389.469C143.273 393.365 133.269 396.689 124.559 395.837C123.534 395.739 121.894 395.502 120.221 395.318C118.596 395.072 116.95 395 115.311 395.103C112.429 395.513 110.001 397.855 109.602 399.991C108.76 404.395 112.181 407.578 114.447 408.733C116.177 409.602 118.03 410.203 119.941 410.514C131.628 412.575 146.554 405.808 152.565 400.056C153.158 401.751 153.774 403.423 154.421 405.053C170.685 446.106 203.18 474.921 246.974 480.565C258.036 481.979 288.211 482.691 299.273 481.288C341.103 475.989 372.422 461.485 397.913 437.57C405.241 444.315 418.623 449.333 429.501 447.995C430.224 447.919 430.926 447.801 431.617 447.66C432.934 447.396 434.224 447.01 435.469 446.505C436.778 445.984 437.865 445.024 438.544 443.79C439.223 442.555 439.452 441.123 439.193 439.739C438.898 438.519 438.256 437.411 437.344 436.549C436.432 435.687 435.29 435.108 434.056 434.882C432.902 434.75 431.741 434.707 430.581 434.753C429.868 434.764 429.145 434.785 428.465 434.807C427.613 434.839 426.825 434.85 426.199 434.828C419.333 434.507 412.697 432.255 407.054 428.332C408.511 426.756 409.935 425.137 411.36 423.497C414.964 419.299 418.914 414.345 422.001 409.985C428.616 413.838 444.556 416.374 455.392 412.737C457.418 412.088 459.327 411.119 461.047 409.866C462.178 409.028 462.985 407.824 463.329 406.459C463.674 405.094 463.534 403.651 462.935 402.377ZM142.981 312.295C144.708 309.672 149.413 310.633 149.672 313.827C149.699 314.679 149.519 315.525 149.146 316.292C148.774 317.059 148.221 317.724 147.536 318.23C146.534 319.013 145.401 319.613 144.19 320C142.172 317.745 141.158 315.058 142.981 312.295Z" fill="white"/>
<path d="M332.047 228.345C321.768 228.345 314.098 223.018 309.198 212.45C305.386 204.225 304.146 197.029 302.712 188.696C302.543 187.717 302.37 186.721 302.193 185.706C302.005 184.634 301.854 183.987 301.698 183.312C301.51 182.502 301.315 181.663 301.037 180.042L302.102 179.859C302.374 181.45 302.564 182.272 302.749 183.068C302.91 183.764 303.062 184.42 303.256 185.519C303.436 186.536 303.606 187.533 303.775 188.513C305.197 196.77 306.426 203.901 310.177 211.996C315.745 224.005 325.036 228.968 337.788 226.742C342.504 225.919 354.346 221.776 361.448 217.405L362.015 218.324C354.693 222.829 342.886 226.948 337.974 227.806C336.017 228.156 334.034 228.336 332.047 228.345Z" fill="black"/>
<path d="M386.16 200.963C383.832 221.937 394.012 238.937 406.204 256.367C414.513 268.245 427.964 281.908 441.638 286.721C453.985 291.068 461.981 282.786 462.994 276.705C464.59 267.13 464.032 260.626 459.848 247.034C454.24 228.812 433.563 199.68 416.482 187.934C404.415 179.636 387.651 187.535 386.16 200.963Z" fill="white"/>
<path d="M385.621 200.963C383.334 223.147 395.458 243.404 408.477 260.372C415.083 268.982 422.983 277.009 432.261 282.738C439.662 287.308 449.303 291.186 457.318 285.776C463.556 281.564 464.426 274.379 464.356 267.375C464.267 258.435 461.626 249.14 458.179 240.949C454.424 232.366 449.756 224.212 444.255 216.629C438.665 208.54 432.254 201.052 425.125 194.282C418.642 188.25 411.44 182.682 402.057 184.31C397.901 184.976 394.067 186.949 391.111 189.944C388.155 192.939 386.232 196.8 385.621 200.963C385.533 201.65 386.613 201.643 386.701 200.963C387.747 192.86 394.418 186.706 402.344 185.351C411.069 183.859 417.805 189.023 423.869 194.589C436.799 206.626 447.395 220.947 455.126 236.831C458.847 244.442 461.411 252.566 462.733 260.934C463.327 264.774 463.425 268.674 463.026 272.539C462.646 276.229 462.064 279.524 459.545 282.391C452.833 290.026 442.652 287.388 434.883 283.032C425.956 278.026 418.327 270.707 411.835 262.864C404.612 254.159 398.422 244.647 393.387 234.518C388.22 224.008 385.491 212.694 386.701 200.963C386.772 200.273 385.692 200.278 385.621 200.963Z" fill="black"/>
<path d="M439.156 234.341C440.824 233.137 440.416 229.723 438.245 226.717C436.075 223.71 432.963 222.249 431.295 223.453C429.627 224.657 430.035 228.07 432.206 231.077C434.376 234.084 437.488 235.545 439.156 234.341Z" fill="black"/>
<path d="M423.796 246.638C425.464 245.434 425.057 242.02 422.886 239.014C420.715 236.007 417.604 234.545 415.936 235.75C414.268 236.954 414.676 240.367 416.846 243.374C419.017 246.381 422.129 247.842 423.796 246.638Z" fill="black"/>
<path d="M364.159 268.649C361.762 268.65 359.423 267.907 357.466 266.522C355.508 265.137 354.028 263.18 353.231 260.919C352.433 258.658 352.356 256.205 353.011 253.898C353.666 251.592 355.02 249.545 356.887 248.041C358.754 246.537 361.042 245.649 363.435 245.499C365.828 245.35 368.208 245.946 370.248 247.207C372.287 248.467 373.886 250.329 374.822 252.536C375.759 254.743 375.988 257.187 375.478 259.529C374.911 262.111 373.481 264.422 371.423 266.081C369.365 267.739 366.802 268.645 364.159 268.649ZM364.156 246.556C362.174 246.556 360.233 247.117 358.556 248.174C356.879 249.231 355.535 250.74 354.68 252.528C353.825 254.316 353.492 256.31 353.722 258.278C353.951 260.247 354.733 262.111 355.976 263.654C357.22 265.197 358.874 266.358 360.749 267.001C362.624 267.644 364.643 267.743 366.572 267.288C368.501 266.832 370.261 265.84 371.651 264.427C373.04 263.013 374.001 261.235 374.423 259.299C374.756 257.765 374.742 256.176 374.381 254.649C374.02 253.122 373.321 251.695 372.336 250.473C371.352 249.251 370.106 248.265 368.691 247.587C367.275 246.909 365.726 246.557 364.156 246.556Z" fill="black"/>
<path d="M365.551 257.539C367.857 257.539 369.726 255.669 369.726 253.363C369.726 251.057 367.857 249.188 365.551 249.188C363.245 249.188 361.375 251.057 361.375 253.363C361.375 255.669 363.245 257.539 365.551 257.539Z" fill="black"/>
<path d="M419.034 329.976C415.99 335.642 410.087 338.966 403.687 340.79C398.928 342.15 392.96 342.7 388.449 341.502C383.463 340.175 378.973 336.398 377.657 331.412C376.34 326.437 378.984 320.425 383.895 318.882C385.949 318.353 388.089 318.243 390.187 318.558C390.661 318.602 391.125 318.655 391.579 318.699C394.266 319.022 396.532 319.443 398.723 319.799C399.921 319.994 401.097 320.166 402.317 320.285C404.561 320.523 406.823 320.552 409.073 320.371C410.497 320.263 412.041 320.069 413.767 319.767C417.89 319.033 419.617 321.332 420.178 323.512C420.611 325.734 420.203 328.038 419.034 329.976Z" fill="black"/>
<path d="M398.722 319.796C398.638 320.965 398.494 322.128 398.29 323.282C398.155 324.124 397.838 324.927 397.362 325.635C396.894 326.154 396.289 326.529 395.617 326.719C394.945 326.908 394.232 326.902 393.563 326.703C392.84 326.562 392.195 326.162 391.747 325.577C391.3 324.993 391.082 324.264 391.135 323.53C391.145 322.958 391.145 322.386 391.21 321.825C391.297 321.048 391.459 319.613 391.577 318.695C393.983 318.883 396.371 319.251 398.722 319.796Z" fill="white"/>
<path d="M409.072 320.367C409.072 321.306 409.28 324.561 408.09 325.915C407.72 326.245 407.285 326.495 406.813 326.647C406.341 326.8 405.842 326.852 405.349 326.8C404.898 326.761 404.461 326.621 404.072 326.389C403.683 326.157 403.352 325.84 403.104 325.461C402.643 324.591 402.41 323.619 402.424 322.634C402.381 322.084 402.349 320.961 402.316 320.281C404.504 320.447 406.787 320.426 409.072 320.367Z" fill="white"/>
<path d="M320.775 225.393C314.116 225.393 305.005 218.959 300.758 209.914C296.511 200.869 295.463 187.784 300.791 178.984C300.791 178.984 303.244 190.607 306.355 203.939C309.968 219.424 320.775 225.393 320.775 225.393Z" fill="black"/>
<path d="M122.585 358.285C119.897 362.472 117.21 366.659 114.523 370.847C113.072 370.029 111.748 369.004 110.594 367.803C108.943 366.055 106.321 362.17 109.062 358.49C109.803 357.56 110.753 356.82 111.836 356.331C112.919 355.841 114.102 355.615 115.289 355.673C117.862 356.083 120.336 356.969 122.585 358.285Z" fill="black"/>
<path d="M120.221 395.324C120.135 400.385 120.042 405.45 119.941 410.519C118.03 410.208 116.178 409.607 114.448 408.738C112.181 407.584 108.76 404.4 109.602 399.997C110.001 397.86 112.43 395.518 115.311 395.108C116.951 395.005 118.597 395.077 120.221 395.324Z" fill="black"/>
<path d="M366.426 253.36C367.16 253.36 367.755 252.765 367.755 252.032C367.755 251.298 367.16 250.703 366.426 250.703C365.692 250.703 365.098 251.298 365.098 252.032C365.098 252.765 365.692 253.36 366.426 253.36Z" fill="white"/>
<path d="M386.025 198.816C381.152 205.427 373.905 211.619 364.828 216.894C361.965 218.558 358.789 219.611 355.5 219.989C352.211 220.367 348.879 220.06 345.714 219.088C342.548 218.116 339.618 216.5 337.108 214.342C334.597 212.184 332.56 209.529 331.124 206.546C326.812 197.53 323.731 187.976 321.962 178.139C321.919 177.893 321.869 177.562 321.808 177.164C321.284 173.691 319.89 164.466 315 163.179C311.824 162.345 307.37 163.675 304.388 169.912C303.255 173.183 302.476 176.566 302.067 180.004L301.976 180.872L301.273 180.354C300.705 179.681 300.319 178.874 300.154 178.009C299.511 176.047 298.631 173.36 296.717 173.286C296.662 173.284 296.606 173.283 296.549 173.283C292.499 173.283 287.666 178.467 286.062 180.185C277.208 189.659 268.304 209.729 269.36 225.634C269.567 231.322 270.683 236.94 272.665 242.276L272.863 242.809L272.308 242.937C247.501 248.644 228.196 255.259 207.756 265.056C196.495 271.425 175.528 285.299 161.976 306.49C158.106 312.524 154.815 318.909 152.145 325.561L151.944 326.066L151.458 325.825C149.742 324.977 148.106 323.979 146.567 322.841L145.92 322.356L146.742 321.939C150.715 319.958 153.761 315.757 151.892 311.56C151.385 310.469 150.561 309.555 149.528 308.94C148.494 308.324 147.298 308.034 146.097 308.108C144.821 308.097 143.569 308.466 142.502 309.167C141.435 309.868 140.6 310.87 140.103 312.046C139.565 313.397 139.374 314.862 139.548 316.306C139.723 317.75 140.257 319.127 141.102 320.311L141.603 321.078L140.687 321.085C137.392 321.067 134.798 319.655 133.543 317.091C132.492 314.98 132.366 312.179 133.17 308.77C133.208 308.645 133.217 308.514 133.199 308.385C133.181 308.256 133.135 308.132 133.064 308.023C132.994 307.913 132.9 307.82 132.79 307.75C132.681 307.68 132.557 307.634 132.428 307.616C132.275 307.571 132.114 307.558 131.955 307.577C131.797 307.596 131.644 307.647 131.506 307.727C131.367 307.807 131.247 307.914 131.151 308.042C131.056 308.17 130.987 308.316 130.95 308.471C130.403 310.795 129.802 315.22 131.918 318.762C134.001 322.242 138.416 323.942 143.165 323.103L143.411 323.059L143.593 323.23C145.73 325.153 148.139 326.749 150.742 327.968L151.15 328.165L150.995 328.591C149.851 331.731 148.876 334.931 148.076 338.176C146.378 345.388 145.611 352.788 145.792 360.195L145.799 360.703H145.34C136.63 362.79 129.937 362.585 124.877 360.079L124.748 360.013C120.17 357.701 116.706 356.299 115.244 356.168C114.143 356.12 113.046 356.333 112.042 356.787C111.038 357.242 110.155 357.926 109.464 358.785C106.725 362.462 109.915 366.352 110.959 367.457C112.078 368.621 113.362 369.616 114.77 370.409C124.144 375.772 138.798 373.543 145.752 370.346L146.383 370.056L146.458 370.747C147.145 377.02 148.28 383.235 149.855 389.346L149.945 389.697L149.64 389.891C143.627 393.734 133.529 397.218 124.511 396.336C123.974 396.285 123.267 396.195 122.475 396.095C121.755 396.005 120.965 395.905 120.167 395.817C118.583 395.581 116.98 395.508 115.382 395.599C112.647 395.988 110.44 398.233 110.093 400.085C109.284 404.316 112.736 407.301 114.674 408.289C116.359 409.135 118.163 409.719 120.024 410.022C131.658 412.077 146.448 405.22 152.219 399.696L152.78 399.159L153.037 399.892C153.682 401.734 154.288 403.362 154.886 404.87C171.687 447.279 205.276 474.688 247.039 480.071C258.424 481.526 288.39 482.166 299.211 480.794C340.147 475.608 371.402 461.758 397.571 437.207L397.91 436.888L398.252 437.203C405.972 444.311 419.382 448.739 429.44 447.5C430.087 447.432 430.764 447.325 431.517 447.172C432.804 446.914 434.064 446.537 435.281 446.044C436.481 445.56 437.478 444.676 438.101 443.542C438.724 442.408 438.936 441.093 438.7 439.82C438.427 438.702 437.835 437.687 436.996 436.898C436.158 436.109 435.108 435.581 433.975 435.377C432.851 435.253 431.719 435.213 430.588 435.255C429.879 435.265 429.158 435.287 428.481 435.308C427.559 435.342 426.784 435.35 426.181 435.33C419.221 435.012 412.494 432.731 406.777 428.749L406.29 428.424L406.687 427.993C408.221 426.335 409.719 424.625 410.982 423.17C414.865 418.649 418.733 413.738 421.593 409.697L421.858 409.324L422.254 409.554C428.373 413.118 444.263 415.947 455.233 412.264C457.208 411.632 459.069 410.688 460.746 409.469C461.783 408.695 462.522 407.587 462.837 406.332C463.153 405.078 463.026 403.752 462.478 402.58C461.934 401.566 461.106 400.734 460.096 400.184C459.085 399.635 457.936 399.392 456.79 399.487C455.451 399.683 454.131 399.987 452.842 400.398L452.237 400.577C451.112 400.908 450.049 401.221 449.227 401.398C442.348 402.805 435.212 402.261 428.626 399.829L428.041 399.626L428.362 399.096C433.398 390.917 437.704 382.309 441.23 373.373C454.261 339.491 462.441 301.616 461.124 281.268L462.122 281.204C463.448 301.68 455.241 339.729 442.164 373.732C438.694 382.531 434.471 391.012 429.54 399.083C435.789 401.29 442.522 401.753 449.014 400.422C449.802 400.252 450.847 399.943 451.954 399.617L452.564 399.438C453.912 399.008 455.294 398.691 456.695 398.491C458.048 398.39 459.401 398.684 460.589 399.338C461.778 399.992 462.751 400.976 463.391 402.173C464.034 403.551 464.182 405.109 463.809 406.584C463.437 408.059 462.567 409.36 461.346 410.267C459.584 411.552 457.628 412.546 455.551 413.212C444.382 416.961 428.82 414.277 422.148 410.642C419.298 414.636 415.526 419.415 411.739 423.824C410.579 425.16 409.223 426.709 407.821 428.239C413.275 431.926 419.642 434.034 426.219 434.33C426.796 434.352 427.545 434.343 428.447 434.308C429.132 434.287 429.858 434.265 430.573 434.255C431.761 434.211 432.951 434.256 434.132 434.389C435.469 434.636 436.705 435.265 437.691 436.2C438.677 437.136 439.37 438.337 439.686 439.659C439.962 441.155 439.711 442.701 438.977 444.033C438.242 445.366 437.07 446.403 435.658 446.97C434.384 447.486 433.064 447.882 431.715 448.152C430.931 448.311 430.223 448.424 429.553 448.493C419.391 449.747 405.884 445.354 397.918 438.251C371.657 462.757 340.317 476.595 299.336 481.786C293.027 482.384 286.691 482.639 280.355 482.55C268.019 482.55 253.939 481.961 246.912 481.063C204.776 475.633 170.895 447.996 153.957 405.239C153.431 403.917 152.902 402.505 152.346 400.938C146.07 406.505 131.448 413.056 119.854 411.008C117.895 410.688 115.995 410.072 114.221 409.18C112.051 408.074 108.19 404.713 109.11 399.899C109.578 397.397 112.328 395.024 115.241 394.609C116.923 394.501 118.612 394.572 120.279 394.823C121.08 394.911 121.876 395.012 122.6 395.103C123.38 395.202 124.076 395.29 124.606 395.34C133.233 396.191 142.895 392.915 148.796 389.242C147.313 383.419 146.225 377.503 145.539 371.533C138.169 374.66 123.674 376.655 114.274 371.277C112.782 370.436 111.421 369.381 110.233 368.146C109.053 366.896 105.457 362.489 108.661 358.187C109.454 357.191 110.472 356.397 111.633 355.873C112.793 355.348 114.061 355.108 115.333 355.172C117.501 355.367 122.444 357.729 125.198 359.121L125.323 359.183C130.1 361.552 136.472 361.755 144.786 359.806C144.637 352.448 145.416 345.101 147.105 337.938C147.877 334.803 148.811 331.71 149.902 328.672C147.436 327.474 145.145 325.946 143.092 324.13C138.027 324.939 133.321 323.053 131.059 319.276C129.357 316.426 128.972 312.508 129.976 308.243C130.042 307.959 130.164 307.691 130.336 307.455C130.508 307.22 130.725 307.021 130.975 306.872C131.226 306.723 131.504 306.625 131.792 306.586C132.081 306.546 132.375 306.565 132.656 306.642C132.914 306.689 133.16 306.789 133.377 306.936C133.594 307.082 133.779 307.272 133.918 307.494C134.058 307.716 134.151 307.964 134.189 308.223C134.228 308.482 134.213 308.747 134.144 309C133.394 312.176 133.494 314.749 134.44 316.649C134.945 317.64 135.707 318.477 136.645 319.075C137.583 319.673 138.664 320.009 139.776 320.049C139.042 318.794 138.605 317.387 138.5 315.937C138.395 314.488 138.624 313.033 139.169 311.685C139.738 310.325 140.697 309.163 141.926 308.348C143.155 307.534 144.598 307.102 146.073 307.108C147.47 307.039 148.856 307.386 150.055 308.107C151.254 308.827 152.212 309.888 152.806 311.154C154.83 315.698 151.892 320.193 147.806 322.505C148.961 323.311 150.168 324.039 151.419 324.684C154.077 318.156 157.329 311.885 161.133 305.951C174.801 284.578 195.921 270.6 207.294 264.171C227.68 254.397 246.915 247.785 271.531 242.09C269.639 236.822 268.571 231.295 268.362 225.701C267.289 209.529 276.335 189.129 285.332 179.503C288.235 176.389 292.535 172.283 296.545 172.283C296.616 172.283 296.685 172.284 296.754 172.287C299.365 172.388 300.371 175.457 301.104 177.698C301.163 177.877 301.227 178.072 301.294 178.267C301.734 175.273 302.468 172.33 303.486 169.48C306.73 162.694 311.692 161.276 315.254 162.213C320.781 163.666 322.246 173.363 322.797 177.014C322.856 177.403 322.905 177.726 322.947 177.966C324.699 187.712 327.752 197.178 332.024 206.111C333.4 208.97 335.353 211.514 337.759 213.583C340.165 215.651 342.973 217.2 346.007 218.131C349.04 219.063 352.233 219.357 355.386 218.995C358.538 218.634 361.582 217.624 364.326 216.03C374.826 209.928 382.833 202.599 387.48 194.837L388.355 195.32L386.025 198.816Z" fill="black"/>
<path d="M320.926 172.5C318.376 178.787 317.722 187.445 320.775 196.755C323.698 205.671 331.66 214.271 339.491 215.553C335.883 212.838 332.985 209.293 331.042 205.217C327.883 198.083 325.351 190.687 323.477 183.113C322.467 178.218 320.926 172.5 320.926 172.5Z" fill="black"/>
<path d="M350.82 410.542C350.765 410.937 350.632 411.317 350.429 411.66C350.225 412.003 349.955 412.301 349.635 412.539C349.315 412.776 348.951 412.947 348.564 413.042C348.176 413.137 347.774 413.154 347.381 413.093L341.95 412.493C341.246 412.383 340.605 412.025 340.141 411.485C339.677 410.944 339.421 410.255 339.42 409.542C339.24 383.242 335.53 356.602 324.49 332.762C318.25 319.272 310.321 305.123 299.431 295.033C288.27 285.073 266.331 269.573 222.99 278.803C205.06 282.623 186.5 290.732 164.7 287.102C148.061 284.322 130.44 273.523 124.831 249.092C123.422 243.724 122.535 238.232 122.181 232.693C134.681 233.513 154.19 230.673 165.851 227.663C173.271 225.743 184.531 220.542 190.76 213.312C211.78 215.533 232 219.542 252.71 224.292C265.621 227.262 278.791 230.323 290.131 237.183C301.851 244.263 314.65 254.982 323.141 265.722C356.431 309.102 358.44 356.013 350.82 410.542Z" fill="black"/>
<path d="M81.677 89.3981C81.4422 89.3303 81.1957 89.3126 80.9536 89.346C80.7114 89.3795 80.479 89.4635 80.2714 89.5924C80.0637 89.7214 79.8855 89.8926 79.7482 90.0948C79.6108 90.297 79.5175 90.5258 79.4742 90.7664C73.789 122.785 73.9489 157.211 81.0327 188.892C83.4148 199.546 86.6407 210.314 93.2761 218.983C99.8938 227.629 109.845 231.698 121.352 232.628C133.804 233.635 153.926 230.742 165.846 227.658C174.855 225.326 189.524 218.166 193.994 208.41C198.198 198.815 198.926 188.054 196.054 177.979C189.014 154.732 177.352 136.234 161.197 118.096C145.38 100.337 119.354 86.5495 95.5484 84.1568C95.1638 84.1187 94.7775 84.2112 94.4517 84.4192C94.126 84.6273 93.8797 84.9388 93.7525 85.3038C92.4541 89.0742 87.188 90.5187 84.5418 90.0623C83.5759 89.8909 82.6197 89.6692 81.677 89.3981Z" fill="white"/>
<path d="M126.827 233.328C124.861 233.328 123.007 233.264 121.311 233.126C108.694 232.107 99.1282 227.451 92.8782 219.287C85.9534 210.239 82.7581 198.9 80.5442 189.001C73.6087 157.982 73.0677 123.982 78.9817 90.6792C79.0373 90.3698 79.1573 90.0755 79.3337 89.8153C79.5102 89.5551 79.7393 89.3349 80.0062 89.1688C80.2731 89.0027 80.5719 88.8945 80.8832 88.8511C81.1946 88.8077 81.5116 88.8302 81.8137 88.917C82.739 89.1842 83.6778 89.4021 84.6262 89.5698C86.9094 89.9638 92.0344 88.7563 93.2796 85.1406C93.4438 84.6694 93.7617 84.2671 94.1822 83.9984C94.6027 83.7297 95.1013 83.6102 95.5979 83.6592C118.982 86.0093 145.494 99.7148 161.57 117.763C179.144 137.493 189.926 156.02 196.532 177.834C199.467 188.023 198.729 198.919 194.448 208.619C189.812 218.735 174.877 225.836 165.97 228.142C155.273 230.91 138.906 233.328 126.827 233.328ZM81.1947 89.831C80.9589 89.8309 80.7278 89.8968 80.5277 90.0215C80.3805 90.1126 80.2543 90.234 80.1576 90.3775C80.0608 90.521 79.9955 90.6834 79.9661 90.854C74.0755 124.028 74.6126 157.892 81.5208 188.784C83.7103 198.576 86.8655 209.786 93.6732 218.679C99.7425 226.608 109.069 231.134 121.391 232.129C133.398 233.101 153.361 230.373 165.72 227.174C174.109 225.002 189.079 217.932 193.54 208.202C197.67 198.714 198.39 188.089 195.577 178.13C189.013 156.456 178.295 138.044 160.824 118.428C144.903 100.554 118.651 86.9809 95.4984 84.6543C95.2261 84.6289 94.9531 84.695 94.7225 84.842C94.4919 84.989 94.3168 85.2087 94.2249 85.4663C92.7786 89.6631 87.0931 91.0107 84.4564 90.5551C83.4731 90.3812 82.4998 90.1555 81.5404 89.8789C81.4279 89.847 81.3115 89.8309 81.1947 89.831Z" fill="black"/>
<path d="M109.241 37.884C109.461 38.714 109.601 39.324 109.631 39.484C110.701 44.924 111.251 50.254 106.151 53.664C101.871 56.534 91.3307 56.804 88.5507 60.024C86.4506 62.444 87.1007 68.634 87.6906 72.014C88.6954 76.9916 90.6658 81.7241 93.4906 85.944C91.8507 89.244 87.0406 90.494 84.5406 90.064C83.6571 89.9112 82.7824 89.7109 81.9205 89.464C80.5306 82.204 79.8707 74.844 78.4705 67.414C78.3206 66.2939 77.7805 63.574 77.7005 62.904C76.0606 49.484 74.8206 47.114 73.6905 36.644C72.5606 26.124 74.1106 17.474 79.3106 13.354C82.9905 10.434 90.1106 7.99401 99.1206 17.244C102.929 21.2868 105.788 26.1274 107.491 31.414C107.491 31.414 110.211 31.464 111.141 31.564C113.44 31.804 114.4 32.794 114.431 34.384C114.461 36.7339 111.511 37.3639 109.241 37.884Z" fill="white"/>
<path d="M85.6033 90.6465C85.219 90.6486 84.8351 90.6183 84.4559 90.5557C83.5546 90.3997 82.6624 90.1955 81.783 89.9439L81.4871 89.8594L81.4295 89.5572C80.7264 85.8824 80.2 82.1162 79.6912 78.4742C79.1893 74.8863 78.6707 71.1763 77.9793 67.5059C77.8963 66.8882 77.7068 65.8477 77.5359 64.9034C77.3816 64.0537 77.2429 63.2804 77.2049 62.9624C76.3777 56.2032 75.6424 52.1919 74.9939 48.6529C74.3563 45.1797 73.7547 41.899 73.1932 36.6969C71.9539 25.1607 73.9617 16.9527 78.9998 12.961C81.823 10.7208 89.4715 6.61971 99.4793 16.8941C103.252 20.9129 106.116 25.6969 107.875 30.921C108.659 30.9386 110.453 30.9864 111.194 31.066C113.636 31.3204 114.893 32.4332 114.93 34.3731C114.964 36.9429 112.121 37.7291 109.854 38.255C110.004 38.8438 110.097 39.2608 110.122 39.3902C111.197 44.8521 111.798 50.4888 106.429 54.0787C104.383 55.4503 101.008 56.2388 97.743 57.0015C94.0955 57.8536 90.323 58.7349 88.9295 60.3497C86.7918 62.8131 87.8172 69.8336 88.1824 71.9268C89.1745 76.842 91.1225 81.5145 93.9158 85.6788L94.0633 85.9156L93.9383 86.1656C92.4441 89.1709 88.4588 90.6465 85.6033 90.6465ZM82.3543 89.0645C83.117 89.2725 83.8963 89.4463 84.6248 89.5704C86.9988 89.9747 91.3162 88.7691 92.9148 85.962C90.1325 81.7623 88.1922 77.0621 87.2019 72.1226C86.7049 69.2754 85.8133 62.4146 88.1726 59.6954C89.7791 57.835 93.5369 56.9571 97.5154 56.0279C100.692 55.2857 103.977 54.5181 105.872 53.2481C110.734 49.9971 110.192 44.9273 109.14 39.5796C109.11 39.419 108.972 38.8228 108.758 38.0108L108.626 37.5108L109.258 37.3663C111.35 36.8873 113.955 36.2916 113.93 34.3893C113.913 33.443 113.573 32.3194 111.089 32.0602C110.189 31.9635 107.509 31.9137 107.482 31.9132L107.101 31.9063L107.007 31.5377C105.331 26.3331 102.515 21.5685 98.7625 17.5919C89.6619 8.24709 82.8631 11.1714 79.6209 13.7447C74.866 17.5127 72.9871 25.4121 74.1873 36.5899C74.7449 41.7549 75.3162 44.8677 75.9773 48.4722C76.6287 52.0254 77.3669 56.0523 78.197 62.8423C78.2341 63.1519 78.3709 63.9014 78.5203 64.7251C78.6941 65.6861 78.8855 66.7451 78.9666 67.3472C79.658 71.0142 80.1785 74.7364 80.6814 78.3355C81.1746 81.8648 81.6844 85.5108 82.3543 89.0645Z" fill="black"/>
<path d="M94.0205 28.9131C94.0118 28.0037 94.2883 27.1145 94.811 26.3703C95.3338 25.6261 96.0766 25.0644 96.9351 24.7642C97.8429 24.4528 97.4529 23.0034 96.5363 23.3178C95.3643 23.7108 94.3457 24.4627 93.6249 25.467C92.9041 26.4713 92.5177 27.677 92.5205 28.9131C92.5273 29.1075 92.6092 29.2917 92.7491 29.4269C92.8891 29.562 93.076 29.6376 93.2705 29.6376C93.4651 29.6376 93.652 29.562 93.7919 29.4269C93.9318 29.2917 94.0138 29.1075 94.0205 28.9131Z" fill="black"/>
<path d="M98.8739 29.781C99.4283 29.781 99.8777 29.3316 99.8777 28.7772C99.8777 28.2228 99.4283 27.7734 98.8739 27.7734C98.3195 27.7734 97.8701 28.2228 97.8701 28.7772C97.8701 29.3316 98.3195 29.781 98.8739 29.781Z" fill="black"/>
<path d="M102.818 43.824C103.398 44.8052 104.242 45.6041 105.254 46.13C106.266 46.6559 107.404 46.8878 108.541 46.7993C109.178 46.7488 109.184 45.7483 108.541 45.7993C107.58 45.8867 106.613 45.7002 105.753 45.2613C104.893 44.8224 104.175 44.1491 103.681 43.3193C103.612 43.2095 103.503 43.131 103.377 43.1002C103.251 43.0694 103.118 43.0888 103.006 43.1543C102.894 43.2198 102.811 43.3262 102.776 43.4512C102.741 43.5761 102.756 43.7098 102.818 43.824Z" fill="black"/>
<path d="M79.2215 32.4371C80.6256 32.1525 79.3996 29.5026 79.1293 28.1493C78.2516 23.7536 80.171 20.7643 82.926 18.3648C85.1108 16.5469 87.8372 15.5056 90.6776 15.4042C93.2648 15.4849 95.8347 15.8576 98.3382 16.5152C97.8335 11.2598 96.1719 4.68179 91.6355 1.3847C88.6703 -0.7704 85.7406 -0.17915 84.1325 1.58128C83.1133 2.69712 82.9598 4.382 82.0278 5.57174C80.7498 7.20316 78.4395 7.46489 76.503 8.20302C72.0827 9.88792 69.246 14.5738 68.9114 19.2924C68.605 24.342 69.9325 29.3561 72.6974 33.5926L79.2215 32.4371Z" fill="black"/>
<path d="M79.0821 31.9833C78.4171 31.4038 77.5617 31.09 76.6797 31.1019C75.7978 31.1138 74.9512 31.4506 74.3021 32.0479C73.6778 32.6719 73.2 33.4269 72.9033 34.2582C72.6065 35.0896 72.4983 35.9765 72.5864 36.8548C72.6421 38.5373 73.2887 40.1465 74.4127 41.3998C74.9795 42.0147 75.6897 42.4798 76.4799 42.7538C77.2701 43.0277 78.1157 43.102 78.9416 42.97C79.7629 42.8117 80.5128 42.3965 81.0829 41.7844C81.653 41.1723 82.0138 40.3948 82.1134 39.5643L79.0821 31.9833Z" fill="white"/>
<path d="M78.1085 43.5492C77.3453 43.5365 76.5925 43.37 75.8951 43.0596C75.1978 42.7493 74.5702 42.3015 74.0499 41.743C72.8413 40.4055 72.1458 38.6829 72.087 36.8812C71.9892 35.9272 72.1078 34.9634 72.4339 34.0615C72.76 33.1597 73.2854 32.343 73.9708 31.6722C74.7143 30.9851 75.6877 30.6005 76.7001 30.5938C77.7125 30.5872 78.6908 30.9589 79.4434 31.6361C79.5347 31.732 79.5842 31.8602 79.5811 31.9926C79.578 32.1249 79.5226 32.2507 79.427 32.3423C79.3314 32.4339 79.2034 32.4838 79.071 32.4813C78.9386 32.4787 78.8127 32.4237 78.7208 32.3284C78.1458 31.8415 77.4124 31.582 76.6592 31.5991C75.906 31.6162 75.1851 31.9087 74.6329 32.4212C74.0659 32.9959 73.6332 33.6889 73.3656 34.4505C73.098 35.2121 73.0022 36.0235 73.085 36.8265C73.1311 38.3911 73.7296 39.8889 74.7745 41.0545C75.284 41.6076 75.9218 42.0268 76.6317 42.2752C77.3415 42.5235 78.1016 42.5932 78.8448 42.4783C79.5596 42.3435 80.213 41.9851 80.7108 41.4547C81.2086 40.9244 81.525 40.2495 81.6143 39.5277C81.6248 39.3962 81.6869 39.2741 81.787 39.1881C81.8871 39.1022 82.017 39.0592 82.1487 39.0686C82.2803 39.078 82.4028 39.139 82.4897 39.2383C82.5765 39.3377 82.6206 39.4673 82.6123 39.599C82.5028 40.5383 82.0976 41.4186 81.4551 42.1126C80.8127 42.8065 79.9662 43.2783 79.0381 43.4598C78.7318 43.5196 78.4205 43.5495 78.1085 43.5492Z" fill="black"/>
<path d="M77.4334 34.1233C74.3749 33.7515 73.5316 38.2579 76.2734 39.29C76.8093 39.4917 77.0409 38.6329 76.5097 38.4329C74.6377 37.7283 75.4477 34.7707 77.4334 35.0121C77.9999 35.081 77.9949 34.1916 77.4334 34.1233Z" fill="black"/>
<path d="M340.587 411.633C337.386 417.391 336.338 424.101 337.632 430.561C337.666 430.774 337.744 430.978 337.863 431.159C338.028 431.316 338.224 431.436 338.44 431.511C338.655 431.585 338.884 431.613 339.11 431.591L343.018 431.757C343.206 431.765 343.394 431.734 343.569 431.668C343.745 431.601 343.906 431.499 344.041 431.368C344.176 431.238 344.284 431.081 344.357 430.908C344.43 430.734 344.467 430.548 344.465 430.36L344.451 428.465C344.445 427.605 344.518 426.592 345.244 426.133C346.376 425.417 347.74 426.788 348.066 428.087C348.391 429.386 348.393 430.93 349.436 431.77C350.339 432.318 351.412 432.511 352.449 432.311L366.959 431.289C367.724 431.236 370.167 431.261 370.469 430.88C371.371 429.747 371.524 425.942 368.845 424.053C368.029 423.512 367.103 423.156 366.135 423.01L355.164 421.022C353.173 420.661 350.805 419.972 350.281 418.017C349.901 416.598 350.275 413.816 349.093 412.316L340.587 411.633Z" fill="black"/>
<path d="M163.147 285.358C163.066 285.358 162.987 285.338 162.916 285.301C162.798 285.24 162.71 285.134 162.67 285.008C162.63 284.881 162.642 284.744 162.704 284.626C163.292 283.485 163.701 282.259 163.917 280.993C163.94 280.863 164.014 280.747 164.123 280.672C164.231 280.596 164.365 280.567 164.495 280.59C164.625 280.613 164.741 280.686 164.817 280.794C164.893 280.902 164.923 281.036 164.901 281.166C164.667 282.533 164.225 283.856 163.59 285.089C163.548 285.17 163.484 285.238 163.406 285.286C163.328 285.333 163.238 285.358 163.147 285.358ZM164.608 277.593C164.48 277.593 164.358 277.544 164.265 277.457C164.172 277.369 164.117 277.25 164.109 277.123C164.024 275.819 163.834 274.524 163.54 273.251C163.525 273.187 163.523 273.12 163.535 273.056C163.546 272.991 163.569 272.929 163.604 272.874C163.639 272.818 163.685 272.77 163.739 272.732C163.792 272.694 163.853 272.667 163.917 272.653C163.981 272.638 164.047 272.637 164.111 272.648C164.176 272.659 164.238 272.683 164.293 272.718C164.349 272.753 164.397 272.798 164.435 272.852C164.473 272.905 164.5 272.966 164.514 273.03C164.821 274.356 165.019 275.705 165.107 277.064C165.111 277.129 165.102 277.195 165.08 277.257C165.059 277.319 165.025 277.376 164.982 277.426C164.938 277.475 164.885 277.515 164.826 277.543C164.767 277.572 164.703 277.588 164.637 277.592L164.608 277.593ZM162.911 269.799C162.807 269.799 162.706 269.767 162.622 269.707C162.537 269.647 162.473 269.562 162.439 269.464C162.026 268.287 161.529 267.05 160.962 265.79C160.908 265.669 160.904 265.531 160.951 265.407C160.998 265.283 161.092 265.183 161.213 265.128C161.334 265.074 161.472 265.07 161.596 265.117C161.72 265.164 161.82 265.258 161.875 265.379C162.453 266.665 162.961 267.929 163.382 269.134C163.404 269.196 163.413 269.262 163.41 269.327C163.406 269.393 163.39 269.457 163.361 269.516C163.333 269.575 163.293 269.628 163.244 269.672C163.195 269.716 163.138 269.749 163.076 269.771C163.023 269.79 162.967 269.799 162.911 269.799ZM159.651 262.488C159.56 262.488 159.471 262.463 159.393 262.416C159.316 262.369 159.252 262.302 159.21 262.222C158.607 261.088 157.948 259.924 157.249 258.762C157.215 258.706 157.192 258.643 157.182 258.578C157.172 258.513 157.175 258.447 157.191 258.383C157.207 258.319 157.235 258.259 157.274 258.206C157.313 258.153 157.362 258.108 157.419 258.075C157.475 258.041 157.538 258.018 157.603 258.008C157.668 257.999 157.734 258.002 157.798 258.018C157.862 258.034 157.922 258.062 157.975 258.102C158.028 258.141 158.072 258.19 158.106 258.247C158.814 259.424 159.482 260.604 160.092 261.753C160.123 261.811 160.142 261.875 160.149 261.94C160.155 262.006 160.148 262.071 160.129 262.134C160.11 262.197 160.079 262.255 160.037 262.306C159.995 262.357 159.943 262.398 159.885 262.429C159.813 262.468 159.733 262.488 159.651 262.488ZM155.536 255.62C155.453 255.62 155.372 255.599 155.3 255.561C155.227 255.522 155.165 255.465 155.12 255.396C154.394 254.306 153.629 253.203 152.847 252.12C152.809 252.066 152.781 252.006 152.766 251.942C152.75 251.878 152.748 251.812 152.758 251.747C152.769 251.682 152.792 251.62 152.826 251.564C152.861 251.508 152.906 251.459 152.959 251.421C153.012 251.382 153.073 251.355 153.137 251.339C153.201 251.324 153.267 251.322 153.332 251.332C153.397 251.343 153.459 251.366 153.515 251.401C153.571 251.435 153.619 251.48 153.658 251.534C154.448 252.628 155.22 253.741 155.952 254.843C156.002 254.918 156.031 255.006 156.035 255.096C156.039 255.186 156.019 255.276 155.976 255.356C155.933 255.435 155.87 255.502 155.792 255.549C155.715 255.595 155.626 255.62 155.536 255.62ZM126.332 254.962C126.202 254.962 126.077 254.912 125.984 254.821C125.89 254.73 125.836 254.607 125.832 254.477C125.828 254.347 125.875 254.221 125.963 254.125C126.051 254.029 126.173 253.971 126.302 253.963C127.615 253.858 128.92 253.68 130.212 253.43C130.343 253.406 130.477 253.435 130.586 253.51C130.695 253.585 130.77 253.7 130.794 253.83C130.818 253.961 130.79 254.095 130.715 254.204C130.641 254.314 130.526 254.389 130.396 254.414C129.062 254.673 127.715 254.855 126.361 254.961L126.332 254.962ZM134.206 253.523C134.085 253.523 133.968 253.479 133.876 253.4C133.785 253.32 133.726 253.21 133.71 253.09C133.693 252.97 133.721 252.848 133.788 252.747C133.855 252.646 133.956 252.573 134.073 252.541C135.361 252.185 136.627 251.773 137.835 251.318C137.959 251.271 138.097 251.276 138.217 251.331C138.338 251.385 138.432 251.486 138.479 251.609C138.525 251.733 138.521 251.871 138.467 251.991C138.413 252.112 138.313 252.206 138.189 252.253C136.952 252.72 135.657 253.141 134.338 253.505C134.295 253.517 134.25 253.523 134.206 253.523ZM141.675 250.681C141.563 250.681 141.454 250.643 141.366 250.573C141.277 250.504 141.215 250.406 141.189 250.297C141.163 250.188 141.175 250.073 141.222 249.971C141.269 249.869 141.349 249.786 141.45 249.735C142.623 249.145 143.76 248.483 144.852 247.754C144.907 247.717 144.968 247.692 145.032 247.679C145.096 247.666 145.163 247.666 145.227 247.679C145.291 247.691 145.353 247.717 145.407 247.753C145.462 247.789 145.509 247.836 145.545 247.891C145.582 247.945 145.607 248.006 145.62 248.071C145.633 248.135 145.633 248.201 145.621 248.266C145.608 248.33 145.583 248.391 145.546 248.446C145.51 248.5 145.463 248.547 145.409 248.584C144.283 249.337 143.111 250.019 141.901 250.627C141.831 250.663 141.754 250.681 141.675 250.681ZM150.843 249.123C150.767 249.123 150.693 249.106 150.624 249.073C150.556 249.039 150.496 248.991 150.45 248.931C149.325 247.493 148.483 246.5 148.157 246.121C148.082 246.099 148.014 246.058 147.961 246C147.915 245.96 147.877 245.909 147.85 245.853C147.824 245.797 147.81 245.736 147.809 245.673C147.807 245.611 147.819 245.55 147.843 245.492C147.867 245.435 147.903 245.383 147.948 245.34L148.282 245.71L147.997 245.296L148.373 244.953L148.759 245.289C148.769 245.3 149.767 246.435 151.237 248.315C151.295 248.389 151.33 248.477 151.34 248.57C151.35 248.664 151.334 248.758 151.293 248.842C151.252 248.926 151.188 248.997 151.108 249.047C151.029 249.097 150.937 249.123 150.843 249.123Z" fill="white"/>
<path d="M345.938 409.556C345.904 409.556 345.87 409.553 345.837 409.545C345.772 409.532 345.711 409.506 345.657 409.469C345.603 409.433 345.556 409.385 345.52 409.33C345.484 409.275 345.459 409.214 345.447 409.15C345.435 409.085 345.435 409.019 345.449 408.954C345.47 408.847 345.492 408.733 345.512 408.613C345.523 408.548 345.547 408.486 345.582 408.43C345.617 408.374 345.662 408.326 345.716 408.287C345.769 408.249 345.83 408.222 345.894 408.207C345.958 408.193 346.025 408.191 346.09 408.202C346.155 408.213 346.217 408.237 346.272 408.272C346.328 408.307 346.376 408.353 346.414 408.406C346.452 408.46 346.479 408.521 346.494 408.585C346.508 408.649 346.51 408.716 346.499 408.781C346.476 408.912 346.453 409.038 346.427 409.158C346.404 409.27 346.343 409.371 346.254 409.444C346.164 409.516 346.053 409.556 345.938 409.556ZM346.406 405.218C346.396 405.218 346.385 405.218 346.375 405.217C346.309 405.213 346.245 405.196 346.186 405.167C346.127 405.138 346.074 405.098 346.031 405.049C345.987 405 345.954 404.942 345.933 404.88C345.912 404.818 345.903 404.752 345.907 404.687C345.978 403.54 346.035 402.202 346.075 400.707C346.078 400.577 346.133 400.453 346.226 400.363C346.319 400.272 346.445 400.221 346.575 400.221H346.589C346.654 400.223 346.719 400.237 346.779 400.264C346.839 400.291 346.893 400.329 346.938 400.377C346.983 400.425 347.019 400.481 347.042 400.542C347.066 400.604 347.077 400.669 347.075 400.735C347.034 402.24 346.976 403.59 346.905 404.749C346.897 404.876 346.841 404.995 346.748 405.083C346.656 405.17 346.533 405.218 346.406 405.218ZM346.644 397.221H346.64C346.575 397.221 346.51 397.207 346.449 397.182C346.389 397.156 346.334 397.119 346.288 397.072C346.242 397.025 346.205 396.97 346.181 396.909C346.156 396.848 346.144 396.783 346.144 396.717C346.15 395.965 346.153 395.193 346.153 394.4L346.148 392.723C346.147 392.59 346.199 392.463 346.293 392.369C346.386 392.274 346.513 392.221 346.645 392.22H346.648C346.78 392.22 346.907 392.272 347.001 392.365C347.094 392.459 347.147 392.585 347.148 392.717L347.153 394.4C347.153 395.195 347.15 395.97 347.144 396.725C347.143 396.857 347.09 396.983 346.996 397.076C346.903 397.169 346.776 397.221 346.644 397.221ZM346.605 389.216C346.474 389.216 346.348 389.165 346.254 389.073C346.161 388.98 346.107 388.855 346.105 388.724C346.085 387.422 346.057 386.086 346.023 384.727C346.021 384.661 346.033 384.596 346.056 384.535C346.08 384.473 346.115 384.417 346.16 384.37C346.206 384.322 346.26 384.284 346.32 384.257C346.38 384.23 346.445 384.216 346.51 384.214H346.523C346.654 384.214 346.779 384.265 346.872 384.356C346.966 384.447 347.02 384.571 347.023 384.702C347.057 386.065 347.085 387.403 347.105 388.708C347.107 388.841 347.056 388.969 346.964 389.064C346.872 389.159 346.745 389.214 346.613 389.216H346.605ZM346.409 381.212C346.279 381.212 346.154 381.162 346.061 381.072C345.968 380.981 345.913 380.859 345.909 380.729C345.865 379.41 345.815 378.078 345.76 376.733C345.755 376.6 345.803 376.471 345.893 376.374C345.983 376.276 346.107 376.218 346.24 376.212C346.371 376.211 346.499 376.26 346.595 376.349C346.692 376.438 346.751 376.561 346.76 376.692C346.815 378.037 346.865 379.375 346.909 380.696C346.913 380.828 346.865 380.957 346.774 381.054C346.683 381.151 346.558 381.208 346.425 381.212H346.409ZM346.082 373.213C345.953 373.213 345.83 373.164 345.737 373.075C345.644 372.987 345.589 372.866 345.583 372.738C345.517 371.406 345.447 370.074 345.372 368.744C345.364 368.611 345.41 368.481 345.498 368.382C345.586 368.284 345.71 368.224 345.842 368.216C345.909 368.209 345.976 368.216 346.039 368.236C346.103 368.256 346.161 368.29 346.211 368.334C346.26 368.379 346.3 368.433 346.328 368.494C346.355 368.554 346.369 368.62 346.37 368.687C346.445 370.018 346.515 371.355 346.581 372.689C346.584 372.754 346.574 372.82 346.552 372.882C346.53 372.944 346.496 373.001 346.452 373.049C346.408 373.098 346.355 373.137 346.295 373.165C346.236 373.193 346.172 373.209 346.106 373.212L346.082 373.213ZM345.627 365.219C345.5 365.219 345.377 365.171 345.285 365.084C345.192 364.997 345.136 364.878 345.128 364.751C345.04 363.41 344.947 362.078 344.849 360.763C344.841 360.631 344.885 360.502 344.971 360.402C345.058 360.303 345.18 360.241 345.312 360.232C345.443 360.222 345.573 360.264 345.673 360.35C345.774 360.436 345.836 360.557 345.847 360.689C345.945 362.007 346.038 363.34 346.126 364.687C346.134 364.819 346.09 364.949 346.002 365.049C345.915 365.149 345.791 365.21 345.659 365.218C345.648 365.219 345.637 365.219 345.627 365.219ZM345.031 357.235C344.906 357.235 344.785 357.188 344.693 357.103C344.601 357.018 344.544 356.902 344.534 356.778C344.418 355.42 344.296 354.094 344.168 352.797C344.155 352.665 344.195 352.534 344.279 352.431C344.363 352.328 344.485 352.264 344.617 352.25C344.748 352.241 344.878 352.282 344.98 352.365C345.082 352.449 345.148 352.569 345.164 352.7C345.292 353.997 345.414 355.328 345.53 356.692C345.541 356.824 345.5 356.955 345.414 357.056C345.329 357.158 345.207 357.221 345.075 357.233C345.06 357.234 345.046 357.235 345.031 357.235ZM344.24 349.268C344.117 349.268 343.999 349.222 343.908 349.141C343.816 349.059 343.758 348.946 343.744 348.825C343.587 347.443 343.42 346.119 343.247 344.864C343.238 344.799 343.242 344.732 343.258 344.669C343.275 344.605 343.304 344.546 343.343 344.493C343.383 344.441 343.432 344.397 343.489 344.364C343.546 344.331 343.608 344.309 343.673 344.3C343.804 344.284 343.937 344.319 344.042 344.399C344.147 344.479 344.217 344.596 344.237 344.727C344.412 345.99 344.579 347.322 344.738 348.711C344.753 348.843 344.715 348.976 344.632 349.079C344.55 349.183 344.429 349.25 344.298 349.265C344.278 349.267 344.259 349.268 344.24 349.268ZM343.13 341.338C343.013 341.338 342.899 341.297 342.809 341.221C342.719 341.145 342.659 341.04 342.639 340.924C342.398 339.542 342.149 338.312 341.898 337.269L341.858 337.104C341.825 336.972 341.843 336.832 341.91 336.713C341.977 336.594 342.087 336.505 342.217 336.465C342.278 336.447 342.342 336.441 342.406 336.448C342.469 336.454 342.53 336.474 342.586 336.505C342.641 336.536 342.69 336.578 342.729 336.629C342.768 336.679 342.796 336.737 342.812 336.798L342.83 336.869L342.869 337.029C343.127 338.099 343.38 339.35 343.624 340.752C343.635 340.817 343.634 340.883 343.619 340.947C343.605 341.011 343.578 341.072 343.541 341.126C343.503 341.179 343.455 341.225 343.399 341.26C343.344 341.295 343.282 341.319 343.217 341.33C343.189 341.336 343.16 341.339 343.13 341.338ZM341.321 333.532C341.211 333.532 341.105 333.496 341.018 333.429C340.931 333.363 340.868 333.27 340.839 333.164C340.519 332.001 340.148 330.716 339.722 329.326C339.703 329.263 339.696 329.196 339.702 329.131C339.708 329.065 339.727 329.001 339.758 328.943C339.788 328.885 339.83 328.833 339.881 328.791C339.932 328.749 339.991 328.718 340.054 328.698C340.117 328.679 340.183 328.672 340.248 328.679C340.314 328.685 340.378 328.704 340.436 328.735C340.494 328.766 340.545 328.809 340.587 328.86C340.629 328.911 340.66 328.969 340.679 329.033C341.107 330.433 341.48 331.728 341.803 332.899C341.821 332.962 341.826 333.028 341.817 333.094C341.809 333.159 341.788 333.222 341.756 333.279C341.724 333.336 341.68 333.386 341.628 333.426C341.576 333.467 341.517 333.497 341.454 333.514C341.41 333.526 341.366 333.531 341.321 333.532ZM338.975 325.861C338.87 325.861 338.768 325.828 338.683 325.767C338.598 325.706 338.535 325.619 338.502 325.52C338.097 324.315 337.657 323.055 337.18 321.75C337.158 321.689 337.148 321.623 337.15 321.558C337.153 321.492 337.169 321.427 337.196 321.368C337.224 321.308 337.263 321.255 337.311 321.21C337.36 321.166 337.416 321.131 337.478 321.109C337.54 321.086 337.605 321.076 337.671 321.079C337.737 321.081 337.801 321.097 337.861 321.125C337.92 321.152 337.974 321.192 338.018 321.24C338.063 321.288 338.097 321.345 338.12 321.407C338.6 322.721 339.043 323.986 339.449 325.202C339.47 325.264 339.478 325.329 339.474 325.395C339.469 325.46 339.452 325.524 339.423 325.583C339.394 325.642 339.353 325.694 339.304 325.737C339.254 325.781 339.197 325.813 339.134 325.834C339.083 325.852 339.029 325.861 338.975 325.861ZM336.225 318.332C336.125 318.332 336.027 318.302 335.944 318.246C335.861 318.189 335.797 318.109 335.76 318.016C335.285 316.812 334.779 315.581 334.242 314.324C334.19 314.202 334.188 314.064 334.238 313.941C334.287 313.818 334.383 313.719 334.505 313.667C334.627 313.615 334.765 313.614 334.888 313.663C335.011 313.713 335.11 313.809 335.162 313.931C335.702 315.195 336.211 316.437 336.69 317.649C336.714 317.71 336.726 317.775 336.725 317.841C336.724 317.906 336.71 317.971 336.684 318.031C336.658 318.092 336.62 318.146 336.573 318.192C336.526 318.237 336.47 318.273 336.409 318.297C336.35 318.321 336.288 318.333 336.225 318.332ZM333.078 310.965C332.982 310.965 332.889 310.938 332.808 310.886C332.728 310.835 332.664 310.762 332.624 310.675C332.076 309.489 331.502 308.288 330.901 307.075C330.872 307.016 330.854 306.952 330.85 306.886C330.845 306.82 330.854 306.754 330.874 306.692C330.895 306.63 330.928 306.572 330.972 306.522C331.015 306.473 331.068 306.432 331.127 306.403C331.185 306.374 331.25 306.357 331.315 306.352C331.381 306.348 331.447 306.356 331.509 306.378C331.571 306.399 331.629 306.432 331.678 306.475C331.728 306.519 331.768 306.571 331.797 306.63C332.403 307.851 332.981 309.059 333.532 310.255C333.567 310.331 333.583 310.415 333.577 310.499C333.571 310.583 333.545 310.664 333.5 310.735C333.454 310.806 333.392 310.864 333.318 310.904C333.244 310.944 333.162 310.965 333.078 310.965ZM329.516 303.791C329.426 303.791 329.337 303.767 329.259 303.72C329.181 303.673 329.118 303.607 329.075 303.527C328.457 302.37 327.812 301.207 327.141 300.038C327.075 299.923 327.058 299.787 327.092 299.659C327.127 299.531 327.211 299.422 327.326 299.356C327.441 299.29 327.577 299.272 327.705 299.307C327.833 299.341 327.942 299.425 328.008 299.54C328.684 300.715 329.334 301.887 329.958 303.056C330.02 303.173 330.033 303.31 329.995 303.437C329.956 303.564 329.869 303.67 329.752 303.733C329.679 303.772 329.598 303.792 329.516 303.791ZM325.522 296.853C325.437 296.853 325.353 296.831 325.279 296.79C325.205 296.749 325.142 296.689 325.097 296.617C324.389 295.476 323.664 294.348 322.939 293.265C322.902 293.21 322.876 293.149 322.863 293.084C322.85 293.02 322.849 292.953 322.862 292.888C322.874 292.823 322.9 292.762 322.936 292.707C322.973 292.652 323.02 292.604 323.075 292.568C323.13 292.531 323.191 292.506 323.256 292.493C323.321 292.48 323.387 292.48 323.452 292.493C323.517 292.506 323.578 292.532 323.633 292.569C323.688 292.606 323.735 292.653 323.771 292.708C324.501 293.801 325.233 294.939 325.947 296.089C325.994 296.165 326.02 296.252 326.022 296.341C326.024 296.43 326.002 296.518 325.959 296.596C325.916 296.674 325.852 296.739 325.775 296.784C325.699 296.829 325.611 296.853 325.522 296.853ZM321.072 290.201C320.993 290.2 320.915 290.182 320.844 290.146C320.774 290.11 320.713 290.058 320.667 289.994C319.883 288.909 319.079 287.837 318.274 286.808C318.233 286.756 318.203 286.697 318.185 286.634C318.168 286.571 318.162 286.504 318.17 286.439C318.178 286.374 318.199 286.311 318.231 286.253C318.264 286.196 318.307 286.146 318.359 286.105C318.41 286.065 318.47 286.035 318.533 286.017C318.597 286 318.663 285.995 318.728 286.003C318.793 286.011 318.856 286.032 318.914 286.065C318.971 286.097 319.021 286.141 319.061 286.193C319.874 287.232 320.687 288.313 321.477 289.408C321.531 289.482 321.563 289.57 321.571 289.662C321.578 289.754 321.559 289.846 321.517 289.928C321.475 290.01 321.412 290.079 321.333 290.127C321.254 290.175 321.164 290.201 321.072 290.201ZM316.14 283.897C316.068 283.897 315.996 283.881 315.93 283.851C315.864 283.82 315.806 283.776 315.759 283.72C314.895 282.703 314.007 281.701 313.122 280.74C313.077 280.691 313.043 280.635 313.02 280.573C312.997 280.512 312.987 280.446 312.99 280.381C312.992 280.315 313.008 280.251 313.035 280.191C313.063 280.132 313.102 280.078 313.15 280.034C313.198 279.989 313.255 279.954 313.316 279.932C313.378 279.909 313.443 279.899 313.509 279.901C313.574 279.904 313.639 279.92 313.698 279.947C313.758 279.975 313.812 280.014 313.856 280.062C314.753 281.033 315.649 282.045 316.521 283.074C316.583 283.146 316.622 283.235 316.635 283.33C316.648 283.424 316.633 283.52 316.593 283.607C316.553 283.693 316.489 283.767 316.409 283.818C316.329 283.869 316.236 283.897 316.14 283.897ZM310.714 278.021C310.582 278.021 310.455 277.969 310.361 277.876C309.415 276.937 308.443 276.017 307.474 275.141C307.376 275.052 307.318 274.928 307.311 274.796C307.305 274.664 307.351 274.534 307.44 274.436C307.528 274.338 307.652 274.279 307.784 274.272C307.916 274.265 308.046 274.311 308.144 274.399C309.125 275.285 310.108 276.216 311.066 277.165C311.137 277.235 311.185 277.324 311.204 277.422C311.224 277.519 311.214 277.62 311.177 277.711C311.139 277.803 311.075 277.881 310.992 277.937C310.91 277.992 310.813 278.021 310.714 278.021ZM304.781 272.66C304.665 272.66 304.553 272.62 304.464 272.546C303.438 271.704 302.384 270.882 301.33 270.103C301.223 270.024 301.153 269.906 301.133 269.775C301.114 269.644 301.147 269.511 301.226 269.404C301.305 269.298 301.422 269.227 301.553 269.207C301.684 269.187 301.818 269.22 301.924 269.298C302.993 270.088 304.06 270.921 305.098 271.773C305.178 271.838 305.236 271.927 305.263 272.026C305.291 272.125 305.287 272.231 305.252 272.328C305.217 272.425 305.153 272.509 305.069 272.568C304.985 272.628 304.884 272.66 304.781 272.66ZM298.355 267.906C298.257 267.906 298.161 267.877 298.079 267.823C296.968 267.087 295.836 266.378 294.713 265.715C294.598 265.648 294.516 265.538 294.482 265.409C294.449 265.281 294.468 265.145 294.536 265.031C294.603 264.916 294.713 264.834 294.841 264.8C294.97 264.767 295.106 264.787 295.22 264.854C296.358 265.526 297.505 266.243 298.631 266.989C298.721 267.048 298.789 267.135 298.826 267.236C298.862 267.337 298.865 267.447 298.834 267.55C298.803 267.653 298.74 267.743 298.654 267.807C298.567 267.871 298.463 267.906 298.355 267.906ZM291.47 263.846C291.39 263.846 291.311 263.827 291.24 263.789C290.074 263.184 288.874 262.601 287.671 262.058C287.55 262.003 287.455 261.903 287.408 261.779C287.362 261.654 287.366 261.517 287.421 261.396C287.475 261.275 287.576 261.181 287.7 261.134C287.824 261.087 287.962 261.091 288.083 261.146C289.301 261.697 290.519 262.287 291.701 262.903C291.8 262.954 291.879 263.038 291.925 263.14C291.972 263.242 291.982 263.356 291.956 263.465C291.929 263.573 291.867 263.67 291.779 263.739C291.691 263.808 291.582 263.846 291.47 263.846ZM284.192 260.556C284.13 260.556 284.069 260.545 284.011 260.523C282.773 260.043 281.516 259.595 280.274 259.191C280.212 259.17 280.154 259.138 280.104 259.095C280.054 259.053 280.013 259 279.983 258.942C279.953 258.883 279.935 258.819 279.93 258.754C279.925 258.688 279.933 258.622 279.953 258.56C279.974 258.497 280.006 258.439 280.049 258.39C280.092 258.34 280.144 258.299 280.203 258.269C280.261 258.239 280.325 258.221 280.391 258.216C280.456 258.211 280.522 258.219 280.585 258.24C281.842 258.65 283.117 259.104 284.373 259.589C284.482 259.631 284.572 259.71 284.629 259.812C284.686 259.914 284.706 260.033 284.684 260.148C284.663 260.263 284.602 260.366 284.512 260.441C284.422 260.515 284.309 260.556 284.192 260.556ZM276.6 258.079C276.557 258.079 276.513 258.074 276.471 258.063C275.2 257.723 273.901 257.412 272.612 257.14C272.483 257.112 272.369 257.034 272.297 256.923C272.225 256.812 272.2 256.677 272.228 256.547C272.255 256.418 272.333 256.304 272.444 256.232C272.554 256.16 272.689 256.134 272.819 256.161C274.126 256.437 275.441 256.752 276.729 257.097C276.846 257.128 276.948 257.201 277.016 257.301C277.083 257.402 277.112 257.524 277.096 257.645C277.08 257.765 277.021 257.875 276.93 257.955C276.839 258.035 276.722 258.08 276.6 258.079ZM227.046 256.838C226.322 256.837 225.606 256.833 224.898 256.824C224.765 256.823 224.639 256.77 224.545 256.676C224.452 256.581 224.4 256.454 224.401 256.321C224.402 256.189 224.455 256.062 224.55 255.968C224.644 255.875 224.771 255.823 224.904 255.824H224.91C226.212 255.84 227.541 255.842 228.898 255.828H228.903C229.036 255.827 229.163 255.879 229.257 255.973C229.351 256.066 229.405 256.193 229.405 256.326C229.406 256.458 229.354 256.586 229.261 256.68C229.167 256.774 229.04 256.827 228.908 256.828C228.281 256.834 227.66 256.838 227.046 256.838ZM232.903 256.742C232.772 256.742 232.646 256.691 232.552 256.599C232.458 256.507 232.405 256.381 232.403 256.25C232.401 256.119 232.45 255.992 232.541 255.897C232.632 255.802 232.756 255.747 232.887 255.743C234.191 255.701 235.519 255.644 236.873 255.573C237.005 255.567 237.133 255.614 237.231 255.702C237.329 255.791 237.388 255.915 237.395 256.046C237.402 256.178 237.356 256.307 237.268 256.406C237.18 256.504 237.057 256.564 236.925 256.572C235.565 256.643 234.229 256.699 232.919 256.742L232.903 256.742ZM220.907 256.724L220.888 256.724C219.521 256.672 218.186 256.604 216.882 256.518C216.817 256.514 216.752 256.498 216.692 256.469C216.633 256.44 216.58 256.4 216.536 256.35C216.492 256.301 216.459 256.243 216.437 256.181C216.416 256.118 216.407 256.052 216.411 255.986C216.415 255.921 216.433 255.856 216.462 255.797C216.491 255.738 216.532 255.685 216.582 255.642C216.632 255.598 216.69 255.565 216.752 255.544C216.815 255.523 216.881 255.515 216.947 255.52C218.243 255.605 219.569 255.673 220.925 255.725C221.056 255.729 221.18 255.785 221.27 255.88C221.36 255.976 221.41 256.102 221.407 256.233C221.405 256.364 221.351 256.489 221.257 256.581C221.164 256.673 221.038 256.724 220.907 256.724ZM268.789 256.425C268.762 256.425 268.736 256.423 268.71 256.418C267.416 256.214 266.091 256.038 264.775 255.896C264.709 255.89 264.645 255.87 264.587 255.839C264.529 255.808 264.477 255.765 264.435 255.714C264.393 255.663 264.362 255.604 264.343 255.54C264.325 255.477 264.319 255.41 264.326 255.344C264.333 255.279 264.353 255.215 264.385 255.157C264.417 255.099 264.46 255.048 264.512 255.007C264.563 254.966 264.623 254.935 264.687 254.917C264.75 254.899 264.817 254.894 264.882 254.902C266.215 255.045 267.555 255.224 268.866 255.431C268.99 255.451 269.102 255.516 269.18 255.615C269.258 255.714 269.296 255.838 269.287 255.964C269.277 256.089 269.22 256.206 269.128 256.292C269.036 256.377 268.914 256.425 268.789 256.425ZM240.889 256.324C240.76 256.324 240.635 256.274 240.542 256.184C240.449 256.093 240.395 255.971 240.39 255.841C240.386 255.712 240.432 255.586 240.518 255.49C240.605 255.393 240.726 255.335 240.855 255.326C242.16 255.232 243.485 255.126 244.832 255.005C244.964 254.993 245.095 255.034 245.197 255.119C245.299 255.204 245.363 255.326 245.375 255.458C245.387 255.59 245.346 255.722 245.261 255.824C245.176 255.926 245.054 255.989 244.922 256.001C243.568 256.122 242.236 256.23 240.925 256.323L240.889 256.324ZM212.93 256.2C212.914 256.2 212.898 256.199 212.882 256.198C211.516 256.069 210.187 255.921 208.894 255.756C208.763 255.739 208.643 255.671 208.562 255.566C208.481 255.461 208.445 255.328 208.462 255.196C208.478 255.065 208.547 254.945 208.652 254.864C208.757 254.783 208.89 254.747 209.021 254.764C210.303 254.928 211.622 255.074 212.976 255.203C213.104 255.214 213.223 255.275 213.307 255.372C213.391 255.469 213.435 255.595 213.429 255.723C213.423 255.852 213.368 255.973 213.275 256.062C213.182 256.15 213.059 256.2 212.93 256.2ZM248.862 255.656C248.732 255.656 248.608 255.606 248.515 255.516C248.422 255.425 248.367 255.303 248.363 255.173C248.358 255.044 248.404 254.918 248.491 254.822C248.578 254.725 248.699 254.667 248.828 254.658C250.17 254.562 251.52 254.493 252.842 254.453C252.974 254.452 253.101 254.502 253.197 254.592C253.293 254.682 253.35 254.806 253.357 254.938C253.361 255.071 253.312 255.199 253.221 255.296C253.13 255.392 253.004 255.449 252.872 255.453C251.564 255.492 250.227 255.56 248.898 255.655L248.862 255.656ZM260.847 255.566L260.818 255.565C259.513 255.488 258.178 255.439 256.849 255.421C256.717 255.42 256.59 255.366 256.497 255.272C256.404 255.178 256.352 255.05 256.353 254.917C256.354 254.785 256.407 254.658 256.502 254.565C256.596 254.472 256.723 254.42 256.856 254.421H256.863C258.208 254.439 259.558 254.489 260.877 254.567C261.006 254.575 261.128 254.633 261.216 254.729C261.303 254.825 261.35 254.951 261.346 255.081C261.343 255.211 261.288 255.334 261.195 255.425C261.102 255.515 260.977 255.566 260.847 255.566ZM205.005 255.185C204.978 255.186 204.951 255.183 204.924 255.179C203.598 254.963 202.269 254.72 200.974 254.456C200.91 254.443 200.848 254.418 200.794 254.381C200.739 254.344 200.692 254.297 200.656 254.242C200.62 254.188 200.594 254.126 200.582 254.062C200.569 253.997 200.569 253.931 200.582 253.866C200.596 253.802 200.621 253.741 200.658 253.686C200.695 253.632 200.742 253.585 200.797 253.549C200.852 253.512 200.913 253.487 200.978 253.475C201.043 253.463 201.109 253.463 201.173 253.476C202.457 253.737 203.772 253.978 205.085 254.192C205.208 254.212 205.32 254.278 205.398 254.377C205.475 254.476 205.513 254.6 205.503 254.725C205.493 254.85 205.436 254.967 205.344 255.052C205.252 255.138 205.131 255.185 205.005 255.185ZM197.175 253.588C197.135 253.588 197.095 253.583 197.055 253.573C195.742 253.247 194.437 252.891 193.177 252.515C193.114 252.496 193.056 252.465 193.005 252.424C192.954 252.382 192.911 252.331 192.88 252.273C192.849 252.216 192.829 252.152 192.823 252.087C192.816 252.021 192.822 251.955 192.841 251.892C192.86 251.829 192.891 251.771 192.933 251.72C192.974 251.669 193.025 251.626 193.083 251.595C193.141 251.564 193.205 251.545 193.27 251.538C193.335 251.532 193.402 251.538 193.464 251.557C194.709 251.929 195.998 252.281 197.296 252.602C197.414 252.632 197.518 252.704 197.587 252.804C197.656 252.905 197.686 253.027 197.672 253.148C197.657 253.27 197.598 253.381 197.507 253.462C197.415 253.543 197.298 253.588 197.175 253.588ZM189.523 251.295C189.466 251.295 189.409 251.285 189.355 251.266C188.074 250.809 186.812 250.319 185.605 249.808C185.544 249.783 185.489 249.746 185.443 249.699C185.396 249.653 185.36 249.597 185.335 249.536C185.31 249.475 185.297 249.41 185.298 249.344C185.298 249.279 185.311 249.213 185.337 249.153C185.363 249.092 185.4 249.037 185.447 248.991C185.494 248.945 185.549 248.908 185.61 248.884C185.671 248.859 185.737 248.847 185.802 248.847C185.868 248.848 185.933 248.862 185.994 248.888C187.184 249.39 188.427 249.873 189.691 250.324C189.802 250.363 189.895 250.441 189.955 250.543C190.014 250.644 190.036 250.764 190.016 250.88C189.995 250.996 189.935 251.101 189.845 251.177C189.755 251.253 189.641 251.295 189.523 251.295ZM182.171 248.178C182.094 248.178 182.017 248.16 181.948 248.125C180.728 247.515 179.538 246.866 178.409 246.196C178.295 246.129 178.212 246.018 178.179 245.89C178.146 245.761 178.166 245.625 178.234 245.511C178.301 245.397 178.411 245.314 178.54 245.282C178.668 245.249 178.804 245.268 178.919 245.336C180.027 245.994 181.197 246.631 182.395 247.23C182.496 247.281 182.577 247.364 182.624 247.466C182.672 247.568 182.684 247.683 182.658 247.792C182.632 247.902 182.57 248 182.482 248.07C182.394 248.14 182.284 248.178 182.171 248.178ZM175.309 244.095C175.206 244.095 175.105 244.063 175.02 244.003C173.901 243.211 172.827 242.379 171.827 241.53C171.726 241.444 171.663 241.322 171.652 241.19C171.641 241.058 171.683 240.927 171.769 240.826C171.854 240.724 171.977 240.661 172.109 240.651C172.241 240.64 172.372 240.682 172.473 240.767C173.452 241.598 174.503 242.412 175.598 243.187C175.685 243.248 175.75 243.336 175.783 243.436C175.817 243.537 175.818 243.646 175.786 243.747C175.753 243.848 175.69 243.936 175.604 243.999C175.519 244.061 175.415 244.095 175.309 244.095ZM169.234 238.915C169.167 238.915 169.1 238.902 169.038 238.876C168.976 238.849 168.92 238.811 168.874 238.763C167.935 237.79 167.051 236.765 166.226 235.694C166.186 235.642 166.157 235.582 166.14 235.519C166.123 235.455 166.119 235.389 166.127 235.324C166.136 235.259 166.157 235.196 166.19 235.14C166.223 235.083 166.266 235.033 166.318 234.993C166.371 234.953 166.43 234.924 166.493 234.907C166.557 234.89 166.623 234.885 166.688 234.894C166.753 234.903 166.816 234.924 166.873 234.957C166.929 234.99 166.979 235.033 167.019 235.085C167.821 236.127 168.681 237.123 169.594 238.068C169.662 238.139 169.708 238.228 169.726 238.325C169.743 238.421 169.732 238.521 169.694 238.611C169.656 238.701 169.592 238.778 169.51 238.832C169.428 238.886 169.332 238.915 169.234 238.915ZM164.398 232.566C164.31 232.566 164.224 232.543 164.147 232.499C164.071 232.455 164.008 232.391 163.964 232.315C163.251 231.131 162.677 229.87 162.252 228.555C162.216 228.427 162.233 228.291 162.298 228.175C162.363 228.06 162.472 227.975 162.599 227.94C162.727 227.905 162.864 227.921 162.979 227.987C163.094 228.052 163.179 228.16 163.214 228.288C163.621 229.521 164.164 230.705 164.832 231.818C164.875 231.894 164.898 231.98 164.898 232.067C164.898 232.155 164.875 232.241 164.831 232.317C164.787 232.393 164.724 232.456 164.648 232.5C164.572 232.543 164.486 232.566 164.398 232.566Z" fill="white"/>
<path d="M290.686 186.083C293.179 184.802 295.585 183.358 297.887 181.758C300.907 179.622 303.345 178.419 306.229 179.248C309.004 180.046 310.619 182.918 311.525 185.66C312.193 187.685 312.637 189.777 312.85 191.898C313.031 193.023 312.94 194.174 312.583 195.256C311.572 197.778 308.445 198.691 305.731 198.823C297.761 199.211 291.619 192.801 291.348 191.919L290.686 186.083Z" fill="white"/>
<path d="M305.027 199.34C297.25 199.34 291.252 193.307 290.87 192.066L290.148 185.788L290.467 185.634C292.935 184.363 295.317 182.933 297.598 181.35C300.767 179.11 303.341 177.897 306.366 178.768C308.831 179.477 310.778 181.805 311.999 185.503C312.678 187.563 313.13 189.691 313.347 191.848C313.539 193.053 313.436 194.287 313.046 195.443C311.746 198.687 307.514 199.237 305.755 199.323C305.511 199.334 305.268 199.34 305.027 199.34ZM291.837 191.797C292.296 192.76 298.139 198.697 305.706 198.324C307.272 198.247 311.033 197.777 312.118 195.07C312.443 194.063 312.523 192.993 312.352 191.948C312.143 189.863 311.706 187.807 311.05 185.817C310.274 183.467 308.784 180.504 306.09 179.729C303.438 178.965 301.178 180.045 298.176 182.167C295.948 183.713 293.625 185.118 291.222 186.374L291.837 191.797Z" fill="black"/>
<path d="M461.047 409.874C459.328 411.127 457.419 412.096 455.392 412.744C454.669 408.438 453.773 404.154 452.705 399.923C454.023 399.504 455.373 399.193 456.741 398.995C457.991 398.9 459.242 399.169 460.341 399.771C461.441 400.372 462.342 401.28 462.936 402.384C463.535 403.658 463.674 405.101 463.33 406.466C462.986 407.832 462.179 409.036 461.047 409.874Z" fill="black"/>
<path d="M435.469 446.512C434.223 447.017 432.934 447.403 431.616 447.667C430.925 447.807 430.224 447.926 429.501 448.002C429.393 443.59 429.048 439.188 428.465 434.814C429.145 434.792 429.868 434.771 430.58 434.76C431.74 434.714 432.902 434.757 434.055 434.889C435.289 435.115 436.432 435.694 437.344 436.556C438.256 437.418 438.898 438.526 439.192 439.746C439.452 441.13 439.223 442.562 438.543 443.797C437.864 445.031 436.778 445.991 435.469 446.512Z" fill="black"/>
<path d="M322.143 184.471C320.882 184.539 313.764 184.419 313.764 184.419C311.84 184.336 310.328 184.02 310.523 182.06C310.728 180.984 312.29 180.857 313.382 180.874C321.98 181.014 320.608 179.637 320.608 179.637C320.642 179.029 314.4 179.413 311.744 179.41C310.518 179.502 307.446 179.372 307.337 177.964C307.291 177.369 307.616 176.504 309.482 176.378C313.321 176.117 315.904 176.347 319.731 175.97C320.179 175.863 320.578 175.74 320.567 175.198C320.536 174.655 318.144 174.401 316.875 174.379C314.009 174.326 311.131 174.286 308.255 174.232C307.805 174.227 307.098 173.984 307.112 173.304C307.141 171.823 308.547 171.552 310.634 171.464C313.958 171.324 317.196 171.865 320.511 171.798C320.904 171.757 321.011 171.238 320.843 170.782C320.566 170.055 319.511 169.98 319.272 169.963C316.398 169.743 314.206 169.765 311.323 169.669C311.083 169.666 309.965 169.628 309.791 168.853C309.34 166.921 311.598 167.083 311.98 167.055C314.536 166.909 318.081 166.867 321.459 166.867C324.891 166.867 326.183 169.437 326.95 172.018C327.643 175.618 327.054 179.347 325.286 182.558C324.96 183.111 324.502 183.575 323.954 183.909C323.406 184.243 322.783 184.436 322.143 184.471Z" fill="white"/>
<path d="M320.569 184.993C318.11 184.993 313.98 184.923 313.756 184.92C312.277 184.856 311.167 184.661 310.515 183.908C310.305 183.643 310.153 183.337 310.068 183.009C309.983 182.682 309.967 182.34 310.022 182.006C310.237 180.871 311.374 180.358 313.39 180.367C317.856 180.44 319.415 180.095 319.95 179.878C318.098 179.774 316.243 179.767 314.39 179.859C313.38 179.887 312.459 179.909 311.744 179.912C311.735 179.914 307.008 180.241 306.835 177.999C306.814 177.772 306.84 177.542 306.91 177.325C306.981 177.108 307.094 176.907 307.244 176.735C307.536 176.453 307.882 176.231 308.26 176.083C308.638 175.935 309.042 175.863 309.448 175.872C311.171 175.755 312.647 175.736 314.076 175.717C315.878 175.694 317.58 175.672 319.681 175.465C319.807 175.448 319.927 175.403 320.032 175.332C319.006 175.021 317.939 174.868 316.867 174.88L312.616 174.807C311.16 174.784 309.703 174.759 308.246 174.733C307.772 174.731 307.316 174.55 306.97 174.226C306.85 174.103 306.756 173.956 306.694 173.795C306.631 173.635 306.602 173.463 306.608 173.291C306.651 171.124 309.035 171.023 310.613 170.957C312.373 170.915 314.135 170.968 315.889 171.116C317.368 171.215 318.892 171.318 320.406 171.292C320.426 171.178 320.414 171.061 320.371 170.953C320.269 170.687 319.855 170.507 319.237 170.462C317.273 170.312 315.614 170.275 313.857 170.236C313.047 170.219 312.211 170.2 311.306 170.17C310.22 170.155 309.467 169.702 309.3 168.959C309.216 168.689 309.196 168.402 309.241 168.122C309.286 167.843 309.395 167.577 309.56 167.347C309.858 167.062 310.213 166.844 310.602 166.707C310.991 166.57 311.404 166.517 311.815 166.552L311.943 166.549C314.153 166.423 317.352 166.359 321.46 166.359C325.303 166.359 326.671 169.305 327.433 171.872C328.156 175.606 327.55 179.476 325.72 182.811C325.354 183.437 324.838 183.962 324.218 184.339C323.599 184.716 322.895 184.933 322.171 184.971C321.882 184.986 321.299 184.993 320.569 184.993ZM313.223 181.374C312.391 181.374 311.145 181.487 311.019 182.151C310.985 182.342 310.99 182.537 311.035 182.726C311.079 182.914 311.162 183.092 311.277 183.248C312.011 183.753 312.898 183.987 313.786 183.912C313.844 183.913 320.885 184.029 322.116 183.964C322.674 183.935 323.216 183.767 323.694 183.477C324.171 183.187 324.569 182.782 324.851 182.3C326.556 179.211 327.127 175.624 326.467 172.159C325.763 169.79 324.618 167.368 321.46 167.368C317.371 167.368 314.191 167.431 312.009 167.555C311.974 167.558 311.912 167.56 311.834 167.561C311.511 167.567 310.655 167.583 310.357 167.966C310.289 168.08 310.246 168.209 310.233 168.342C310.221 168.475 310.238 168.609 310.283 168.734C310.351 169.041 310.889 169.156 311.33 169.162C312.24 169.192 313.073 169.21 313.88 169.229C315.65 169.268 317.323 169.304 319.311 169.457C320.642 169.552 321.136 170.13 321.314 170.599C321.397 170.802 321.435 171.02 321.423 171.239C321.412 171.457 321.352 171.67 321.249 171.863C321.176 171.984 321.076 172.086 320.957 172.161C320.838 172.236 320.703 172.282 320.563 172.296C318.93 172.329 317.352 172.225 315.822 172.122C314.104 171.976 312.38 171.923 310.656 171.964C308.373 172.061 307.635 172.388 307.616 173.311C307.613 173.35 307.618 173.389 307.632 173.426C307.645 173.463 307.667 173.496 307.694 173.524C307.854 173.655 308.055 173.726 308.262 173.724C309.721 173.751 311.179 173.776 312.633 173.799L316.886 173.871C318.422 173.897 321.01 174.1 321.071 175.166C321.091 176.162 320.251 176.362 319.847 176.457C317.636 176.68 315.913 176.702 314.089 176.726C312.674 176.744 311.211 176.763 309.516 176.877C308.965 176.846 308.423 177.032 308.007 177.395C307.944 177.466 307.898 177.55 307.869 177.641C307.84 177.732 307.831 177.827 307.841 177.922C307.9 178.706 310.135 179.023 311.707 178.904C312.433 178.904 313.364 178.878 314.363 178.851C318.991 178.725 320.503 178.757 320.937 179.207L321.092 179.365L321.098 179.46C321.154 179.564 321.186 179.68 321.192 179.799C321.197 179.917 321.175 180.035 321.129 180.144C320.958 180.548 320.552 181.483 313.375 181.375C313.326 181.375 313.275 181.374 313.223 181.374Z" fill="black"/>
<path d="M92.8973 87.6222C105.185 92.7925 117.276 98.6294 128.278 106.211C138.471 113.236 147.518 122.015 155.758 131.223C171.534 148.889 181.553 170.943 184.479 194.446C185.242 202.246 185.521 210.085 185.316 217.919C185.321 218.048 185.375 218.171 185.469 218.261C185.562 218.351 185.686 218.402 185.816 218.402C185.946 218.402 186.07 218.351 186.164 218.261C186.257 218.171 186.312 218.048 186.316 217.919C186.488 210.854 186.292 203.785 185.73 196.741C184.711 186.384 182.273 176.216 178.485 166.523C173.897 154.65 167.42 143.595 159.306 133.788C151.518 124.368 142.699 115.851 133.013 108.396C120.875 99.2468 107.122 92.5316 93.1631 86.6579C92.5708 86.4086 92.3121 87.3759 92.8973 87.6222Z" fill="black"/>
<path d="M89.2607 90.0426C105.657 101.901 118.927 118.154 129.58 135.227C140.806 153.219 148.389 173.094 154.128 193.448C157.388 205.013 160.032 216.744 162.251 228.551C162.37 229.183 163.334 228.915 163.215 228.285C159.096 206.364 153.545 184.583 145.184 163.868C137.563 144.955 126.954 127.389 113.762 111.841C106.701 103.352 98.6441 95.7435 89.7654 89.1792C89.2432 88.8015 88.7435 89.6686 89.2607 90.0426Z" fill="black"/>
<path d="M85.1117 90.7169C86.4437 131.479 93.3389 173.66 116.378 208.21C122.173 216.867 128.835 224.911 136.26 232.219C136.718 232.672 137.425 231.965 136.967 231.512C123.679 218.381 112.9 202.936 105.158 185.934C96.9572 167.95 92.0986 148.594 89.2998 129.076C87.5362 116.357 86.4719 103.552 86.1117 90.7169C86.0907 90.075 85.0906 90.0721 85.1117 90.7169Z" fill="black"/>
<path d="M114.453 122.57L151.224 147.154C175.202 163.184 199.598 177.163 227.944 182.493C244.58 185.621 269.019 185.459 287.974 184.321C288.681 184.279 289.376 184.513 289.914 184.974C290.452 185.435 290.789 186.086 290.856 186.792L291.347 191.917C291.408 192.566 291.236 193.215 290.861 193.749C290.487 194.283 289.935 194.666 289.304 194.829C268.843 200.154 275.174 198.85 253.532 202.318C240.149 204.463 222.56 204.798 209.199 202.52C197.86 200.587 175.601 191.654 165.315 186.506C140.448 174.062 121.882 165.425 97.9141 148.974" fill="white"/>
<path d="M230.045 204.587C223.037 204.637 216.037 204.11 209.115 203.013C197.902 201.102 175.918 192.371 165.092 186.954C162.203 185.508 159.394 184.108 156.664 182.753C135.534 172.246 118.844 163.946 97.6309 149.386C97.5216 149.311 97.4466 149.196 97.4224 149.065C97.3983 148.935 97.4269 148.8 97.502 148.691C97.5771 148.582 97.6926 148.507 97.8229 148.483C97.9533 148.458 98.088 148.487 98.1973 148.562C119.352 163.082 136.015 171.368 157.109 181.858C159.847 183.219 162.657 184.62 165.539 186.059C176.31 191.449 198.161 200.131 209.283 202.027C221.912 204.18 239.249 204.101 253.453 201.825C256.189 201.386 258.478 201.024 260.431 200.715C271.738 198.926 271.738 198.926 282.013 196.223C283.977 195.706 286.315 195.091 289.178 194.346C289.695 194.214 290.148 193.902 290.455 193.465C290.761 193.028 290.901 192.496 290.85 191.964L290.357 186.839C290.307 186.262 290.032 185.728 289.592 185.35C289.152 184.973 288.582 184.783 288.004 184.82C276.518 185.51 247.668 186.711 227.852 182.984C198.587 177.482 173.595 162.711 150.945 147.569L114.175 122.986C114.12 122.949 114.073 122.902 114.037 122.848C114.001 122.793 113.975 122.732 113.962 122.667C113.95 122.603 113.95 122.537 113.963 122.472C113.976 122.408 114.001 122.347 114.038 122.292C114.074 122.238 114.121 122.191 114.176 122.154C114.23 122.118 114.292 122.093 114.356 122.08C114.421 122.067 114.487 122.067 114.551 122.08C114.616 122.093 114.677 122.118 114.731 122.155L151.502 146.738C174.062 161.821 198.948 176.532 228.037 182.002C247.745 185.708 276.497 184.509 287.943 183.822C288.781 183.764 289.609 184.038 290.247 184.585C290.885 185.131 291.282 185.907 291.353 186.744L291.846 191.869C291.921 192.637 291.718 193.407 291.275 194.039C290.832 194.67 290.177 195.123 289.43 195.314C286.568 196.058 284.23 196.673 282.268 197.19C271.943 199.906 271.943 199.906 260.587 201.703C258.635 202.012 256.347 202.374 253.611 202.812C245.814 204.013 237.935 204.607 230.045 204.587Z" fill="black"/>
<path d="M28.3812 331.428C27.9954 331.428 27.6175 331.413 27.2474 331.382C23.9593 331.108 20.929 329.715 17.9984 328.367C16.5541 327.703 15.0619 327.016 13.5658 326.479C9.12143 324.881 3.48177 324.926 0.911473 328.628C0.835845 328.737 0.72 328.811 0.589421 328.835C0.458842 328.859 0.324227 328.829 0.215188 328.754C0.10615 328.678 0.0316203 328.562 0.0079954 328.432C-0.0156295 328.301 0.0135854 328.166 0.0892132 328.057C2.96421 323.92 9.098 323.81 13.9037 325.538C15.4398 326.091 16.9525 326.786 18.4164 327.459C21.3998 328.83 24.2171 330.126 27.3304 330.386C32.2191 330.794 37.1849 328.525 39.1771 324.996C39.2094 324.939 39.2527 324.888 39.3044 324.848C39.3562 324.807 39.4154 324.778 39.4787 324.76C39.542 324.742 39.6081 324.737 39.6733 324.745C39.7385 324.753 39.8015 324.774 39.8587 324.806C39.9159 324.839 39.9662 324.882 40.0067 324.934C40.0472 324.985 40.077 325.045 40.0946 325.108C40.1122 325.171 40.1172 325.237 40.1092 325.303C40.1012 325.368 40.0805 325.431 40.0482 325.488C37.7865 329.495 32.68 331.428 28.3812 331.428Z" fill="black"/>
<path d="M104.901 495.152C103.832 495.153 102.765 495.06 101.712 494.874C99.2702 494.337 96.9039 493.499 94.6674 492.381C93.1622 491.669 91.6177 491.043 90.0414 490.506C86.2768 489.305 81.477 489.509 79.2524 492.674C79.2145 492.728 79.1665 492.773 79.111 492.809C79.0555 492.844 78.9936 492.868 78.9288 492.879C78.8641 492.89 78.7977 492.889 78.7336 492.874C78.6695 492.86 78.6088 492.833 78.5551 492.795C78.5014 492.757 78.4556 492.709 78.4205 492.654C78.3853 492.598 78.3614 492.536 78.3502 492.472C78.3389 492.407 78.3405 492.34 78.3549 492.276C78.3693 492.212 78.3962 492.152 78.434 492.098C80.9506 488.519 86.228 488.241 90.3461 489.553C91.9581 490.102 93.5378 490.742 95.0776 491.469C97.2395 492.551 99.5261 493.364 101.886 493.89C106.609 494.726 113.143 493.752 116.02 488.245C116.081 488.128 116.187 488.039 116.313 488C116.44 487.96 116.577 487.972 116.695 488.033C116.812 488.095 116.901 488.2 116.94 488.327C116.98 488.453 116.968 488.591 116.907 488.708C114.399 493.509 109.393 495.152 104.901 495.152Z" fill="black"/>
<path d="M363.047 115.283C362.908 115.283 362.771 115.28 362.633 115.274C360.182 115.097 357.791 114.428 355.604 113.306C354.767 112.941 353.903 112.563 352.942 112.201C348.882 110.674 345.235 111.275 342.929 113.85C342.886 113.899 342.833 113.939 342.773 113.968C342.714 113.996 342.65 114.013 342.584 114.017C342.519 114.02 342.453 114.011 342.391 113.989C342.329 113.967 342.272 113.934 342.223 113.89C342.174 113.846 342.134 113.793 342.106 113.734C342.077 113.674 342.061 113.61 342.057 113.544C342.054 113.479 342.063 113.413 342.085 113.351C342.107 113.289 342.141 113.232 342.185 113.183C344.781 110.285 348.831 109.585 353.294 111.265C354.279 111.636 355.156 112.019 356.004 112.39C358.081 113.458 360.35 114.098 362.678 114.275C366.258 114.436 370.83 112.179 371.696 108.687C371.711 108.623 371.739 108.563 371.778 108.51C371.817 108.456 371.866 108.411 371.922 108.377C371.979 108.343 372.041 108.32 372.106 108.31C372.172 108.3 372.238 108.304 372.302 108.319C372.366 108.335 372.426 108.363 372.479 108.403C372.532 108.442 372.577 108.491 372.611 108.548C372.645 108.604 372.667 108.667 372.676 108.732C372.686 108.797 372.683 108.863 372.667 108.927C371.704 112.812 367.007 115.283 363.047 115.283Z" fill="black"/>
<path d="M277.174 90.711C277.107 90.711 277.041 90.7095 276.973 90.7066C275.468 90.5358 274.016 90.0516 272.71 89.2852C271.871 88.8354 270.994 88.4632 270.087 88.1734C268.991 87.7967 267.808 87.7448 266.682 88.0239C265.557 88.303 264.536 88.9012 263.742 89.7466C263.653 89.8449 263.529 89.9038 263.396 89.9105C263.264 89.9172 263.134 89.8711 263.036 89.7824C262.938 89.6936 262.879 89.5694 262.872 89.4371C262.865 89.3048 262.911 89.1752 263 89.0767C263.916 88.0894 265.099 87.3881 266.405 87.0572C267.711 86.7263 269.085 86.7799 270.361 87.2115C271.326 87.5181 272.261 87.9123 273.154 88.3892C274.337 89.0907 275.653 89.5396 277.018 89.7076C279.223 89.8116 281.489 87.9048 281.733 86.3375C281.753 86.2064 281.825 86.0888 281.932 86.0105C282.039 85.9322 282.173 85.8996 282.304 85.92C282.435 85.9403 282.552 86.0119 282.631 86.1189C282.709 86.226 282.742 86.3597 282.721 86.4908C282.382 88.6734 279.673 90.711 277.174 90.711Z" fill="black"/>
<path d="M64.7072 459.943C61.4129 459.93 58.1484 459.318 55.0735 458.135C51.8325 456.783 48.7086 455.166 45.7336 453.3C42.5924 451.309 39.2685 449.622 35.8069 448.261C30.8647 446.617 25.5735 446.319 20.4779 447.398C15.3823 448.478 10.6664 450.896 6.81565 454.403C6.76768 454.448 6.71135 454.483 6.64986 454.506C6.58837 454.529 6.52293 454.54 6.45728 454.538C6.39162 454.535 6.32704 454.52 6.26722 454.493C6.2074 454.466 6.1535 454.427 6.10862 454.38C6.06373 454.332 6.02873 454.275 6.00562 454.214C5.98251 454.152 5.97173 454.087 5.97391 454.021C5.97608 453.955 5.99117 453.891 6.01831 453.831C6.04544 453.771 6.08409 453.717 6.13206 453.672C10.1175 450.043 14.9979 447.541 20.2713 446.424C25.5446 445.307 31.0203 445.615 36.135 447.317C39.6598 448.697 43.0441 450.412 46.2414 452.438C49.1675 454.275 52.2397 455.867 55.427 457.2C65.3342 460.955 75.6975 458.548 83.1565 450.761C83.2483 450.666 83.3741 450.611 83.5065 450.608C83.6388 450.605 83.7668 450.655 83.8625 450.747C83.9581 450.838 84.0136 450.964 84.0167 451.096C84.0198 451.229 83.9704 451.357 83.8791 451.453C81.4339 454.104 78.4709 456.225 75.1733 457.685C71.8757 459.146 68.3136 459.914 64.7072 459.943Z" fill="black"/>
</svg>
