<svg width="352" height="659" viewBox="0 0 352 659" fill="none" xmlns="http://www.w3.org/2000/svg">
<path d="M183.605 211.685C183.471 211.92 183.382 212.178 183.344 212.445C182.755 216.205 181.585 222.995 180.855 226.705C179.465 233.665 178.205 242.495 174.295 248.425C173.145 250.346 171.515 251.935 169.565 253.035C167.17 254.054 164.438 253.899 162.175 252.615C160.094 251.115 159.525 248.315 159.125 245.785C157.505 235.715 156.405 226.305 154.975 216.465C154.965 216.435 154.485 212.935 154.165 210.585C154.138 210.362 154.074 210.146 153.975 209.945C163.355 206.085 166.935 191.245 167.074 178.375C169.066 179.398 171.242 180.01 173.475 180.175C174.853 180.314 176.239 180.377 177.625 180.365C175.795 189.565 174.905 201.075 179.875 208.045C180.838 209.515 182.111 210.758 183.605 211.685Z" fill="white"/>
<path fillRule="evenodd" clipRule="evenodd" d="M161.882 253.023C163.208 253.844 164.747 254.255 166.306 254.205C167.506 254.23 168.696 253.984 169.788 253.484C171.825 252.356 173.524 250.706 174.711 248.703C178.16 243.472 179.561 236.126 180.795 229.645L180.835 229.437C181.006 228.538 181.174 227.658 181.345 226.804C182.081 223.059 183.25 216.273 183.839 212.518C183.867 212.312 183.935 212.114 184.039 211.935L184.277 211.516L183.868 211.263C182.43 210.371 181.206 209.174 180.281 207.757C176.34 202.231 175.611 193.048 178.114 180.465L178.235 179.857L177.616 179.867C176.248 179.88 174.881 179.817 173.52 179.679C171.354 179.519 169.242 178.927 167.31 177.937L166.582 177.547L166.573 178.372C166.438 190.925 163.006 205.69 153.783 209.485L153.287 209.689L153.526 210.17C153.6 210.323 153.648 210.486 153.669 210.655C154.409 216.102 154.478 216.545 154.479 216.545V216.543C155.029 220.323 155.529 224.04 156.03 227.756L156.037 227.81C156.822 233.646 157.635 239.681 158.63 245.866C159.065 248.615 159.675 251.431 161.882 253.023ZM154.66 210.522C154.647 210.42 154.628 210.319 154.603 210.219C163.752 206.055 167.287 191.677 167.561 179.179C169.416 180.009 171.4 180.515 173.427 180.675C174.746 180.8 175.927 180.864 177.017 180.87C174.6 193.429 175.424 202.668 179.456 208.322C180.378 209.73 181.573 210.939 182.972 211.875C182.915 212.035 182.874 212.201 182.85 212.37C182.264 216.109 181.098 222.877 180.364 226.609C180.197 227.45 180.031 228.318 179.861 229.204L179.812 229.458C178.596 235.847 177.216 243.089 173.877 248.151C172.784 250.007 171.218 251.539 169.339 252.591C167.11 253.519 164.579 253.379 162.466 252.212C160.571 250.845 160.02 248.25 159.617 245.708C158.625 239.535 157.812 233.507 157.028 227.677L156.989 227.388C156.498 223.746 156.007 220.101 155.466 216.378C155.437 216.212 154.988 212.937 154.66 210.522Z" fill="black"/>
<path d="M183.294 630.619C182.504 634.379 177.614 635.269 174.655 637.709C171.184 640.559 171.274 642.269 170.564 648.049C170.155 651.339 170.524 655.479 167.544 656.939C165.574 658.009 160.004 657.949 158.294 657.619C156.473 657.48 155.082 655.935 155.135 654.109C155.045 651.983 156.029 649.954 157.754 648.709C161.104 646.339 161.094 642.659 161.084 638.999C161.05 637.69 161.097 636.381 161.224 635.079C162.294 626.419 164.604 621.849 164.964 614.369C165.564 605.359 166.078 596.392 166.504 587.469L180.155 587.699C178.484 597.459 176.925 606.949 175.474 616.019C175.387 616.613 175.421 617.218 175.574 617.799C176.165 620.149 178.435 622.209 179.994 623.699C181.925 625.549 183.854 628.009 183.294 630.619Z" fill="white"/>
<path fillRule="evenodd" clipRule="evenodd" d="M158.198 658.11C159.295 658.274 160.403 658.348 161.512 658.33C163.785 658.33 166.47 658.091 167.763 657.388C170.428 656.082 170.67 652.878 170.883 650.051L170.885 650.018C170.934 649.368 170.983 648.724 171.06 648.109L171.227 646.716L171.227 646.714C171.784 641.998 171.953 640.574 174.972 638.095C176.017 637.302 177.137 636.613 178.316 636.037C180.723 634.761 183.211 633.44 183.782 630.723C184.272 628.441 183.145 626.026 180.339 623.338L180.083 623.094C178.606 621.687 176.581 619.761 176.058 617.674C175.921 617.16 175.891 616.624 175.968 616.098C177.56 606.138 179.091 596.876 180.647 587.783L180.744 587.209L166.026 586.961L166.004 587.444C165.568 596.484 165.051 605.532 164.465 614.345C164.224 617.945 163.624 621.513 162.674 624.994C161.822 628.293 161.172 631.641 160.728 635.02C160.596 636.342 160.547 637.671 160.583 639C160.594 642.642 160.604 646.08 157.464 648.301C155.602 649.647 154.539 651.837 154.635 654.133C154.586 656.192 156.147 657.934 158.198 658.11ZM165.463 614.402C166.039 605.749 166.549 596.861 166.979 587.977L179.563 588.189C178.04 597.101 176.539 606.186 174.979 615.945C174.883 616.604 174.92 617.276 175.088 617.921C175.682 620.284 177.826 622.326 179.392 623.817L179.394 623.818L179.648 624.06C182.183 626.489 183.215 628.601 182.804 630.515V630.517C182.329 632.776 180.152 633.932 177.848 635.154C176.609 635.759 175.432 636.486 174.336 637.322C171.006 640.057 170.796 641.837 170.234 646.596L170.233 646.598L170.067 647.987C169.987 648.627 169.937 649.298 169.886 649.976C169.684 652.66 169.474 655.436 167.305 656.499C165.493 657.483 160.048 657.447 158.389 657.129C156.798 657.03 155.576 655.681 155.634 654.088C155.551 652.132 156.456 650.265 158.042 649.117C161.605 646.597 161.594 642.735 161.583 638.997L161.583 638.995C161.548 637.709 161.594 636.421 161.72 635.141C162.161 631.8 162.804 628.49 163.647 625.228C164.612 621.689 165.221 618.062 165.463 614.402Z" fill="black"/>
<path d="M167.714 509.478C167.654 510.198 167.334 512.018 166.144 512.678C165.204 513.188 162.944 513.468 162.264 510.198C161.494 506.528 159.304 501.188 158.084 497.638C157.784 496.778 157.344 495.728 156.814 494.588C155.005 490.695 152.86 486.968 150.404 483.448C147.514 480.208 124.284 468.108 119.744 465.678L126.414 453.188C134.814 459.818 143.774 466.808 152.904 474.978C153.664 475.629 154.601 476.039 155.594 476.157C158.444 476.637 162.656 475.18 165.026 476.72C169.996 479.92 165.534 487.537 165.344 490.618C164.974 496.568 168.214 503.518 167.714 509.478Z" fill="white"/>
<path fillRule="evenodd" clipRule="evenodd" d="M163.713 513.231C164.083 513.402 164.486 513.489 164.894 513.487C165.414 513.485 165.926 513.357 166.386 513.112C167.907 512.268 168.174 509.969 168.212 509.517C168.473 506.409 167.739 503.029 167.029 499.76L167.026 499.75C166.232 496.781 165.834 493.719 165.843 490.646C165.994 489.593 166.25 488.558 166.607 487.556L166.607 487.556C167.734 483.887 169.278 478.86 165.298 476.299C163.714 475.27 161.49 475.45 159.34 475.625L159.325 475.626C158.116 475.779 156.892 475.792 155.68 475.663C154.777 475.562 153.926 475.192 153.236 474.602C144.77 467.026 136.547 460.54 128.594 454.268L128.581 454.258L126.254 452.422L119.066 465.88L119.507 466.115C120 466.38 120.714 466.758 121.598 467.226L121.631 467.243C128.745 471.013 147.518 480.961 150.004 483.746C152.438 487.239 154.565 490.936 156.36 494.796C156.891 495.937 157.323 496.975 157.61 497.797C157.939 498.753 158.338 499.839 158.76 500.986L158.805 501.108C159.991 504.104 160.983 507.174 161.774 510.297C161.906 511.532 162.629 512.626 163.713 513.231ZM122.065 466.342C121.419 466 120.864 465.705 120.42 465.469L126.572 453.947L127.962 455.043L127.995 455.069C135.929 461.327 144.134 467.798 152.561 475.338C153.39 476.062 154.418 476.519 155.511 476.648C156.806 476.793 158.114 476.784 159.407 476.623C161.397 476.46 163.453 476.292 164.755 477.139C168.1 479.292 166.742 483.711 165.651 487.262C165.268 488.338 164.997 489.452 164.845 490.584C164.826 493.75 165.231 496.904 166.049 499.963L166.05 499.969C166.745 503.167 167.464 506.473 167.216 509.433C167.197 509.655 167.001 511.627 165.905 512.235C165.358 512.531 164.707 512.563 164.134 512.324C163.346 511.842 162.833 511.014 162.753 510.093C161.953 506.921 160.947 503.804 159.743 500.763C159.307 499.577 158.895 498.456 158.555 497.47C158.257 496.614 157.812 495.544 157.267 494.374C155.435 490.439 153.263 486.67 150.776 483.112C148.44 480.493 134.206 472.774 122.065 466.342Z" fill="black"/>
<path d="M160.993 203.84C163.3 206.334 167.086 207.226 170.374 207.3C172.898 207.357 176.35 207.033 178.127 204.981C178.546 204.496 177.842 203.786 177.419 204.273C175.823 206.118 172.632 206.351 170.374 206.3C167.376 206.232 163.807 205.411 161.7 203.133C161.262 202.66 160.556 203.368 160.993 203.84Z" fill="black"/>
<path d="M90.4289 34.5158C81.0949 35.0998 71.8159 32.7103 63.9249 27.6906C58.6459 24.3131 54.0639 19.7917 48.3449 17.2287C41.327 14.0836 33.0904 14.2295 25.8237 16.747C18.4552 19.194 11.9211 23.6592 6.96395 29.6349C4.45863 32.5199 -0.558143 40.482 1.52956 45.1459L25.0819 38.1889C26.4449 37.6653 27.9146 37.48 29.3649 37.6489C30.7513 38.0298 32.0043 38.7889 32.9839 39.8414C39.5514 46.1675 42.5495 55.3415 40.9854 64.3251C40.5807 66.5205 39.8217 68.7898 38.1087 70.2213C36.9808 71.054 35.7138 71.6796 34.367 72.0689L11.7657 80.0669C12.2992 81.496 13.1947 82.762 14.3645 83.741C26.0205 92.1398 47.0985 93.5737 58.8939 83.3249C62.6567 80.0554 66.0724 76.4158 69.7683 73.0709C73.4642 69.7259 77.8147 66.7919 82.7559 66.1336L261.278 58.301C270.601 57.5583 279.92 59.7895 287.895 64.6742C293.231 67.9614 297.889 72.4042 303.651 74.8695C310.721 77.8947 318.954 77.6087 326.177 74.9679C333.502 72.3958 339.96 67.8201 344.814 61.7609C347.27 58.8337 352.151 50.7874 349.984 46.1597L326.554 53.5164C325.2 54.0632 323.733 54.2735 322.28 54.1293C320.888 53.772 319.622 53.0343 318.625 51.9987C311.95 45.7853 308.797 36.6636 310.208 27.6547C310.575 25.4528 311.295 23.1708 312.984 21.7104C314.097 20.8586 315.353 20.2115 316.693 19.7994L339.155 11.418C338.598 9.99821 337.681 8.74765 336.494 7.78876C324.697 -0.410573 303.598 -1.48556 291.979 8.96254C288.272 12.2955 284.919 15.9928 281.28 19.4001C277.642 22.8075 273.342 25.8151 268.412 26.5574L90.4289 34.5158Z" fill="white"/>
<path fillRule="evenodd" clipRule="evenodd" d="M14.0717 84.1437C20.058 88.4572 28.6879 91.0348 37.3188 91.0338C45.3275 91.0333 53.3363 88.8126 59.2211 83.6993C61.3187 81.8761 63.3383 79.9108 65.2914 78.0099L65.3648 77.9385C66.9024 76.4426 68.4899 74.8983 70.1039 73.4386C74.5648 69.4 78.725 67.172 82.7768 66.63L261.319 58.7965C270.536 58.0556 279.75 60.2618 287.631 65.0968C289.595 66.3064 291.504 67.7018 293.351 69.0518L293.369 69.0646C296.483 71.5264 299.866 73.6269 303.454 75.3258C310.243 78.2321 318.589 78.2716 326.348 75.4347C333.757 72.8351 340.288 68.2077 345.197 62.0792C347.876 58.8863 352.682 50.7408 350.436 45.9444L350.25 45.5484L326.404 53.0362C325.126 53.5533 323.743 53.7583 322.371 53.6344C321.071 53.2905 319.891 52.5959 318.96 51.6266C312.428 45.5161 309.337 36.5735 310.7 27.7335C311.151 25.0304 311.98 23.2355 313.31 22.0851C314.38 21.2739 315.584 20.6575 316.868 20.2643L339.716 11.7389L339.648 11.3316C339.067 9.77758 338.075 8.41018 336.779 7.3751C325.099 -0.743065 303.69 -2.24354 291.644 8.588C289.575 10.4484 287.586 12.4498 285.664 14.3854L285.64 14.4099C284.115 15.9448 282.54 17.5311 280.937 19.0324C276.545 23.1461 272.423 25.4445 268.389 26.0548L90.4057 34.0133L90.3959 34.0138C81.1678 34.595 71.9933 32.2324 64.1938 27.2662C62.2469 26.0211 60.3584 24.5904 58.5313 23.2062L58.5248 23.2013C55.4533 20.6869 52.1064 18.5292 48.5482 16.7697C41.809 13.7482 33.4672 13.5665 25.6586 16.2711C18.2063 18.7444 11.5978 23.2599 6.58536 29.3038C3.85196 32.4508 -1.09233 40.5128 1.07267 45.3468L1.25138 45.7462L25.2231 38.6657C26.5091 38.1702 27.8948 37.9887 29.2651 38.1364C30.5582 38.5019 31.7256 39.2167 32.6391 40.2023C39.0666 46.4221 42.0064 55.4157 40.4936 64.2311C39.9955 66.9269 39.1361 68.7076 37.7875 69.8346C36.7041 70.628 35.4892 71.2239 34.1986 71.5949L11.2094 79.7306L11.2709 80.1388C11.8252 81.7024 12.7932 83.0865 14.0717 84.1437ZM14.6557 83.3322C13.7052 82.513 12.9364 81.5041 12.3988 80.3703L34.5326 72.5372C35.9356 72.1283 37.2546 71.4731 38.4281 70.6022C39.9652 69.317 40.934 67.3507 41.477 64.4127C43.0472 55.2642 39.9967 45.9305 33.3266 39.4752C32.2805 38.3563 30.9418 37.5528 29.4623 37.1559C27.9325 36.9714 26.3807 37.1604 24.9398 37.7067L1.82657 44.5333C0.326567 40.1212 4.92322 32.7433 7.34122 29.9596C12.2405 24.0497 18.7009 19.6344 25.9867 17.2164C33.556 14.5944 41.6313 14.7653 48.14 17.6818C51.6276 19.4129 54.9088 21.532 57.9213 23.9987L57.9619 24.0294C59.794 25.4169 61.6868 26.8503 63.6547 28.109C71.6328 33.1838 81.0136 35.6005 90.4506 35.0123L268.486 27.0489C272.78 26.4025 277.076 24.0187 281.621 19.7618C283.229 18.2557 284.804 16.6702 286.329 15.1355L286.374 15.09C288.287 13.1642 290.264 11.173 292.312 9.33117C301.7 0.889766 322.035 -1.65369 336.208 8.19641C337.173 8.99922 337.959 9.99479 338.516 11.1193L316.518 19.3278C315.122 19.7609 313.815 20.4384 312.656 21.3288C311.161 22.6222 310.198 24.6637 309.713 27.5695C308.299 36.7435 311.508 46.0239 318.287 52.3654C319.352 53.4654 320.704 54.2456 322.189 54.6178C323.722 54.7754 325.271 54.5601 326.703 53.9904L349.696 46.7707C351.27 51.1564 346.8 58.6124 344.431 61.4367C339.632 67.4288 333.248 71.9533 326.004 74.4953C318.481 77.2462 310.406 77.2135 303.846 74.4069C300.33 72.7351 297.013 70.6723 293.958 68.2575C292.091 66.8917 290.16 65.4796 288.157 64.2453C280.097 59.3063 270.679 57.0492 261.256 57.7985L82.6889 65.6349C78.3852 66.2081 74.0492 68.5182 69.432 72.6974C67.7807 74.1925 66.1606 75.7687 64.5941 77.2931L64.5728 77.3139C62.6361 79.1985 60.6344 81.1464 58.5648 82.9445C49.0346 91.2257 28.6577 93.4215 14.6557 83.3322Z" fill="black"/>
<path fillRule="evenodd" clipRule="evenodd" d="M82.612 50.309C82.7243 54.7964 86.3929 58.3766 90.8817 58.3794C91.0223 58.3794 91.1639 58.3755 91.3055 58.3687L264.547 49.5992C269.112 49.3678 272.626 45.479 272.395 40.9134C272.163 36.3477 268.275 32.8341 263.709 33.0655L90.4676 41.835C85.9846 42.0624 82.4997 45.8216 82.612 50.309ZM263.76 34.0645C263.885 34.058 264.009 34.0547 264.132 34.0547C268.079 34.0565 271.305 37.2042 271.403 41.1499C271.502 45.0956 268.438 48.4008 264.496 48.6002L91.2547 57.3697C87.2408 57.573 83.8221 54.4839 83.6187 50.47C83.4154 46.4561 86.5045 43.0374 90.5184 42.834L263.76 34.0645Z" fill="black"/>
<path d="M192.841 75.0227C190.23 71.8186 187.005 69.1674 183.357 67.2241C181.769 66.4105 180.559 65.9848 178.634 64.944C177.298 64.28 176.164 63.2714 175.348 62.0224L178.942 61.8647C179.585 62.3491 180.284 62.7542 181.023 63.0711C181.504 63.2768 181.949 62.7667 181.603 62.3749C178.812 59.2213 172.58 54.1291 169.407 50.6852C169.147 50.4037 167.91 48.9724 168.81 48.2577C169.43 47.7647 170.165 48.4397 170.334 48.6012C172.43 50.5997 174.42 52.0053 176.576 53.9389C176.749 54.0946 177.596 54.9457 178.125 54.6441C178.544 54.4046 178.087 53.9015 178.087 53.9015C175.769 51.5245 173.44 49.9083 171.201 47.4571C170.615 46.8167 168.446 44.6654 169.745 43.7107C170.149 43.414 170.732 43.7468 171.055 44.0617L177.243 50.0837C178.152 50.9684 179.984 52.5398 180.299 52.2978C180.59 52.0375 180.382 51.6918 180.118 51.3279C177.341 48.3431 175.491 46.6473 172.976 43.7568C172.426 43.1246 171.79 42.1359 172.402 41.5857C173.37 40.7995 175.218 42.8638 176.042 43.7759C177.706 45.617 178.657 46.9964 180.687 48.9024C181.267 49.4469 182.402 50.4717 182.704 50.156C182.704 50.156 184.202 50.1915 177.915 43.7492C177.146 42.9614 176.593 42.0938 176.859 41.8413C177.342 40.831 179.064 41.4663 180.567 43.2132L183.913 47.033C185.837 49.1123 188.217 52.2696 190.155 54.7391C192.533 57.7703 195.379 61.9571 195.676 67.4424C195.862 68.5756 196.477 69.5937 197.394 70.2853" fill="white"/>
<path d="M192.5 75.2836C189.928 72.1293 186.753 69.5195 183.161 67.6068C182.49 67.2636 181.888 66.9901 181.271 66.7094C180.423 66.3246 179.547 65.9266 178.429 65.3217C177.022 64.6093 175.827 63.5395 174.965 62.2197L174.657 61.6235L179.058 61.4301L179.172 61.5029C179.444 61.6762 179.641 61.8105 179.81 61.9262C180.237 62.2337 180.701 62.4858 181.191 62.6767C181.268 62.7094 181.297 62.6669 181.297 62.6664C179.865 61.06 177.484 58.8925 175.182 56.7963C172.953 54.767 170.648 52.6684 169.09 50.9765C168.495 50.4058 168.129 49.6377 168.061 48.8163C168.086 48.4632 168.261 48.1379 168.542 47.9218C169.123 47.4594 169.904 47.5981 170.63 48.2914C171.799 49.4052 172.914 50.3173 174.096 51.2831C174.989 52.0136 175.913 52.769 176.862 53.6196C177.122 53.9185 177.455 54.1444 177.828 54.2748C177.81 54.244 177.789 54.2149 177.766 54.1879C176.729 53.1259 175.659 52.1913 174.624 51.287C173.31 50.1798 172.06 48.9978 170.882 47.747L170.741 47.5957C169.736 46.5166 168.818 45.3779 168.914 44.3579C168.951 43.9584 169.162 43.5953 169.49 43.3652C170.124 43.0298 170.907 43.1933 171.354 43.7544L177.542 49.7764C178.259 50.4847 179.034 51.131 179.859 51.7085C179.833 51.6709 179.804 51.6279 179.769 51.5806C178.701 50.4375 177.747 49.4575 176.838 48.5254C175.469 47.1187 174.174 45.7905 172.65 44.0391C171.642 42.8789 171.445 41.8687 172.113 41.2671C173.399 40.2158 175.312 42.3266 176.336 43.4614C176.924 44.1118 177.406 44.6826 177.875 45.2387C178.838 46.4202 179.876 47.5394 180.98 48.5898C181.396 49.011 181.857 49.3847 182.355 49.7041C182.129 49.1928 181.22 47.7519 177.606 44.0493C177.228 43.6611 176.348 42.685 176.36 42.0088C176.36 41.861 176.409 41.7173 176.499 41.6001C176.689 41.2362 177.048 40.9905 177.456 40.9443C178.398 40.8125 179.728 41.5796 180.892 42.9341L184.235 46.751C185.79 48.4311 187.666 50.8442 189.32 52.9731L190.491 54.4746C192.947 57.6045 195.805 61.9043 196.105 67.4194C196.285 68.406 196.82 69.2927 197.607 69.9136L197.178 70.6577C196.132 69.8957 195.437 68.7456 195.247 67.4658C194.962 62.2212 192.342 58.2236 189.815 55.0049L188.643 53.5005C186.998 51.3847 185.135 48.9873 183.597 47.3252L180.243 43.4966C179.152 42.228 178.093 41.73 177.569 41.7954C177.426 41.8056 177.301 41.8952 177.245 42.0273L177.226 42.0669C177.455 42.5936 177.795 43.0651 178.222 43.4497C183.729 49.0932 183.381 49.8916 183.232 50.2329C183.17 50.3792 183.05 50.4934 182.9 50.5488C182.385 50.9018 181.546 50.2978 180.393 49.2158C179.264 48.1433 178.204 47 177.22 45.793C176.756 45.2436 176.279 44.6802 175.724 44.064C174.115 42.2847 173.091 41.5732 172.671 41.9194C172.376 42.1865 172.821 42.9272 173.299 43.4756C174.807 45.2085 176.092 46.5288 177.453 47.9263C178.366 48.8628 179.325 49.8472 180.431 51.0356C180.681 51.375 181.19 52.0762 180.584 52.6182C180.379 52.7768 179.83 53.2022 176.942 50.3916L170.755 44.3696C170.509 44.1299 170.145 43.9492 169.998 44.0571C169.867 44.1418 169.782 44.2824 169.769 44.438C169.696 45.2148 170.912 46.519 171.37 47.0097L171.517 47.1679C172.672 48.3955 173.898 49.5548 175.189 50.6401C176.236 51.5556 177.32 52.5019 178.394 53.602C178.621 53.837 178.74 54.1567 178.721 54.4834C178.682 54.7111 178.54 54.9082 178.337 55.0175C177.572 55.4531 176.671 54.6147 176.331 54.2988C175.355 53.4214 174.439 52.6723 173.552 51.9477C172.41 51.0146 171.23 50.0498 170.037 48.9126C169.852 48.7343 169.388 48.3476 169.076 48.5942C168.982 48.6613 168.923 48.7677 168.917 48.8833C169.009 49.4628 169.292 49.9949 169.722 50.395C171.255 52.0586 173.545 54.1445 175.761 56.1616C178.186 58.3701 180.478 60.4565 181.923 62.0908C182.202 62.3875 182.231 62.8404 181.992 63.1704C181.731 63.5262 181.255 63.6497 180.854 63.4663C180.311 63.2528 179.797 62.9734 179.323 62.6343C179.186 62.54 179.029 62.4326 178.824 62.3003L176.117 62.4189C176.881 63.299 177.804 64.0275 178.837 64.5664C179.929 65.1572 180.791 65.5488 181.625 65.9277C182.255 66.2138 182.869 66.4927 183.552 66.8423C187.257 68.8156 190.53 71.5081 193.182 74.7622L192.5 75.2836Z" fill="black"/>
<path d="M149.658 77.3313C151.61 73.9001 154.258 70.9146 157.431 68.5664C158.862 67.4993 159.984 66.8778 161.709 65.5307C162.628 64.8125 163.97 63.8444 164.369 62.6223L160.93 62.6961C160.357 63.2316 159.723 63.697 159.04 64.0824C158.6 64.3654 158.076 63.9366 158.353 63.4925C160.578 59.9178 165.875 53.8578 168.429 49.9331C168.638 49.6122 169.62 47.9946 168.613 47.4399C167.919 47.0574 167.307 47.8455 167.167 48.0329C165.433 50.3529 163.706 52.0705 161.903 54.3365C161.758 54.519 161.064 55.4993 160.493 55.2901C160.04 55.1239 160.406 54.5516 160.406 54.5516C162.296 51.8214 164.323 49.8395 166.122 47.0492C166.592 46.3202 168.373 43.8373 166.932 43.1127C166.485 42.8874 165.965 43.3127 165.699 43.6771L160.602 50.6466C159.853 51.6705 158.309 53.5254 157.958 53.3392C157.628 53.131 157.776 52.7555 157.975 52.3526C160.215 48.9466 161.757 46.9661 163.755 43.6967C164.192 42.9817 164.653 41.9009 163.959 41.4603C162.873 40.8466 161.395 43.1901 160.734 44.2269C159.401 46.3196 158.693 47.8383 157.009 50.056C156.528 50.6896 155.58 51.8892 155.23 51.6283C155.23 51.6283 153.759 51.913 158.883 44.5128C159.51 43.6078 159.911 42.6601 159.607 42.4555C158.962 41.5398 157.37 42.4535 156.179 44.4265L153.517 48.7507C151.966 51.1216 150.146 54.6315 148.647 57.3896C146.807 60.7749 144.699 65.3776 145.321 70.8357C145.327 71.984 144.89 73.0904 144.102 73.9252" fill="white"/>
<path fillRule="evenodd" clipRule="evenodd" d="M149.278 77.1293L150.038 77.5297C151.962 74.1563 154.568 71.2203 157.688 68.9084C158.293 68.4577 158.841 68.0876 159.404 67.7073C160.175 67.1872 160.973 66.6487 161.974 65.8669L162.181 65.7058C163.307 64.9863 164.208 63.9626 164.777 62.7532L164.966 62.1775L160.762 62.2683L160.644 62.3752C160.215 62.7872 159.74 63.1482 159.229 63.4509L158.809 63.719C158.738 63.7654 158.702 63.7268 158.718 63.7175C159.845 61.9075 161.826 59.3794 163.742 56.9329L163.75 56.9226C165.61 54.5491 167.534 52.0945 168.789 50.1653C169.281 49.5042 169.514 48.6857 169.444 47.8645C169.36 47.5201 169.133 47.228 168.82 47.0618C168.17 46.7034 167.424 46.9704 166.823 47.7737C165.856 49.0686 164.907 50.1545 163.903 51.3039C163.145 52.1726 162.36 53.0705 161.521 54.1277C161.088 54.6902 160.84 54.8386 160.723 54.8747C160.733 54.8467 160.746 54.8196 160.761 54.7937C161.615 53.5578 162.515 52.4573 163.385 51.3928C164.496 50.0828 165.53 48.7096 166.482 47.28L166.595 47.1096C167.408 45.8777 168.124 44.6008 167.859 43.6101C167.756 43.2224 167.488 42.8996 167.126 42.7273C166.445 42.5006 165.699 42.7926 165.353 43.4216L160.256 50.3909C159.666 51.211 159.008 51.9792 158.287 52.6872C158.301 52.6565 158.316 52.6228 158.334 52.5862C159.222 51.237 159.999 50.1125 160.739 49.0422L160.777 48.988C161.879 47.3918 162.925 45.878 164.121 43.9187C164.924 42.6062 164.948 41.5774 164.17 41.0847C162.747 40.2761 161.214 42.6745 160.372 43.9939C159.92 44.7038 159.539 45.3484 159.168 45.9763C158.416 47.3003 157.581 48.5754 156.668 49.7942C156.328 50.2798 155.936 50.7261 155.497 51.1247C155.634 50.5852 156.287 49.0144 159.236 44.7551C159.546 44.3093 160.251 43.1999 160.125 42.5354C160.101 42.3895 160.029 42.2558 159.921 42.155C159.674 41.8268 159.278 41.6439 158.868 41.6677C157.906 41.7014 156.735 42.6726 155.814 44.1989L153.158 48.5134C151.899 50.4387 150.452 53.1296 149.176 55.5036L148.271 57.1823C146.37 60.6775 144.271 65.3938 144.895 70.882C144.888 71.8864 144.508 72.8524 143.828 73.592L144.375 74.2542C145.28 73.3289 145.775 72.0788 145.748 70.7849C145.154 65.5657 147.071 61.1873 149.024 57.5925L149.933 55.9104C151.2 53.5515 152.638 50.8777 153.883 48.9734L156.547 44.6458C157.41 43.2161 158.371 42.5447 158.898 42.5261C159.041 42.514 159.178 42.581 159.256 42.7005L159.282 42.7371C159.144 43.2944 158.888 43.8157 158.531 44.2659C154.042 50.7483 154.518 51.4783 154.721 51.7898C154.807 51.9237 154.945 52.0163 155.102 52.0462C155.676 52.3079 156.396 51.5711 157.352 50.3137C158.285 49.0688 159.139 47.7659 159.907 46.4129L159.918 46.394C160.281 45.7803 160.654 45.1491 161.116 44.4241C162.385 42.4349 163.275 41.5608 163.729 41.8211C164.085 42.0462 163.768 42.8504 163.389 43.471C162.19 45.4314 161.143 46.948 160.032 48.554C159.289 49.6292 158.509 50.7591 157.591 52.16C157.427 52.4911 157.043 53.2669 157.757 53.7161C157.96 53.8245 158.569 54.1498 160.949 50.8978L166.046 43.9286C166.245 43.6571 166.58 43.4115 166.739 43.4945C166.883 43.5557 166.991 43.6801 167.03 43.8315C167.231 44.5863 166.248 46.0761 165.878 46.6366L165.761 46.8149C164.827 48.2176 163.812 49.5648 162.721 50.8495L162.715 50.8563C161.836 51.9318 160.927 53.0441 160.046 54.3178C159.866 54.5848 159.805 54.9147 159.878 55.2284C159.954 55.4467 160.127 55.6174 160.346 55.6908C161.166 55.9929 161.915 55.0225 162.237 54.6045L162.239 54.602C163.013 53.6297 163.784 52.7462 164.53 51.8921L164.55 51.8691C165.521 50.7577 166.523 49.6088 167.511 48.2885C167.703 48.0331 168.072 47.6308 168.406 47.8139C168.51 47.8651 168.585 47.9601 168.611 48.0727C168.617 48.6592 168.427 49.2307 168.07 49.6967C166.837 51.5914 164.928 54.0271 163.082 56.3833L163.074 56.3934C161.052 58.974 159.142 61.412 157.989 63.2636C157.764 63.6026 157.811 64.0535 158.101 64.3392C158.419 64.6446 158.907 64.687 159.273 64.4413L159.689 64.1752C160.196 63.8757 160.669 63.5219 161.099 63.12L163.685 63.0643C163.121 63.8261 162.435 64.4894 161.654 65.0272L161.444 65.1903C160.467 65.954 159.683 66.4838 158.924 66.996C158.35 67.3832 157.791 67.7611 157.175 68.2201C153.945 70.6006 151.254 73.6366 149.278 77.1293Z" fill="black"/>
<path d="M149.914 80.0216C135.284 104.572 125.324 130.332 120.614 160.342C118.664 172.242 120.399 184.454 125.584 195.342C129.564 203.622 137.274 210.022 145.764 210.892C145.741 211.098 145.748 211.307 145.784 211.512C147.082 218.206 147.828 224.995 148.014 231.812C148.104 240.282 147.174 251.152 145.084 259.252C143.484 265.472 139.694 272.582 136.044 276.162C138.554 262.742 135.324 248.732 130.804 241.242C124.974 231.482 116.094 222.252 109.994 210.912C103.534 198.902 101.344 191.802 101.244 181.162C101.264 171.571 102.425 162.017 104.704 152.702C107.964 139.462 120.264 102.942 141.894 75.0216C142.558 74.1608 143.734 73.8816 144.714 74.3516L148.944 76.7916C149.524 77.0679 149.96 77.5764 150.145 78.1917C150.33 78.8069 150.246 79.4716 149.914 80.0216Z" fill="white"/>
<path fillRule="evenodd" clipRule="evenodd" d="M135.553 276.069L135.261 277.629L136.395 276.517C140.086 272.897 143.943 265.688 145.568 259.375C147.862 250.483 148.594 239.303 148.514 231.805C148.366 225.468 147.701 219.154 146.526 212.926L146.275 211.417C146.248 211.259 146.243 211.098 146.262 210.939L146.31 210.444L145.814 210.393C137.865 209.579 130.102 203.585 126.034 195.124C120.892 184.328 119.173 172.219 121.108 160.418C125.626 131.63 134.916 106.164 150.343 80.2777C150.747 79.6043 150.848 78.7919 150.622 78.04C150.402 77.3044 149.884 76.6944 149.194 76.3573L144.93 73.8998C143.737 73.3295 142.308 73.6687 141.498 74.7142C120.502 101.817 107.932 137.5 104.219 152.581C101.924 161.936 100.758 171.533 100.744 181.165C100.844 191.775 102.901 198.78 109.554 211.147C113.051 217.294 117.014 223.165 121.408 228.707C124.621 232.81 127.615 237.08 130.376 241.499C134.656 248.591 138.103 262.434 135.553 276.069ZM142.29 75.3251C142.635 74.8801 143.166 74.6196 143.729 74.6195C143.983 74.6185 144.234 74.6746 144.464 74.7836L148.73 77.242C149.182 77.4542 149.523 77.8498 149.665 78.329C149.809 78.811 149.744 79.3315 149.485 79.763L149.484 79.7645C133.989 105.766 124.659 131.345 120.12 160.263C118.153 172.264 119.903 184.579 125.134 195.557C129.27 204.164 137.13 210.31 145.258 211.336C145.264 211.422 145.275 211.507 145.291 211.592L145.54 213.09C146.705 219.268 147.366 225.531 147.514 231.816C147.594 239.249 146.87 250.327 144.6 259.126C143.103 264.765 140.453 270.033 136.816 274.596C138.852 261.249 135.434 247.944 131.233 240.984C128.454 236.535 125.441 232.236 122.207 228.105C117.845 222.603 113.909 216.776 110.435 210.674C103.872 198.473 101.842 191.577 101.744 181.156C101.758 171.607 102.915 162.094 105.189 152.82C108.885 137.81 121.395 102.297 142.29 75.3251Z" fill="black"/>
<path d="M237.315 194.486C230.505 209.226 222.405 217.716 211.285 236.146C202.585 250.426 203.445 267.056 206.845 282.056C207.385 284.426 208.465 288.346 209.285 291.236C208.914 290.921 208.515 290.64 208.095 290.396C200.265 285.786 193.725 271.756 191.565 258.806C189.145 244.326 188.425 228.616 191.325 214.176C191.356 214.014 191.373 213.85 191.375 213.686C191.998 213.647 192.619 213.574 193.235 213.466C197.705 212.666 202.335 209.596 205.515 206.356C222.345 189.186 231.705 153.976 226.935 130.406C222.305 107.576 209.065 92.2058 193.035 77.2558C192.637 76.8853 192.407 76.3682 192.4 75.8244C192.392 75.2806 192.607 74.7573 192.995 74.3758L196.765 70.2858C197.507 69.5553 198.686 69.5162 199.475 70.1958C212.699 81.2932 223.851 94.6463 232.415 109.636C236.946 117.731 240.594 126.291 243.295 135.166C249.715 157.486 246.115 175.446 237.315 194.486Z" fill="white"/>
<path fillRule="evenodd" clipRule="evenodd" d="M208.957 291.616L210.222 292.708L209.766 291.101C209.107 288.781 207.915 284.508 207.331 281.947C203.069 263.138 204.501 248.241 211.712 236.406C216.215 228.943 220.272 223.039 223.852 217.83L223.853 217.829L223.854 217.827C229.139 210.138 233.703 203.496 237.768 194.697V194.697C247.779 173.039 249.575 155.195 243.775 135.029C241.07 126.111 237.405 117.512 232.845 109.384C224.256 94.3453 213.068 80.9493 199.8 69.8185C198.804 68.9713 197.325 69.0279 196.397 69.9489L192.646 74.0197C192.16 74.4898 191.89 75.1396 191.899 75.8156C191.903 76.5019 192.191 77.1559 192.694 77.6232C209.739 93.5206 222 108.597 226.444 130.506C231.334 154.671 221.586 189.246 205.158 206.007C202.384 208.833 197.773 212.148 193.147 212.975C192.55 213.079 191.947 213.151 191.342 213.189L190.874 213.219V213.688C190.873 213.819 190.859 213.95 190.833 214.079C188.207 227.157 188.288 242.234 191.071 258.89C193.099 271.049 199.51 285.924 207.838 290.827C208.234 291.056 208.609 291.32 208.957 291.616ZM191.814 214.274C191.822 214.234 191.83 214.194 191.835 214.154C192.348 214.109 192.846 214.044 193.322 213.96C197.448 213.221 202.139 210.51 205.872 206.708C222.501 189.741 232.372 154.754 227.424 130.308C222.928 108.138 210.561 92.9205 193.377 76.8932C193.075 76.613 192.902 76.2204 192.899 75.8082C192.896 75.396 193.063 75.0009 193.362 74.7164L197.116 70.6437C197.674 70.0993 198.556 70.0703 199.149 70.5768C212.332 81.6374 223.449 94.9483 231.984 109.891C236.488 117.953 240.118 126.473 242.814 135.306C248.541 155.22 246.761 172.857 236.86 194.277V194.278C232.83 203 228.288 209.61 223.029 217.262C219.441 222.483 215.374 228.401 210.858 235.887C203.505 247.954 202.034 263.093 206.357 282.169C206.843 284.306 207.746 287.612 208.418 290.009C208.395 289.995 208.371 289.981 208.348 289.967C200.282 285.218 194.047 270.656 192.057 258.725C189.293 242.19 189.211 227.235 191.814 214.274Z" fill="black"/>
<path d="M219.822 392.7C216.962 407.99 211.932 425.38 208.752 439.12C198.639 482.831 191.018 538.688 182.837 586.701C182.693 587.577 182.034 588.279 181.169 588.48C176.119 589.63 169.3 588.753 165.974 588.193C164.845 588.007 164.044 586.993 164.124 585.852C165.269 569.627 172.803 456.584 166.402 376.67C166.402 376.67 164.922 352.66 159.732 348.81C156.332 346.28 151.582 345.9 141.352 352.23C141.352 352.23 91.432 385.52 76.342 395.32C70.852 399.1 71.382 403.02 73.342 407.3C73.8387 408.393 74.5261 409.389 75.372 410.24C92.882 427.8 110.432 437.81 127.242 451.53C129.066 453.007 123.39 462.097 120.177 465.921C119.508 466.727 118.365 466.952 117.44 466.459C98.1258 456.115 73.2968 441.544 58.732 433.16C50.5347 428.503 42.7261 423.192 35.382 417.28C30.8953 413.894 27.5158 409.251 25.672 403.94C21.9918 393.34 28.7418 383.86 32.672 379.38C56.0219 352.81 105.582 316.71 119.882 302.2C126.124 295.984 130.764 288.346 133.404 279.941C133.819 278.646 134.578 277.488 135.599 276.589C139.382 273.164 143.409 265.733 145.082 259.26C147.172 251.16 147.646 240.228 147.556 231.758C147.37 224.946 146.62 218.162 145.316 211.474C145.214 210.855 145.379 210.222 145.769 209.731C146.16 209.24 146.74 208.938 147.366 208.898L152.224 208.677C153.388 208.599 154.414 209.435 154.571 210.591C154.889 212.936 155.371 216.436 155.378 216.47C156.808 226.31 157.502 235.72 159.122 245.79C159.522 248.32 160.092 251.12 162.172 252.62C164.434 253.904 167.165 254.06 169.558 253.041C171.508 251.941 173.138 250.352 174.288 248.431C178.198 242.501 178.966 233.668 180.356 226.708C181.092 223.003 182.259 216.21 182.849 212.455C182.946 211.838 183.298 211.291 183.819 210.947C184.341 210.603 184.983 210.495 185.588 210.648L190.156 211.722C191.313 212.018 192.031 213.173 191.786 214.341C188.881 228.784 189.139 244.324 191.562 258.81C193.726 271.757 200.266 285.791 208.091 290.398C210.022 291.494 211.472 293.275 212.154 295.389C215.147 305.145 218.515 314.732 220.742 326.53C224.992 348.415 224.679 370.942 219.822 392.7Z" fill="black"/>
<path d="M153.964 209.947C151.334 210.864 148.534 211.188 145.764 210.897C145.889 209.83 146.761 209.004 147.834 208.937L151.823 208.677C152.732 208.612 153.586 209.119 153.964 209.947Z" fill="black"/>
<path d="M191.373 213.687C188.64 213.826 185.93 213.128 183.604 211.687C184.106 210.826 185.118 210.402 186.084 210.647L189.693 211.557C190.673 211.801 191.364 212.677 191.373 213.687Z" fill="black"/>
<path d="M178.319 137.308C173.275 137.756 169.678 142.367 167.134 146.263C164.371 150.406 162.437 155.045 161.441 159.924C160.451 163.549 160.385 167.363 161.25 171.019C162.614 176.135 166.778 179.557 173.476 180.173C180.328 180.803 185.125 180.002 188.418 175.855C192.258 171.019 193.254 165.316 193.778 160.047C194.091 155.723 193.551 151.38 192.187 147.265C191.018 143.789 187.138 136.526 178.319 137.308Z" fill="white"/>
<path fillRule="evenodd" clipRule="evenodd" d="M173.43 180.672C174.784 180.797 176.036 180.86 177.198 180.86C182.745 180.86 186.237 179.407 188.81 176.167C192.697 171.272 193.734 165.551 194.275 160.097C194.597 155.703 194.049 151.289 192.661 147.107C192.031 145.231 188.369 135.909 178.275 136.811C173.039 137.276 169.347 141.961 166.715 145.991C163.916 150.18 161.959 154.875 160.954 159.812C159.94 163.516 159.875 167.415 160.767 171.149C162.241 176.675 166.738 180.056 173.43 180.672ZM167.553 146.538C170.06 142.697 173.555 138.234 178.363 137.808V137.808C187.729 136.979 191.124 145.675 191.713 147.426C193.057 151.473 193.59 155.746 193.281 159.999C192.753 165.3 191.752 170.853 188.027 175.545C185.154 179.163 180.954 180.357 173.522 179.676C167.278 179.102 163.091 175.982 161.734 170.891C160.886 167.315 160.953 163.583 161.928 160.039C162.91 155.216 164.82 150.63 167.553 146.538Z" fill="black"/>
<path d="M176.585 171.815C175.792 171.82 175.009 171.639 174.298 171.289C174.052 171.165 173.953 170.865 174.076 170.619C174.2 170.372 174.499 170.272 174.746 170.394C176.59 171.244 178.775 170.742 180.063 169.172C180.172 169.03 180.348 168.957 180.525 168.981C180.702 169.004 180.853 169.12 180.922 169.286C180.99 169.451 180.965 169.64 180.856 169.781C179.819 171.078 178.245 171.827 176.585 171.815Z" fill="black"/>
<path d="M174.992 163.762C174.066 163.891 173.147 163.482 172.622 162.707C172.283 162.021 172.325 161.207 172.735 160.56C173.237 159.822 174.04 159.344 174.928 159.255C175.717 159.211 176.507 159.284 177.275 159.472C177.543 159.536 177.71 159.805 177.646 160.074C177.583 160.343 177.313 160.51 177.044 160.446C176.391 160.284 175.718 160.217 175.045 160.248C174.46 160.299 173.927 160.604 173.586 161.083C173.368 161.422 173.333 161.847 173.493 162.216C173.75 162.673 174.451 162.775 175.022 162.762C175.756 162.771 176.489 162.696 177.206 162.538C177.38 162.497 177.563 162.551 177.685 162.681C177.808 162.811 177.851 162.996 177.8 163.167C177.749 163.338 177.61 163.469 177.437 163.51C176.646 163.687 175.838 163.771 175.028 163.762H174.992Z" fill="black"/>
<path d="M170.493 155.683C169.027 155.785 167.73 154.738 167.52 153.284C167.471 153.012 167.652 152.752 167.923 152.703C168.195 152.654 168.455 152.835 168.504 153.107C168.623 154.089 169.51 154.792 170.493 154.683C171.812 154.683 172.605 154.213 172.849 153.284C172.92 153.018 173.193 152.859 173.459 152.93C173.725 153 173.885 153.272 173.816 153.539C173.605 154.339 172.893 155.683 170.493 155.683Z" fill="black"/>
<path d="M184.167 156.97C184.062 156.97 183.954 156.967 183.844 156.961C182.317 156.948 181.025 155.83 180.791 154.321C180.763 154.145 180.832 153.967 180.97 153.854C181.109 153.741 181.298 153.711 181.465 153.775C181.631 153.839 181.752 153.987 181.78 154.164C181.93 155.213 182.839 155.985 183.899 155.963C184.995 156.195 186.096 155.592 186.49 154.543C186.536 154.369 186.672 154.233 186.847 154.187C187.021 154.142 187.207 154.193 187.332 154.323C187.458 154.452 187.504 154.639 187.453 154.812C187.018 156.228 185.639 157.134 184.167 156.97Z" fill="black"/>
<path d="M194.789 158.053C195.187 158.654 195.108 159.451 194.601 159.962C194.063 160.401 194.83 161.16 195.364 160.724C196.222 159.869 196.37 158.532 195.72 157.509C195.306 156.963 194.369 157.5 194.789 158.053Z" fill="black"/>
<path d="M208.063 182.831C206.919 183.757 205.513 184.299 204.043 184.381C197.428 184.842 191.446 180.459 189.893 174.011L189.733 173.981C192.503 169.581 193.323 164.641 193.773 160.041C194.035 156.758 193.779 153.454 193.013 150.251C192.206 149.679 191.368 149.151 190.503 148.671C190.141 148.538 189.814 148.326 189.543 148.051C189.336 147.767 189.19 147.444 189.113 147.101C188.533 145.161 187.953 143.218 187.373 141.271C187.39 142.803 187.198 144.331 186.803 145.811C186.551 146.733 185.612 147.286 184.683 147.061C182.546 146.55 180.367 146.232 178.173 146.111C177.675 146.084 177.211 145.849 176.895 145.463C176.579 145.076 176.441 144.575 176.513 144.081L176.983 140.891C176.163 142.661 173.333 145.731 171.083 145.681C170.263 145.661 168.893 145.521 167.713 145.381C167.513 145.681 167.323 145.971 167.133 146.261C164.371 150.404 162.439 155.043 161.443 159.921C160.65 162.937 160.453 166.08 160.863 169.171C156.433 173.401 147.143 177.101 141.463 175.091C138.283 173.961 136.673 169.701 137.503 166.431C139.443 158.801 151.173 147.671 154.153 144.471C159.043 139.241 166.803 132.861 172.613 130.311C179.913 127.091 187.433 127.051 192.893 131.681C195.258 133.888 197.141 136.561 198.423 139.531C201.863 146.671 203.963 154.361 206.053 162.001C207.053 165.651 208.05 169.301 209.043 172.951C209.963 176.331 210.663 180.501 208.063 182.831Z" fill="black"/>
<circle cx="181.366" cy="259.265" r="3.59279" fill="white"/>
<circle cx="153.265" cy="258.358" r="3.59279" fill="white"/>
<path d="M183.292 630.617C182.502 634.377 177.613 635.267 174.653 637.707C171.182 640.557 171.272 642.267 170.562 648.047C170.153 651.337 170.522 655.477 167.542 656.937C165.572 658.007 160.002 657.947 158.292 657.617C156.471 657.478 155.08 655.933 155.133 654.107C155.043 651.981 156.027 649.952 157.752 648.707C161.103 646.337 161.093 642.657 161.083 638.997C165.304 638.491 169.003 635.931 170.963 632.157C171.585 630.83 172.09 629.452 172.473 628.037C173.502 624.627 174.536 621.214 175.573 617.797C176.163 620.147 178.433 622.207 179.992 623.697C181.923 625.547 183.853 628.007 183.292 630.617Z" fill="black"/>
<path d="M167.714 509.478C167.654 510.198 167.334 512.018 166.144 512.678C165.204 513.188 162.944 513.468 162.264 510.198C161.494 506.528 159.304 501.188 158.084 497.638C157.784 496.778 157.016 495.035 156.486 493.895C158.156 490.635 158.422 487.38 158.034 483.558C157.76 480.945 156.928 478.421 155.594 476.158C158.444 476.638 162.656 475.18 165.026 476.721C169.996 479.92 165.534 487.538 165.344 490.618C164.974 496.568 168.214 503.518 167.714 509.478Z" fill="black"/>
<path d="M169.046 583.109C169.021 583.109 168.995 583.107 168.971 583.104C165.099 582.525 165.122 582.156 165.141 581.831C165.161 581.571 165.375 581.367 165.636 581.359C165.736 581.358 165.835 581.386 165.921 581.439C166.968 581.745 168.037 581.971 169.119 582.115C169.377 582.154 169.562 582.386 169.543 582.646C169.524 582.907 169.307 583.109 169.046 583.109Z" fill="white"/>
<path d="M175.218 583.552C173.999 583.552 172.773 583.502 171.576 583.404C171.444 583.393 171.321 583.33 171.236 583.229C171.15 583.128 171.108 582.997 171.119 582.864C171.145 582.591 171.384 582.389 171.658 582.407C173.123 582.527 174.593 582.571 176.136 582.543H176.145C176.421 582.541 176.647 582.762 176.65 583.038C176.653 583.314 176.431 583.541 176.155 583.543C175.837 583.549 175.525 583.552 175.218 583.552Z" fill="white"/>
<path d="M178.734 583.414C178.465 583.413 178.245 583.201 178.235 582.932C178.225 582.664 178.429 582.435 178.696 582.415C179.832 582.329 180.99 582.196 182.137 582.021C182.409 581.98 182.664 582.168 182.705 582.44C182.746 582.713 182.56 582.967 182.287 583.009C181.116 583.188 179.934 583.324 178.773 583.413C178.76 583.414 178.747 583.414 178.734 583.414Z" fill="white"/>
<path d="M112.087 462.545C112.008 462.542 111.932 462.515 111.869 462.467C111.651 462.329 111.571 462.05 111.683 461.817C111.729 461.721 111.806 461.642 111.901 461.593C112.681 460.829 113.403 460.008 114.061 459.137C114.231 458.92 114.544 458.882 114.761 459.05C114.978 459.219 115.018 459.532 114.85 459.75C113.015 462.112 112.395 462.545 112.087 462.545Z" fill="white"/>
<path d="M115.975 457.825C115.79 457.825 115.621 457.724 115.534 457.561C115.447 457.399 115.456 457.201 115.559 457.048C116.389 455.801 117.14 454.503 117.806 453.161C117.885 453.001 118.043 452.895 118.222 452.884C118.4 452.872 118.571 452.957 118.67 453.106C118.769 453.254 118.781 453.444 118.702 453.605C118.017 454.985 117.245 456.32 116.391 457.603C116.298 457.742 116.142 457.826 115.975 457.825Z" fill="white"/>
<path d="M119.322 451.504C119.156 451.504 119.001 451.422 118.908 451.284C118.815 451.147 118.796 450.972 118.858 450.818C119.288 449.751 119.657 448.662 119.965 447.554C120.038 447.288 120.313 447.132 120.579 447.206C120.845 447.279 121.001 447.554 120.928 447.82C120.611 448.964 120.23 450.09 119.786 451.191C119.71 451.381 119.526 451.505 119.322 451.504Z" fill="white"/>
<path d="M193.32 155.716C193.823 155.217 194.56 155.034 195.238 155.239C196.073 155.459 196.743 156.08 197.024 156.896C197.451 157.86 197.565 158.933 197.35 159.965C197.207 161.057 196.552 162.015 195.587 162.544C194.676 162.974 192.682 162.694 192.449 161.706L193.32 155.716Z" fill="white"/>
<path d="M193.702 156.099C194.139 155.771 194.704 155.664 195.231 155.809C195.758 155.953 196.189 156.333 196.398 156.839C196.831 157.653 196.998 158.583 196.874 159.497C196.853 160.617 196.204 161.63 195.196 162.119C194.595 162.316 193.245 162.252 192.97 161.565C192.714 160.928 191.671 161.206 191.93 161.851C192.532 162.974 193.818 163.546 195.055 163.242C196.581 162.883 197.714 161.598 197.88 160.039C198.241 158.428 197.819 156.742 196.744 155.49C195.72 154.43 194.044 154.363 192.939 155.337C192.421 155.802 193.186 156.562 193.702 156.099H193.702Z" fill="black"/>
</svg>
