<svg width="537" height="346" viewBox="0 0 537 346" fill="none" xmlns="http://www.w3.org/2000/svg">
<path d="M409.893 33.8764C408.277 31.6743 406.078 29.9671 403.544 28.947C403.305 28.8125 403.002 28.8919 402.86 29.1264C401.457 31.9855 400.023 34.8255 399.627 38.0226H400.627C400.53 34.8053 400.042 31.6373 400.513 28.4242C400.578 28.159 400.425 27.8892 400.164 27.8091C397.155 27.0587 394.27 25.8751 391.601 24.2955L391.349 25.2272C394.668 24.9994 398.066 25.1926 401.278 24.1915C401.539 24.1113 401.692 23.8416 401.627 23.5765C401.171 20.1234 400.968 16.6415 401.021 13.1587L400.039 13.2917C401.022 16.2429 402.095 19.1596 403.259 22.0417C403.304 22.1891 403.412 22.3085 403.555 22.3665C403.698 22.4246 403.859 22.415 403.994 22.3405C407.174 20.6778 409.665 17.8021 412.544 15.6991L411.86 15.015C410.083 18.4102 408.133 21.7113 406.015 24.9051C405.403 25.9024 404.948 26.3016 405.293 27.4529C406.025 29.8913 407.824 32.1625 409.03 34.3811C409.337 34.9467 410.201 34.4425 409.893 33.8764C409.278 32.7447 408.629 31.6342 407.99 30.5162C407.484 29.6321 406.352 28.2182 406.258 27.1871C406.159 26.1069 406.999 25.2149 407.601 24.2386C409.46 21.4238 411.169 18.5135 412.723 15.5198C412.916 15.1179 412.483 14.5117 412.039 14.8357C409.159 16.9397 406.666 19.8163 403.489 21.477L404.223 21.7758C403.062 18.8905 401.989 15.9738 401.003 13.0258C400.931 12.7913 400.699 12.6435 400.456 12.6764C400.213 12.7094 400.029 12.9134 400.021 13.1588C399.973 16.7309 400.188 20.3017 400.663 23.8423L401.012 23.2273C397.889 24.2007 394.577 24.0057 391.349 24.2273C391.126 24.234 390.935 24.3852 390.877 24.5996C390.819 24.814 390.908 25.0411 391.096 25.159C393.84 26.7838 396.805 28.0014 399.898 28.7734L399.549 28.1584C399.064 31.4667 399.527 34.7065 399.627 38.0227C399.637 38.2917 399.858 38.5046 400.127 38.5046C400.396 38.5046 400.617 38.2917 400.627 38.0227C400.999 35.019 402.407 32.3139 403.723 29.6311L403.039 29.8105C405.421 30.7494 407.495 32.3318 409.029 34.3811C409.381 34.9174 410.247 34.4169 409.893 33.8764Z" fill="black"/>
<path d="M535.949 239.922C534.333 237.72 532.134 236.013 529.6 234.992C529.361 234.858 529.058 234.937 528.916 235.172C527.158 238.863 525.447 243.02 525 247.108H526C525.826 242.887 526.017 238.658 526.57 234.47C526.636 234.204 526.482 233.934 526.22 233.855C523.318 233.061 520.272 232.979 517.657 231.352L517.405 232.283C520.161 231.996 523.774 232.077 526.183 230.541C526.336 230.452 526.431 230.288 526.43 230.11C526.092 226.425 526.304 222.66 526.255 218.963L525.273 219.096C526.488 222.619 528.218 225.933 529.645 229.369C529.729 229.628 529.996 229.779 530.26 229.718C532.365 229.417 534.32 228.455 536.416 228.063L535.929 227.227C534.91 228.136 533.948 229.112 532.98 230.076C532.472 230.582 531.238 231.409 531.033 232.136C530.828 232.865 531.621 234.104 531.927 234.714C532.901 236.658 534.051 238.514 535.086 240.426C535.392 240.993 536.256 240.488 535.949 239.922C535.129 238.405 534.249 236.922 533.426 235.407C533.012 234.647 531.927 232.979 532.094 232.389C532.273 231.755 533.825 230.644 534.299 230.176C535.066 229.418 535.831 228.652 536.636 227.934C537.04 227.575 536.601 227.014 536.15 227.099C534.054 227.491 532.1 228.452 529.994 228.754L530.61 229.103C529.183 225.668 527.452 222.351 526.237 218.83C526.165 218.596 525.933 218.448 525.69 218.481C525.447 218.514 525.263 218.718 525.255 218.963C525.298 222.212 525.241 225.465 525.353 228.713C525.361 228.942 525.496 229.689 525.378 229.869C525.095 230.301 523.445 230.476 522.97 230.569C521.135 230.93 519.263 231.089 517.405 231.283C517.183 231.29 516.992 231.441 516.934 231.656C516.876 231.87 516.964 232.097 517.153 232.215C519.849 233.893 522.956 233.999 525.955 234.819L525.605 234.204C525.032 238.48 524.83 242.797 525 247.108C525.01 247.377 525.231 247.59 525.5 247.59C525.769 247.59 525.99 247.377 526 247.108C526.425 243.221 528.111 239.18 529.779 235.677L529.095 235.856C531.477 236.795 533.551 238.377 535.086 240.427C535.437 240.963 536.303 240.462 535.949 239.922Z" fill="black"/>
<path d="M51.7303 165.145C50.1139 162.943 47.9149 161.236 45.381 160.216C45.1418 160.082 44.8395 160.161 44.6969 160.395C43.3868 162.957 41.7995 165.224 41.423 168.135H42.423C42.3372 165.287 41.9179 162.539 42.3506 159.693C42.4157 159.428 42.2624 159.158 42.0013 159.078C39.2977 158.392 36.7124 157.304 34.3323 155.849L34.0799 156.781C36.8203 156.592 39.4577 156.6 42.0988 155.757C42.3593 155.676 42.5122 155.407 42.448 155.142C42.0347 151.615 42.1672 148.046 42.8407 144.56H41.8764C42.8259 147.655 43.1948 150.895 44.3372 153.933C44.4155 154.195 44.6868 154.349 44.9522 154.282C47.317 153.635 49.6312 152.815 51.8762 151.83L51.1921 151.146C50.3393 152.702 49.3063 154.152 48.1144 155.466C47.7191 155.932 46.5426 156.828 46.3771 157.469C46.1629 158.298 46.9904 159.404 47.3799 160.057C48.5067 161.945 49.7995 163.724 50.8667 165.65C51.1787 166.213 52.0427 165.709 51.7302 165.145C50.7706 163.414 49.6392 161.797 48.5941 160.118C48.2697 159.598 47.9597 159.076 47.6697 158.536C47.0635 157.405 47.2431 158.267 47.5016 157.674C47.8867 156.791 49.1484 155.805 49.761 155.038C50.6401 153.99 51.409 152.856 52.0555 151.651C52.1621 151.454 52.1268 151.211 51.9688 151.053C51.8109 150.895 51.5678 150.86 51.3714 150.967C49.2036 151.913 46.9692 152.699 44.6864 153.318L45.3015 153.667C44.1591 150.629 43.7902 147.389 42.8407 144.294C42.7077 143.861 41.9599 143.778 41.8764 144.294C41.17 147.956 41.0375 151.705 41.4837 155.407L41.8329 154.792C39.2984 155.436 36.6948 155.768 34.0799 155.781C33.8579 155.788 33.6665 155.939 33.6084 156.153C33.5503 156.368 33.6393 156.595 33.8275 156.713C36.281 158.214 38.9471 159.336 41.7355 160.042L41.3863 159.427C40.9397 162.365 41.3343 165.19 41.423 168.135C41.4331 168.404 41.6539 168.616 41.923 168.616C42.1921 168.616 42.4129 168.404 42.423 168.135C42.7713 165.442 44.3534 163.26 45.5604 160.9L44.8763 161.079C47.2581 162.018 49.3322 163.6 50.8668 165.65C51.2178 166.186 52.0841 165.686 51.7303 165.145Z" fill="black"/>
<path d="M134.956 21.2075C133.34 19.0055 131.141 17.2983 128.607 16.2782C128.368 16.1441 128.065 16.2234 127.923 16.4575C126.612 19.0195 125.025 21.2869 124.649 24.1973H125.649C125.563 21.3493 125.144 18.6013 125.576 15.7554C125.642 15.4901 125.488 15.22 125.227 15.1403C122.07 14.2248 118.743 13.7133 115.931 11.9119L115.679 12.8436C118.912 12.624 122.196 12.7906 125.324 11.8191C125.585 11.7386 125.738 11.4692 125.674 11.2041C125.26 7.67777 125.393 4.10882 126.066 0.62284H125.102C126.052 3.71748 126.421 6.95726 127.563 9.9954C127.641 10.2578 127.913 10.4119 128.178 10.3446C130.543 9.69746 132.857 8.87794 135.102 7.89261L134.418 7.20851C133.565 8.76447 132.532 10.2146 131.34 11.529C130.945 11.9943 129.768 12.8902 129.603 13.5311C129.389 14.3607 130.216 15.4664 130.606 16.119C131.733 18.0072 133.025 19.7868 134.093 21.7122C134.405 22.2752 135.269 21.7714 134.956 21.2075C133.996 19.4762 132.865 17.8595 131.82 16.181C131.496 15.6601 131.185 15.1389 130.896 14.5983C130.289 13.4679 130.469 14.3294 130.727 13.7365C131.112 12.8531 132.374 11.8671 132.987 11.1001C133.866 10.053 134.635 8.91802 135.281 7.71323C135.388 7.51687 135.353 7.27381 135.195 7.11583C135.037 6.95785 134.794 6.92258 134.597 7.02913C132.429 7.97519 130.195 8.76103 127.912 9.38031L128.527 9.72953C127.385 6.69138 127.016 3.45163 126.066 0.35697C125.933 -0.0764201 125.186 -0.15974 125.102 0.35697C124.396 4.0185 124.263 7.76766 124.709 11.4699L125.059 10.8549C122.017 11.7992 118.821 11.6302 115.679 11.8436C115.457 11.8503 115.265 12.0015 115.207 12.2159C115.149 12.4304 115.238 12.6575 115.426 12.7754C118.315 14.6262 121.716 15.1636 124.961 16.1046L124.612 15.4895C124.165 18.4274 124.56 21.2527 124.649 24.1973C124.659 24.4662 124.88 24.679 125.149 24.679C125.418 24.679 125.639 24.4662 125.649 24.1973C125.997 21.5048 127.579 19.3225 128.786 16.9622L128.102 17.1416C130.484 18.0805 132.558 19.663 134.092 21.7122C134.444 22.2486 135.31 21.7481 134.956 21.2075Z" fill="black"/>
<circle cx="315.044" cy="65.046" r="2.4366" fill="black"/>
<circle cx="102.857" cy="199.491" r="2.4366" fill="black"/>
<circle cx="193.063" cy="82.4132" r="2.4366" fill="black"/>
<circle cx="2.58992" cy="222.632" r="2.4366" fill="black"/>
<circle cx="516.758" cy="147.085" r="2.4366" fill="black"/>
<circle cx="489.174" cy="49.3585" r="2.4366" fill="black"/>
<circle cx="503.516" cy="342.687" r="2.4366" fill="black"/>
<circle cx="406.479" cy="114.541" r="3.25964" fill="black"/>
<circle cx="209.016" cy="3.75183" r="3.25964" fill="black"/>
<circle cx="97.161" cy="70.4706" r="3.25964" fill="black"/>
<circle cx="46.1112" cy="277.525" r="3.25964" fill="black"/>
<circle cx="20.2596" cy="105.103" r="3.25964" fill="black"/>
</svg>
